{
.appVersion = "1141";
customParameters = (
{
name = glyphOrder;
value = (
NULL,
CR,
space,
nbspace,
A,
B,
C,
D,
E,
F,
G,
H,
I,
J,
K,
L,
M,
N,
O,
P,
Q,
R,
S,
T,
U,
V,
W,
X,
Y,
Z,
a,
b,
c,
d,
e,
f,
g,
h,
i,
j,
k,
l,
m,
n,
o,
p,
q,
r,
s,
t,
u,
v,
w,
x,
y,
z,
zero,
one,
two,
three,
four,
five,
six,
seven,
eight,
nine,
zero.lf,
one.lf,
two.lf,
three.lf,
four.lf,
five.lf,
six.lf,
seven.lf,
eight.lf,
nine.lf,
onesuperior,
twosuperior,
threesuperior,
foursuperior,
ordfeminine,
ordmasculine,
onehalf,
onequarter,
threequarters,
idotless,
jdotless,
AE,
ae,
OE,
oe,
eth,
Thorn,
thorn,
kgreenlandic,
Germandbls,
germandbls,
Schwa,
schwa,
micro,
fi,
fl,
f_f,
f_f_i,
f_f_l,
dollar,
cent,
euro,
sterling,
yen,
florin,
franc,
lira,
naira,
peseta,
won,
dong,
kip,
peso,
guarani,
cedi,
rupeeIndian,
liraTurkish,
manat,
ruble,
colonsign,
currency,
exclam,
exclamdown,
question,
questiondown,
comma,
period,
colon,
semicolon,
ellipsis,
periodcentered,
bullet,
underscore,
hyphen,
hyphentwo,
softhyphen,
endash,
emdash,
quotesingle,
quotedbl,
quoteleft,
quoteright,
quotesinglbase,
quotedblleft,
quotedblright,
quotedblbase,
apostrophemod,
primemod,
doubleprimemod,
minute,
second,
parenleft,
parenright,
bracketleft,
bracketright,
braceleft,
braceright,
guillemetleft,
guillemetright,
guilsinglleft,
guilsinglright,
leftanglebracket,
rightanglebracket,
plus,
minus,
plusminus,
multiply,
divide,
equal,
notequal,
approxequal,
less,
greater,
lessequal,
greaterequal,
bulletoperator,
logicalnot,
divisionslash,
slash,
backslash,
fraction,
percent,
perthousand,
bar,
brokenbar,
dagger,
daggerdbl,
copyright,
registered,
commercialMinusSign,
trademark,
degree,
asterisk,
numbersign,
ampersand,
at,
section,
paragraph,
numero,
asciicircum,
asciitilde,
uniE0FF,
uniEFFD,
uniF000,
Aacute,
Abreve,
Abreveacute,
Abrevedotbelow,
Abrevegrave,
Abrevehookabove,
Abrevetilde,
Acircumflex,
Acircumflexacute,
Acircumflexdotbelow,
Acircumflexgrave,
Acircumflexhookabove,
Acircumflextilde,
Adblgrave,
Adieresis,
Adotbelow,
Agrave,

glyphs = (
{
glyphname = A;
layers = (
{
layerId = "0C979A8A-491B-4450-B337-179908CF5A8F";
paths = (
{
closed = 1;
nodes = (
"-159 136 LINE",
"25 161 LINE",
"372 688 LINE",
"923 1531 LINE",
"1123 1513 LINE",
"1164 655 LINE",
"1192 167 LINE",
"1359 147 LINE",
"1344 0 LINE",
"791 0 LINE",
"806 147 LINE",
"981 163 LINE",
"958 648 LINE",
"934 1269 LINE",
"923 1280 LINE",
"505 625 LINE",
"210 155 LINE",
"379 136 LINE",
"356 0 LINE",
"-192 0 LINE"
);
},
{
closed = 1;
nodes = (
"428 660 LINE",
"728 654 LINE",
"698 515 LINE",
"352 501 LINE"
);
},
{
closed = 1;
nodes = (
"1087 662 LINE",
"1088 513 LINE",
"698 515 LINE",
"728 654 LINE"
);
}
);
width = 1424;
}
);
unicode = 0041;
},
{
glyphname = B;
layers = (
{
layerId = "0C979A8A-491B-4450-B337-179908CF5A8F";
paths = (
{
closed = 1;
nodes = (
"-17 146 LINE",
"169 169 LINE",
"291 797 LINE",
"391 1316 LINE",
"198 1340 LINE",
"222 1500 LINE",
"840 1500 LINE SMOOTH",
"1014 1500 OFFCURVE",
"1213 1308 OFFCURVE",
"1199 1163 QCURVE SMOOTH",
"1186 1028 OFFCURVE",
"996 854 OFFCURVE",
"890 830 QCURVE",
"889 823 LINE",
"1033 781 OFFCURVE",
"1195 574 OFFCURVE",
"1169 413 QCURVE SMOOTH",
"1139 226 OFFCURVE",
"854 0 OFFCURVE",
"612 0 QCURVE SMOOTH",
"-40 0 LINE"
);
},
{
closed = 1;
nodes = (
"419 147 LINE",
"549 147 LINE SMOOTH",
"717 147 OFFCURVE",
"930 293 OFFCURVE",
"949 420 QCURVE SMOOTH",
"968 546 OFFCURVE",
"820 724 OFFCURVE",
"691 724 QCURVE SMOOTH",
"480 724 LINE",
"478 710 LINE",
"384 167 LINE"
);
},
{
closed = 1;
nodes = (
"510 867 LINE",
"656 867 LINE SMOOTH",
"785 867 OFFCURVE",
"967 1000 OFFCURVE",
"981 1128 QCURVE SMOOTH",
"993 1234 OFFCURVE",
"854 1336 OFFCURVE",
"731 1336 QCURVE SMOOTH",
"631 1336 LINE",
"602 1318 LINE",
"515 890 LINE"
);
}
);
width = 1254;
}
);
unicode = 0042;
},
{
glyphname = C;
layers = (
{
guideLines = (
{
angle = 79;
position = "{620, 0}";
}
);
layerId = "0C979A8A-491B-4450-B337-179908CF5A8F";
paths = (
{
closed = 1;
nodes = (
"199 1205 OFFCURVE",
"714 1582 OFFCURVE",
"1032 1530 QCURVE SMOOTH",
"1129 1514 OFFCURVE",
"1260 1469 OFFCURVE",
"1309 1448 QCURVE",
"1335 1434 LINE",
"1359 1420 LINE",
"1287 992 LINE",
"1144 992 LINE",
"1160 1283 LINE",
"1149 1295 OFFCURVE",
"1041 1343 OFFCURVE",
"983 1352 QCURVE SMOOTH",
"761 1386 OFFCURVE",
"414 1145 OFFCURVE",
"342 837 QCURVE SMOOTH",
"270 533 OFFCURVE",
"421 174 OFFCURVE",
"626 140 QCURVE SMOOTH",
"817 108 OFFCURVE",
"1085 237 OFFCURVE",
"1182 361 QCURVE",
"1206 347 LINE",
"1250 227 LINE",
"1150 83 OFFCURVE",
"806 -63 OFFCURVE",
"612 -37 QCURVE SMOOTH",
"284 8 OFFCURVE",
"19 510 OFFCURVE",
"110 862 QCURVE SMOOTH"
);
}
);
width = 1330;
}
);
unicode = 0043;
userData = {
com.typemytype.robofont.guideline.magnetic.LjvDzyM7xt = 5;
};
},
{
glyphname = D;
layers = (
{
layerId = "0C979A8A-491B-4450-B337-179908CF5A8F";
paths = (
{
closed = 1;
nodes = (
"-21 148 LINE",
"175 173 LINE",
"285 755 LINE",
"395 1321 LINE",
"179 1345 LINE",
"202 1500 LINE",
"843 1500 LINE SMOOTH",
"1204 1500 OFFCURVE",
"1531 1085 OFFCURVE",
"1477 760 QCURVE SMOOTH",
"1423 431 OFFCURVE",
"981 0 OFFCURVE",
"611 0 QCURVE SMOOTH",
"-50 0 LINE"
);
},
{
closed = 1;
nodes = (
"421 170 OFFCURVE",
"553 154 OFFCURVE",
"621 154 QCURVE SMOOTH",
"864 154 OFFCURVE",
"1218 462 OFFCURVE",
"1265 747 QCURVE SMOOTH",
"1312 1032 OFFCURVE",
"1055 1334 OFFCURVE",
"815 1334 QCURVE SMOOTH",
"737 1334 OFFCURVE",
"633 1320 OFFCURVE",
"600 1317 QCURVE",
"496 754 LINE",
"391 176 LINE"
);
}
);
width = 1560;
}
);
unicode = 0044;
},
{
glyphname = E;
layers = (
{
guideLines = (
{
angle = 79;
position = "{740, 1500}";
}
);
layerId = "0C979A8A-491B-4450-B337-179908CF5A8F";
paths = (
{
closed = 1;
nodes = (
"-16 140 LINE",
"170 167 LINE",
"293 783 LINE",
"390 1316 LINE",
"192 1339 LINE",
"217 1500 LINE",
"1279 1500 LINE",
"1239 1112 LINE",
"1090 1112 LINE",
"1065 1347 LINE",
"642 1347 LINE",
"607 1321 LINE",
"503 794 LINE",
"397 187 LINE",
"423 148 LINE",
"914 148 LINE",
"1025 414 LINE",
"1185 414 LINE",
"1086 0 LINE",
"-45 0 LINE"
);
},
{
closed = 1;
nodes = (
"443 863 LINE",
"857 873 LINE",
"915 1012 LINE",
"1064 1012 LINE",
"979 556 LINE",
"830 556 LINE",
"835 717 LINE",
"424 747 LINE"
);
}
);
width = 1251;
}
);
unicode = 0045;
userData = {
com.typemytype.robofont.guideline.magnetic.ybF0jvrypC = 5;
};
},
{
glyphname = F;
layers = (
{
layerId = "0C979A8A-491B-4450-B337-179908CF5A8F";
paths = (
{
closed = 1;
nodes = (
"-17 139 LINE",
"170 166 LINE",
"286 760 LINE",
"389 1317 LINE",
"193 1340 LINE",
"217 1500 LINE",
"1272 1500 LINE",
"1202 1122 LINE",
"1062 1122 LINE",
"1067 1350 LINE",
"643 1348 LINE",
"607 1328 LINE",
"487 767 LINE",
"386 161 LINE",
"606 139 LINE",
"580 0 LINE",
"-43 0 LINE"
);
},
{
closed = 1;
nodes = (
"415 829 LINE",
"864 836 LINE",
"936 989 LINE",
"1068 989 LINE",
"987 503 LINE",
"847 503 LINE",
"848 680 LINE",
"395 691 LINE"
);
}
);
width = 1199;
}
);
unicode = 0046;
},
{
glyphname = G;
layers = (
{
layerId = "0C979A8A-491B-4450-B337-179908CF5A8F";
paths = (
{
closed = 1;
nodes = (
"198 1201 OFFCURVE",
"729 1578 OFFCURVE",
"1025 1532 QCURVE SMOOTH",
"1119 1517 OFFCURVE",
"1230 1482 OFFCURVE",
"1276 1462 QCURVE",
"1322 1444 LINE",
"1387 1420 LINE",
"1319 1031 LINE",
"1183 1031 LINE",
"1194 1241 LINE",
"1168 1276 OFFCURVE",
"1056 1348 OFFCURVE",
"984 1357 QCURVE SMOOTH",
"766 1384 OFFCURVE",
"421 1140 OFFCURVE",
"337 817 QCURVE SMOOTH",
"270 559 OFFCURVE",
"382 204 OFFCURVE",
"550 152 QCURVE SMOOTH",
"679 112 OFFCURVE",
"993 187 OFFCURVE",
"1066 240 QCURVE",
"1119 536 LINE",
"950 561 LINE",
"969 712 LINE",
"1459 712 LINE",
"1438 560 LINE",
"1318 535 LINE",
"1252 171 LINE",
"1208 138 LINE SMOOTH",
"1114 68 OFFCURVE",
"747 -55 OFFCURVE",
"534 -28 QCURVE SMOOTH",
"277 4 OFFCURVE",
"13 502 OFFCURVE",
"106 853 QCURVE SMOOTH"
);
}
);
width = 1504;
}
);
unicode = 0047;
},
{
glyphname = H;
layers = (
{
layerId = "0C979A8A-491B-4450-B337-179908CF5A8F";
paths = (
{
closed = 1;
nodes = (
"-18 147 LINE",
"169 167 LINE",
"295 806 LINE",
"391 1317 LINE",
"191 1339 LINE",
"212 1500 LINE",
"825 1500 LINE",
"794 1340 LINE",
"610 1317 LINE",
"505 777 LINE",
"394 167 LINE",
"585 147 LINE",
"563 0 LINE",
"-50 0 LINE"
);
},
{
closed = 1;
nodes = (
"421 876 LINE",
"878 873 LINE",
"1360 876 LINE",
"1331 714 LINE",
"847 703 LINE",
"392 714 LINE"
);
},
{
closed = 1;
nodes = (
"948 148 LINE",
"1135 168 LINE",
"1253 772 LINE",
"1351 1317 LINE",
"1157 1340 LINE",
"1178 1501 LINE",
"1789 1501 LINE",
"1758 1340 LINE",
"1575 1317 LINE",
"1464 755 LINE",
"1359 168 LINE",
"1549 148 LINE",
"1527 1 LINE",
"916 1 LINE"
);
}
);
width = 1739;
}
);
unicode = 0048;
},
{
glyphname = I;
layers = (
{
layerId = "0C979A8A-491B-4450-B337-179908CF5A8F";
paths = (
{
closed = 1;
nodes = (
"-12 140 LINE",
"183 165 LINE",
"302 754 LINE",
"412 1318 LINE",
"210 1341 LINE",
"232 1500 LINE",
"852 1500 LINE",
"820 1341 LINE",
"626 1318 LINE",
"512 754 LINE",
"397 166 LINE",
"598 140 LINE",
"570 0 LINE",
"-40 0 LINE"
);
}
);
width = 802;
}
);
unicode = 0049;
},
{
glyphname = J;
layers = (
{
layerId = "0C979A8A-491B-4450-B337-179908CF5A8F";
paths = (
{
closed = 1;
nodes = (
"-44 244 LINE",
"-11 209 OFFCURVE",
"109 151 OFFCURVE",
"178 151 QCURVE SMOOTH",
"259 151 OFFCURVE",
"360 256 OFFCURVE",
"385 384 QCURVE SMOOTH",
"457 754 LINE",
"561 1319 LINE",
"339 1343 LINE",
"367 1500 LINE",
"995 1500 LINE",
"966 1343 LINE",
"778 1319 LINE",
"666 754 LINE",
"608 449 LINE SMOOTH",
"561 201 OFFCURVE",
"362 -26 OFFCURVE",
"198 -26 QCURVE SMOOTH",
"81 -26 OFFCURVE",
"-64 59 OFFCURVE",
"-102 99 QCURVE"
);
}
);
width = 914;
}
);
unicode = 004A;
},
{
glyphname = K;
layers = (
{
layerId = "0C979A8A-491B-4450-B337-179908CF5A8F";
paths = (
{
closed = 1;
nodes = (
"-23 141 LINE",
"173 166 LINE",
"288 754 LINE",
"394 1317 LINE",
"201 1341 LINE",
"222 1500 LINE",
"814 1500 LINE",
"793 1341 LINE",
"611 1317 LINE",
"496 754 LINE",
"395 166 LINE",
"579 141 LINE",
"562 0 LINE",
"-40 0 LINE"
);
},
{
closed = 1;
nodes = (
"397 684 LINE",
"1120 1326 LINE",
"999 1346 LINE",
"1020 1500 LINE",
"1500 1500 LINE",
"1479 1358 LINE",
"1328 1320 LINE",
"367 481 LINE"
);
},
{
closed = 1;
nodes = (
"839 971 LINE",
"1221 158 LINE",
"1385 133 LINE",
"1371 0 LINE",
"854 0 LINE",
"868 133 LINE",
"999 158 LINE",
"683 827 LINE"
);
}
);
width = 1400;
}
);
unicode = 004B;
},
{
glyphname = L;
layers = (
{
guideLines = (
{
angle = 79;
position = "{954, 798}";
}
);
layerId = "0C979A8A-491B-4450-B337-179908CF5A8F";
paths = (
{
closed = 1;
nodes = (
"-16 143 LINE",
"170 165 LINE",
"286 754 LINE",
"393 1318 LINE",
"192 1342 LINE",
"212 1500 LINE",
"844 1500 LINE",
"824 1342 LINE",
"607 1318 LINE",
"505 754 LINE",
"391 178 LINE",
"417 151 LINE",
"911 151 LINE",
"1095 401 LINE",
"1236 401 LINE",
"1055 0 LINE",
"-43 0 LINE"
);
}
);
width = 1249;
}
);
unicode = 004C;
userData = {
com.typemytype.robofont.guideline.magnetic.tTbwZCnpC6 = 5;
};
},
{
glyphname = M;
layers = (
{
layerId = "0C979A8A-491B-4450-B337-179908CF5A8F";
paths = (
{
closed = 1;
nodes = (
"-47 154 LINE",
"144 169 LINE",
"257 754 LINE",
"363 1320 LINE",
"170 1334 LINE",
"202 1500 LINE",
"682 1500 LINE",
"820 786 LINE",
"908 295 LINE",
"1202 822 LINE",
"1584 1500 LINE",
"2065 1500 LINE",
"2033 1338 LINE",
"1855 1324 LINE",
"1743 754 LINE",
"1638 169 LINE",
"1830 154 LINE",
"1812 0 LINE",
"1194 0 LINE",
"1212 154 LINE",
"1415 169 LINE",
"1531 754 LINE",
"1636 1275 LINE",
"1327 724 LINE",
"911 -8 LINE",
"750 -8 LINE",
"626 701 LINE",
"514 1264 LINE",
"423 754 LINE",
"316 169 LINE",
"512 154 LINE",
"484 0 LINE",
"-65 0 LINE"
);
}
);
width = 2016;
}
);
unicode = 004D;
},
{
glyphname = N;
layers = (
{
guideLines = (
{
angle = 79;
position = "{860, 1500}";
}
);
layerId = "0C979A8A-491B-4450-B337-179908CF5A8F";
paths = (
{
closed = 1;
nodes = (
"-47 156 LINE",
"146 168 LINE",
"258 754 LINE",
"365 1324 LINE",
"169 1335 LINE",
"202 1500 LINE",
"661 1500 LINE",
"899 809 LINE",
"1087 268 LINE",
"1185 773 LINE",
"1289 1316 LINE",
"1088 1340 LINE",
"1113 1500 LINE",
"1676 1500 LINE",
"1652 1339 LINE",
"1458 1315 LINE",
"1347 754 LINE",
"1197 0 LINE",
"952 0 LINE",
"709 734 LINE",
"516 1266 LINE",
"423 754 LINE",
"315 171 LINE",
"512 153 LINE",
"486 0 LINE",
"-70 0 LINE"
);
}
);
width = 1556;
}
);
unicode = 004E;
userData = {
com.typemytype.robofont.guideline.magnetic.O9qr03DPhu = 5;
};
},
{
glyphname = O;
layers = (
{
guideLines = (
{
angle = 79;
position = "{600, 0}";
}
);
layerId = "0C979A8A-491B-4450-B337-179908CF5A8F";
paths = (
{
closed = 1;
nodes = (
"208 1226 OFFCURVE",
"719 1578 OFFCURVE",
"1023 1531 QCURVE SMOOTH",
"1317 1486 OFFCURVE",
"1617 981 OFFCURVE",
"1523 634 QCURVE SMOOTH",
"1423 264 OFFCURVE",
"899 -73 OFFCURVE",
"612 -38 QCURVE SMOOTH",
"309 -1 OFFCURVE",
"10 512 OFFCURVE",
"111 877 QCURVE SMOOTH"
);
},
{
closed = 1;
nodes = (
"271 559 OFFCURVE",
"432 179 OFFCURVE",
"637 141 QCURVE SMOOTH",
"839 104 OFFCURVE",
"1217 361 OFFCURVE",
"1293 661 QCURVE SMOOTH",
"1368 961 OFFCURVE",
"1178 1317 OFFCURVE",
"975 1346 QCURVE SMOOTH",
"748 1378 OFFCURVE",
"411 1141 OFFCURVE",
"337 833 QCURVE SMOOTH"
);
}
);
width = 1629;
}
);
unicode = 004F;
userData = {
com.typemytype.robofont.guideline.magnetic.972wg4KltD = 5;
};
},
{
glyphname = P;
layers = (
{
layerId = "0C979A8A-491B-4450-B337-179908CF5A8F";
paths = (
{
closed = 1;
nodes = (
"-18 148 LINE",
"171 167 LINE",
"285 754 LINE",
"390 1318 LINE",
"193 1337 LINE",
"213 1500 LINE",
"864 1500 LINE SMOOTH",
"1081 1500 OFFCURVE",
"1336 1238 OFFCURVE",
"1296 1026 QCURVE SMOOTH",
"1253 799 OFFCURVE",
"890 564 OFFCURVE",
"666 564 QCURVE SMOOTH",
"567 564 OFFCURVE",
"397 583 OFFCURVE",
"357 593 QCURVE",
"396 741 LINE",
"448 732 OFFCURVE",
"569 719 OFFCURVE",
"662 719 QCURVE SMOOTH",
"830 719 OFFCURVE",
"1039 865 OFFCURVE",
"1069 1029 QCURVE SMOOTH",
"1095 1175 OFFCURVE",
"953 1338 OFFCURVE",
"799 1338 QCURVE SMOOTH",
"634 1338 LINE",
"608 1316 LINE",
"499 764 LINE",
"393 166 LINE",
"586 145 LINE",
"566 0 LINE",
"-43 0 LINE"
);
}
);
width = 1280;
}
);
unicode = 0050;
},
{
glyphname = Q;
layers = (
{
layerId = "0C979A8A-491B-4450-B337-179908CF5A8F";
paths = (
{
closed = 1;
nodes = (
"210 1226 OFFCURVE",
"719 1578 OFFCURVE",
"1023 1531 QCURVE SMOOTH",
"1317 1486 OFFCURVE",
"1619 981 OFFCURVE",
"1523 634 QCURVE SMOOTH",
"1429 294 OFFCURVE",
"905 -43 OFFCURVE",
"618 -8 QCURVE SMOOTH",
"315 29 OFFCURVE",
"16 542 OFFCURVE",
"111 877 QCURVE SMOOTH"
);
},
{
closed = 1;
nodes = (
"277 589 OFFCURVE",
"438 209 OFFCURVE",
"643 171 QCURVE SMOOTH",
"845 134 OFFCURVE",
"1223 391 OFFCURVE",
"1293 661 QCURVE SMOOTH",
"1371 961 OFFCURVE",
"1178 1317 OFFCURVE",
"975 1346 QCURVE SMOOTH",
"748 1378 OFFCURVE",
"413 1141 OFFCURVE",
"337 833 QCURVE SMOOTH"
);
},
{
closed = 1;
nodes = (
"130 -134 OFFCURVE",
"317 -46 OFFCURVE",
"388 -51 QCURVE",
"611 232 LINE SMOOTH",
"617 240 OFFCURVE",
"631 251 OFFCURVE",
"641 264 QCURVE",
"666 254 OFFCURVE",
"743 198 OFFCURVE",
"755 185 QCURVE",
"746 172 OFFCURVE",
"733 156 OFFCURVE",
"724 146 QCURVE SMOOTH",
"506 -94 LINE",
"1076 -342 LINE SMOOTH",
"1141 -370 OFFCURVE",
"1263 -334 OFFCURVE",
"1315 -200 QCURVE",
"1430 -263 LINE",
"1366 -451 OFFCURVE",
"1182 -580 OFFCURVE",
"1065 -563 QCURVE",
"382 -263 LINE SMOOTH",
"333 -241 OFFCURVE",
"205 -268 OFFCURVE",
"164 -323 QCURVE",
"81 -234 LINE"
);
}
);
width = 1629;
}
);
unicode = 0051;
},
{
glyphname = R;
layers = (
{
layerId = "0C979A8A-491B-4450-B337-179908CF5A8F";
paths = (
{
closed = 1;
nodes = (
"-19 146 LINE",
"170 167 LINE",
"285 754 LINE",
"390 1316 LINE",
"191 1340 LINE",
"213 1500 LINE",
"870 1500 LINE SMOOTH",
"1063 1500 OFFCURVE",
"1272 1275 OFFCURVE",
"1234 1091 QCURVE SMOOTH",
"1199 922 OFFCURVE",
"942 706 OFFCURVE",
"755 706 QCURVE SMOOTH",
"694 706 OFFCURVE",
"498 705 OFFCURVE",
"447 710 QCURVE",
"464 845 LINE",
"568 845 LINE",
"706 845 LINE SMOOTH",
"865 845 OFFCURVE",
"994 961 OFFCURVE",
"1020 1100 QCURVE SMOOTH",
"1042 1216 OFFCURVE",
"927 1339 OFFCURVE",
"803 1339 QCURVE SMOOTH",
"641 1339 LINE",
"611 1321 LINE",
"498 754 LINE",
"396 167 LINE",
"584 149 LINE",
"560 0 LINE",
"-53 0 LINE"
);
},
{
closed = 1;
nodes = (
"909 820 LINE",
"936 718 LINE SMOOTH",
"996 490 OFFCURVE",
"1152 147 OFFCURVE",
"1307 137 QCURVE",
"1270 0 LINE",
"1173 0 LINE SMOOTH",
"973 0 OFFCURVE",
"787 454 OFFCURVE",
"727 681 QCURVE SMOOTH",
"706 761 LINE"
);
}
);
width = 1301;
}
);
unicode = 0052;
},
{
glyphname = S;
layers = (
{
guideLines = (
{
angle = 79;
position = "{620, 1500}";
}
);
layerId = "0C979A8A-491B-4450-B337-179908CF5A8F";
paths = (
{
closed = 1;
nodes = (
"52 505 LINE",
"206 505 LINE",
"198 350 LINE SMOOTH",
"194 267 OFFCURVE",
"337 136 OFFCURVE",
"475 136 QCURVE SMOOTH",
"594 136 OFFCURVE",
"755 259 OFFCURVE",
"755 375 QCURVE SMOOTH",
"755 476 OFFCURVE",
"628 640 OFFCURVE",
"485 736 QCURVE SMOOTH",
"363 818 OFFCURVE",
"192 1017 OFFCURVE",
"192 1161 QCURVE SMOOTH",
"192 1319 OFFCURVE",
"436 1533 OFFCURVE",
"630 1533 QCURVE SMOOTH",
"739 1533 OFFCURVE",
"892 1468 OFFCURVE",
"930 1438 QCURVE",
"982 1534 LINE",
"1102 1516 LINE",
"1036 1054 LINE",
"881 1054 LINE",
"889 1223 LINE",
"889 1268 OFFCURVE",
"761 1366 OFFCURVE",
"654 1366 QCURVE SMOOTH",
"548 1366 OFFCURVE",
"412 1275 OFFCURVE",
"412 1190 QCURVE SMOOTH",
"412 1099 OFFCURVE",
"537 972 OFFCURVE",
"682 866 QCURVE SMOOTH",
"822 763 OFFCURVE",
"975 559 OFFCURVE",
"974 410 QCURVE SMOOTH",
"973 233 OFFCURVE",
"711 -32 OFFCURVE",
"509 -32 QCURVE SMOOTH",
"405 -32 OFFCURVE",
"242 16 OFFCURVE",
"177 64 QCURVE",
"119 -22 LINE",
"-26 9 LINE"
);
}
);
width = 1071;
}
);
unicode = 0053;
userData = {
com.typemytype.robofont.guideline.magnetic.O1il3TPiQ1 = 5;
};
},
{
glyphname = T;
layers = (
{
guideLines = (
{
angle = 79;
position = "{440, 0}";
}
);
layerId = "0C979A8A-491B-4450-B337-179908CF5A8F";
paths = (
{
closed = 1;
nodes = (
"168 1500 LINE",
"1425 1500 LINE",
"1351 1064 LINE",
"1201 1064 LINE",
"1209 1347 LINE",
"891 1347 LINE",
"869 1327 LINE",
"761 754 LINE",
"649 175 LINE",
"841 147 LINE",
"822 0 LINE",
"208 0 LINE",
"228 147 LINE",
"431 175 LINE",
"546 754 LINE",
"661 1327 LINE",
"657 1347 LINE",
"326 1347 LINE",
"234 1064 LINE",
"84 1064 LINE"
);
}
);
width = 1298;
}
);
unicode = 0054;
userData = {
com.typemytype.robofont.guideline.magnetic.CbRZg0o427 = 5;
};
},
{
glyphname = U;
layers = (
{
guideLines = (
{
angle = 79;
position = "{880, 1500}";
}
);
layerId = "0C979A8A-491B-4450-B337-179908CF5A8F";
paths = (
{
closed = 1;
nodes = (
"159 1500 LINE",
"763 1500 LINE",
"740 1341 LINE",
"545 1317 LINE",
"436 794 LINE SMOOTH",
"417 702 OFFCURVE",
"384 470 OFFCURVE",
"384 403 QCURVE SMOOTH",
"384 284 OFFCURVE",
"532 153 OFFCURVE",
"673 153 QCURVE SMOOTH",
"847 153 OFFCURVE",
"1054 326 OFFCURVE",
"1089 510 QCURVE SMOOTH",
"1143 794 LINE",
"1232 1317 LINE",
"1020 1341 LINE",
"1043 1500 LINE",
"1647 1500 LINE",
"1624 1341 LINE",
"1419 1317 LINE",
"1317 794 LINE",
"1262 493 LINE SMOOTH",
"1213 226 OFFCURVE",
"895 -32 OFFCURVE",
"634 -32 QCURVE SMOOTH",
"398 -32 OFFCURVE",
"156 202 OFFCURVE",
"159 364 QCURVE SMOOTH",
"160 444 OFFCURVE",
"184 616 OFFCURVE",
"221 794 QCURVE SMOOTH",
"329 1317 LINE",
"136 1341 LINE"
);
}
);
width = 1510;
}
);
unicode = 0055;
userData = {
com.typemytype.robofont.guideline.magnetic.GZePPrmsSx = 5;
};
},
{
glyphname = V;
layers = (
{
layerId = "0C979A8A-491B-4450-B337-179908CF5A8F";
paths = (
{
closed = 1;
nodes = (
"99 1500 LINE",
"644 1500 LINE",
"620 1341 LINE",
"460 1320 LINE",
"514 801 LINE",
"565 329 LINE",
"587 329 LINE",
"853 825 LINE",
"1126 1316 LINE",
"953 1330 LINE",
"982 1500 LINE",
"1511 1500 LINE",
"1472 1330 LINE",
"1304 1311 LINE",
"984 754 LINE",
"569 -8 LINE",
"383 -8 LINE",
"312 740 LINE",
"247 1322 LINE",
"75 1341 LINE"
);
}
);
width = 1317;
}
);
unicode = 0056;
},
{
glyphname = W;
layers = (
{
layerId = "0C979A8A-491B-4450-B337-179908CF5A8F";
paths = (
{
closed = 1;
nodes = (
"130 1500 LINE",
"619 1500 LINE",
"598 1340 LINE",
"460 1320 LINE",
"467 803 LINE",
"474 338 LINE",
"500 338 LINE",
"730 768 LINE",
"985 1254 LINE",
"1034 1063 LINE",
"846 716 LINE",
"453 -8 LINE",
"289 -8 LINE",
"265 740 LINE",
"242 1320 LINE",
"109 1340 LINE"
);
},
{
closed = 1;
nodes = (
"809 1500 LINE",
"1294 1500 LINE",
"1276 1340 LINE",
"1123 1327 LINE",
"1113 800 LINE",
"1115 337 LINE",
"1140 337 LINE",
"1391 813 LINE",
"1665 1323 LINE",
"1472 1337 LINE",
"1504 1500 LINE",
"2031 1500 LINE",
"1999 1337 LINE",
"1841 1318 LINE",
"1528 760 LINE",
"1089 -8 LINE",
"928 -8 LINE",
"922 734 LINE",
"918 1327 LINE",
"791 1348 LINE"
);
}
);
width = 1896;
}
);
unicode = 0057;
},
{
glyphname = X;
layers = (
{
layerId = "0C979A8A-491B-4450-B337-179908CF5A8F";
paths = (
{
closed = 1;
nodes = (
"-93 144 LINE",
"76 169 LINE",
"623 849 LINE",
"633 849 LINE",
"1016 1328 LINE",
"858 1350 LINE",
"901 1500 LINE",
"1391 1500 LINE",
"1348 1340 LINE",
"1180 1319 LINE",
"699 728 LINE",
"690 728 LINE",
"242 164 LINE",
"417 144 LINE",
"393 0 LINE",
"-127 0 LINE"
);
},
{
closed = 1;
nodes = (
"160 1500 LINE",
"705 1500 LINE",
"696 1350 LINE",
"533 1327 LINE",
"732 857 LINE",
"1018 164 LINE",
"1183 139 LINE",
"1189 0 LINE",
"635 0 LINE",
"629 139 LINE",
"784 164 LINE",
"554 728 LINE",
"299 1329 LINE",
"151 1350 LINE"
);
}
);
width = 1280;
}
);
unicode = 0058;
},
{
glyphname = Y;
layers = (
{
guideLines = (
{
angle = 79;
position = "{430, 0}";
}
);
layerId = "0C979A8A-491B-4450-B337-179908CF5A8F";
paths = (
{
closed = 1;
nodes = (
"115 1500 LINE",
"623 1500 LINE",
"620 1345 LINE",
"465 1324 LINE",
"562 1055 LINE",
"668 768 LINE",
"873 1075 LINE",
"1041 1322 LINE",
"877 1340 LINE",
"917 1500 LINE",
"1399 1500 LINE",
"1359 1340 LINE",
"1201 1323 LINE",
"987 1011 LINE",
"708 609 LINE",
"621 164 LINE",
"825 139 LINE",
"799 0 LINE",
"174 0 LINE",
"203 139 LINE",
"418 164 LINE",
"506 593 LINE",
"382 966 LINE",
"244 1329 LINE",
"112 1345 LINE"
);
}
);
width = 1259;
}
);
unicode = 0059;
userData = {
com.typemytype.robofont.guideline.magnetic.uupWM0SuHo = 5;
};
},
{
glyphname = Z;
layers = (
{
layerId = "0C979A8A-491B-4450-B337-179908CF5A8F";
paths = (
{
closed = 1;
nodes = (
"-70 112 LINE",
"468 800 LINE",
"889 1333 LINE",
"879 1349 LINE",
"373 1349 LINE",
"295 1101 LINE",
"135 1101 LINE",
"212 1500 LINE",
"1179 1500 LINE",
"1171 1389 LINE",
"640 714 LINE",
"215 168 LINE",
"225 152 LINE",
"793 152 LINE",
"940 395 LINE",
"1099 395 LINE",
"920 0 LINE",
"-60 0 LINE"
);
}
);
width = 1130;
}
);
unicode = 005A;
},
{
glyphname = a;
layers = (
{
guideLines = (
{
angle = 79;
position = "{440, 0}";
}
);
layerId = "0C979A8A-491B-4450-B337-179908CF5A8F";
paths = (
{
closed = 1;
nodes = (
"23 607 OFFCURVE",
"482 1050 OFFCURVE",
"703 1050 QCURVE",
"724 1050 OFFCURVE",
"802 1036 OFFCURVE",
"821 1024 QCURVE",
"905 1101 LINE",
"953 1101 LINE",
"1029 905 LINE",
"909 389 LINE",
"875 209 LINE",
"894 153 OFFCURVE",
"916 98 OFFCURVE",
"939 44 QCURVE",
"731 -18 LINE",
"703 41 OFFCURVE",
"679 101 OFFCURVE",
"659 164 QCURVE",
"542 60 OFFCURVE",
"332 -10 OFFCURVE",
"255 -10 QCURVE",
"133 -10 OFFCURVE",
"23 148 OFFCURVE",
"21 301 QCURVE"
);
},
{
closed = 1;
nodes = (
"241 275 OFFCURVE",
"308 181 OFFCURVE",
"375 181 QCURVE SMOOTH",
"490 181 OFFCURVE",
"707 329 OFFCURVE",
"744 496 QCURVE SMOOTH",
"809 790 LINE",
"806 828 OFFCURVE",
"737 877 OFFCURVE",
"674 877 QCURVE SMOOTH",
"485 877 OFFCURVE",
"241 580 OFFCURVE",
"241 367 QCURVE SMOOTH"
);
}
);
width = 1146;
}
);
unicode = 0061;
userData = {
com.typemytype.robofont.guideline.magnetic.kmSa1wwWge = 5;
};
},
{
glyphname = b;
layers = (
{
layerId = "0C979A8A-491B-4450-B337-179908CF5A8F";
paths = (
{
closed = 1;
nodes = (
"154 644 LINE",
"317 1383 LINE",
"179 1450 LINE",
"211 1546 LINE",
"467 1608 LINE",
"554 1538 LINE",
"350 631 LINE",
"269 251 LINE",
"255 189 OFFCURVE",
"315 121 OFFCURVE",
"389 121 QCURVE SMOOTH",
"574 121 OFFCURVE",
"855 466 OFFCURVE",
"855 686 QCURVE SMOOTH",
"855 788 OFFCURVE",
"773 864 OFFCURVE",
"704 864 QCURVE SMOOTH",
"606 864 OFFCURVE",
"349 685 OFFCURVE",
"277 612 QCURVE",
"259 717 LINE",
"364 860 OFFCURVE",
"688 1061 OFFCURVE",
"806 1061 QCURVE SMOOTH",
"911 1061 OFFCURVE",
"1079 925 OFFCURVE",
"1079 747 QCURVE SMOOTH",
"1079 424 OFFCURVE",
"640 -35 OFFCURVE",
"398 -35 QCURVE SMOOTH",
"302 -35 OFFCURVE",
"154 34 OFFCURVE",
"114 90 QCURVE",
"78 79 LINE",
"29 153 LINE"
);
}
);
width = 1169;
}
);
unicode = 0062;
},
{
glyphname = c;
layers = (
{
guideLines = (
{
angle = 79;
position = "{450, 0}";
}
);
layerId = "0C979A8A-491B-4450-B337-179908CF5A8F";
paths = (
{
closed = 1;
nodes = (
"97 799 OFFCURVE",
"456 1089 OFFCURVE",
"663 1089 QCURVE SMOOTH",
"800 1089 OFFCURVE",
"958 941 OFFCURVE",
"958 839 QCURVE SMOOTH",
"958 759 OFFCURVE",
"879 658 OFFCURVE",
"822 638 QCURVE",
"761 695 LINE",
"761 867 LINE SMOOTH",
"761 892 OFFCURVE",
"703 933 OFFCURVE",
"643 933 QCURVE SMOOTH",
"524 933 OFFCURVE",
"295 711 OFFCURVE",
"250 507 QCURVE SMOOTH",
"206 309 OFFCURVE",
"303 112 OFFCURVE",
"424 112 QCURVE SMOOTH",
"554 112 OFFCURVE",
"749 239 OFFCURVE",
"818 339 QCURVE",
"912 256 LINE",
"912 227 LINE",
"826 104 OFFCURVE",
"579 -41 OFFCURVE",
"399 -41 QCURVE SMOOTH",
"214 -41 OFFCURVE",
"-17 278 OFFCURVE",
"41 543 QCURVE SMOOTH"
);
}
);
width = 994;
}
);
unicode = 0063;
userData = {
com.typemytype.robofont.guideline.magnetic.VgWGb3SAel = 5;
};
},
{
glyphname = d;
layers = (
{
layerId = "0C979A8A-491B-4450-B337-179908CF5A8F";
paths = (
{
closed = 1;
nodes = (
"23 597 OFFCURVE",
"483 1055 OFFCURVE",
"789 1055 QCURVE SMOOTH",
"863 1055 LINE",
"935 1384 LINE",
"793 1449 LINE",
"816 1544 LINE",
"1097 1606 LINE",
"1177 1536 LINE",
"938 469 LINE",
"866 168 LINE",
"1022 168 LINE",
"1014 44 LINE",
"732 -16 LINE",
"677 86 LINE",
"677 160 LINE",
"607 95 OFFCURVE",
"355 -20 OFFCURVE",
"255 -20 QCURVE SMOOTH",
"132 -20 OFFCURVE",
"23 146 OFFCURVE",
"23 260 QCURVE SMOOTH"
);
},
{
closed = 1;
nodes = (
"243 255 OFFCURVE",
"302 157 OFFCURVE",
"381 157 QCURVE SMOOTH",
"476 157 OFFCURVE",
"701 314 OFFCURVE",
"741 491 QCURVE SMOOTH",
"812 802 LINE",
"809 842 OFFCURVE",
"749 893 OFFCURVE",
"685 893 QCURVE SMOOTH",
"480 893 OFFCURVE",
"243 521 OFFCURVE",
"243 330 QCURVE SMOOTH"
);
}
);
width = 1184;
}
);
unicode = 0064;
},
{
glyphname = e;
layers = (
{
guideLines = (
{
angle = 79;
position = "{440, 0}";
}
);
layerId = "0C979A8A-491B-4450-B337-179908CF5A8F";
paths = (
{
closed = 1;
nodes = (
"94 778 OFFCURVE",
"466 1079 OFFCURVE",
"683 1079 QCURVE SMOOTH",
"806 1079 OFFCURVE",
"978 937 OFFCURVE",
"978 838 QCURVE SMOOTH",
"978 788 OFFCURVE",
"960 685 OFFCURVE",
"947 649 QCURVE",
"991 623 LINE",
"957 503 LINE",
"883 509 OFFCURVE",
"723 517 OFFCURVE",
"652 517 QCURVE SMOOTH",
"166 515 LINE",
"166 644 LINE",
"752 653 LINE",
"760 679 OFFCURVE",
"779 758 OFFCURVE",
"779 802 QCURVE SMOOTH",
"779 859 OFFCURVE",
"707 933 OFFCURVE",
"636 933 QCURVE SMOOTH",
"517 933 OFFCURVE",
"290 693 OFFCURVE",
"249 521 QCURVE SMOOTH",
"208 351 OFFCURVE",
"300 119 OFFCURVE",
"428 119 QCURVE SMOOTH",
"562 119 OFFCURVE",
"750 239 OFFCURVE",
"784 300 QCURVE",
"892 300 LINE",
"892 211 LINE",
"809 99 OFFCURVE",
"539 -45 OFFCURVE",
"374 -45 QCURVE SMOOTH",
"181 -45 OFFCURVE",
"-24 278 OFFCURVE",
"44 567 QCURVE SMOOTH"
);
}
);
width = 1043;
}
);
unicode = 0065;
userData = {
com.typemytype.robofont.guideline.magnetic.V0xuKZnJk5 = 5;
};
},
{
glyphname = f;
layers = (
{
layerId = "0C979A8A-491B-4450-B337-179908CF5A8F";
paths = (
{
closed = 1;
nodes = (
"-346 -294 LINE",
"-176 -304 LINE SMOOTH",
"-42 -312 OFFCURVE",
"56 -196 OFFCURVE",
"92 39 QCURVE SMOOTH",
"226 905 LINE",
"229 942 LINE",
"283 1269 LINE SMOOTH",
"312 1444 OFFCURVE",
"488 1582 OFFCURVE",
"587 1582 QCURVE SMOOTH",
"666 1582 OFFCURVE",
"780 1512 OFFCURVE",
"780 1479 QCURVE SMOOTH",
"780 1439 OFFCURVE",
"727 1354 OFFCURVE",
"698 1354 QCURVE SMOOTH",
"692 1354 OFFCURVE",
"692 1354 OFFCURVE",
"674 1368 QCURVE SMOOTH",
"663 1377 OFFCURVE",
"625 1397 OFFCURVE",
"601 1397 QCURVE SMOOTH",
"561 1397 OFFCURVE",
"493 1325 OFFCURVE",
"482 1261 QCURVE SMOOTH",
"425 936 LINE",
"439 913 LINE",
"290 82 LINE SMOOTH",
"235 -225 OFFCURVE",
"47 -474 OFFCURVE",
"-142 -474 QCURVE",
"-374 -413 LINE"
);
},
{
closed = 1;
nodes = (
"39 958 LINE",
"278 1000 LINE",
"650 980 LINE",
"650 848 LINE",
"355 845 LINE",
"298 827 LINE",
"45 844 LINE"
);
}
);
width = 617;
}
);
unicode = 0066;
},
{
glyphname = g;
layers = (
{
guideLines = (
{
angle = 79;
position = "{550, 1000}";
}
);
layerId = "0C979A8A-491B-4450-B337-179908CF5A8F";
paths = (
{
closed = 1;
nodes = (
"20 582 OFFCURVE",
"456 1043 OFFCURVE",
"674 1043 QCURVE SMOOTH",
"718 1043 OFFCURVE",
"809 1020 OFFCURVE",
"831 1001 QCURVE",
"932 1102 LINE",
"983 1102 LINE",
"1028 895 LINE",
"917 458 LINE SMOOTH",
"788 -161 OFFCURVE",
"442 -464 OFFCURVE",
"201 -464 QCURVE",
"-13 -395 LINE",
"12 -290 LINE",
"156 -297 LINE SMOOTH",
"391 -308 OFFCURVE",
"572 -150 OFFCURVE",
"619 28 QCURVE SMOOTH",
"669 216 LINE",
"556 92 OFFCURVE",
"350 -9 OFFCURVE",
"265 -9 QCURVE SMOOTH",
"144 -9 OFFCURVE",
"20 133 OFFCURVE",
"20 301 QCURVE SMOOTH"
);
},
{
closed = 1;
nodes = (
"243 256 OFFCURVE",
"306 167 OFFCURVE",
"380 167 QCURVE SMOOTH",
"483 167 OFFCURVE",
"706 351 OFFCURVE",
"747 539 QCURVE SMOOTH",
"802 803 LINE",
"799 845 OFFCURVE",
"721 873 OFFCURVE",
"678 873 QCURVE SMOOTH",
"474 873 OFFCURVE",
"243 568 OFFCURVE",
"243 336 QCURVE SMOOTH"
);
}
);
width = 1139;
}
);
unicode = 0067;
userData = {
com.typemytype.robofont.guideline.magnetic.iWDF4E1W9v = 5;
};
},
{
glyphname = h;
layers = (
{
guideLines = (
{
angle = 79;
position = "{130, 0}";
}
);
layerId = "0C979A8A-491B-4450-B337-179908CF5A8F";
paths = (
{
closed = 1;
nodes = (
"10 25 LINE",
"158 584 LINE",
"330 1383 LINE",
"177 1448 LINE",
"209 1546 LINE",
"463 1607 LINE",
"553 1532 LINE",
"365 655 LINE",
"246 134 LINE",
"301 34 LINE",
"59 -24 LINE"
);
},
{
closed = 1;
nodes = (
"676 66 LINE",
"840 720 LINE SMOOTH",
"861 803 OFFCURVE",
"810 893 OFFCURVE",
"733 893 QCURVE SMOOTH",
"635 893 OFFCURVE",
"401 675 OFFCURVE",
"334 552 QCURVE",
"325 713 LINE",
"397 843 OFFCURVE",
"704 1072 OFFCURVE",
"822 1072 QCURVE SMOOTH",
"955 1072 OFFCURVE",
"1088 885 OFFCURVE",
"1050 738 QCURVE SMOOTH",
"902 166 LINE",
"1079 166 LINE",
"1077 43 LINE",
"739 -17 LINE"
);
}
);
width = 1239;
}
);
unicode = 0068;
userData = {
com.typemytype.robofont.guideline.magnetic.3EkCfBUNUK = 5;
};
},
{
glyphname = i;
layers = (
{
guideLines = (
{
angle = 79;
position = "{380, 1000}";
}
);
layerId = "0C979A8A-491B-4450-B337-179908CF5A8F";
paths = (
{
closed = 1;
nodes = (
"38 46 LINE",
"164 527 LINE",
"230 870 LINE",
"49 868 LINE",
"70 1017 LINE",
"337 1051 LINE",
"382 1051 LINE",
"452 1013 LINE",
"452 882 LINE",
"274 166 LINE",
"463 168 LINE",
"463 52 LINE",
"95 -21 LINE"
);
},
{
closed = 1;
nodes = (
"286 1434 OFFCURVE",
"377 1508 OFFCURVE",
"431 1508 QCURVE SMOOTH",
"491 1508 OFFCURVE",
"566 1430 OFFCURVE",
"560 1374 QCURVE SMOOTH",
"553 1314 OFFCURVE",
"461 1237 OFFCURVE",
"407 1237 QCURVE SMOOTH",
"357 1237 OFFCURVE",
"275 1309 OFFCURVE",
"281 1374 QCURVE SMOOTH"
);
}
);
width = 644;
}
);
unicode = 0069;
userData = {
com.typemytype.robofont.guideline.magnetic.5usEsQpK4A = 5;
};
},
{
glyphname = j;
layers = (
{
layerId = "0C979A8A-491B-4450-B337-179908CF5A8F";
paths = (
{
closed = 1;
nodes = (
"109 302 OFFCURVE",
"209 699 OFFCURVE",
"226 870 QCURVE",
"45 868 LINE",
"66 1016 LINE",
"333 1051 LINE",
"378 1051 LINE",
"448 1013 LINE",
"448 881 LINE",
"281 94 LINE SMOOTH",
"207 -254 OFFCURVE",
"-24 -475 OFFCURVE",
"-234 -475 QCURVE",
"-430 -416 LINE",
"-404 -294 LINE",
"-239 -303 LINE SMOOTH",
"-78 -312 OFFCURVE",
"68 -163 OFFCURVE",
"113 93 QCURVE",
"73 93 LINE",
"9 188 LINE"
);
},
{
closed = 1;
nodes = (
"287 1437 OFFCURVE",
"368 1509 OFFCURVE",
"433 1509 QCURVE SMOOTH",
"493 1509 OFFCURVE",
"564 1433 OFFCURVE",
"557 1372 QCURVE SMOOTH",
"549 1307 OFFCURVE",
"468 1236 OFFCURVE",
"404 1236 QCURVE SMOOTH",
"344 1236 OFFCURVE",
"273 1312 OFFCURVE",
"280 1372 QCURVE SMOOTH"
);
}
);
width = 561;
}
);
unicode = 006A;
},
{
glyphname = k;
layers = (
{
layerId = "0C979A8A-491B-4450-B337-179908CF5A8F";
paths = (
{
closed = 1;
nodes = (
"10 24 LINE",
"158 587 LINE",
"330 1382 LINE",
"176 1446 LINE",
"208 1547 LINE",
"461 1606 LINE",
"554 1530 LINE",
"384 769 LINE",
"446 882 OFFCURVE",
"681 1075 OFFCURVE",
"770 1075 QCURVE SMOOTH",
"865 1075 OFFCURVE",
"981 939 OFFCURVE",
"981 853 QCURVE SMOOTH",
"981 754 LINE",
"947 703 LINE",
"684 518 LINE",
"865 160 LINE",
"1009 181 LINE",
"1017 65 LINE",
"754 -24 LINE",
"713 -11 OFFCURVE",
"680 11 OFFCURVE",
"689 98 QCURVE",
"524 422 LINE",
"254 222 LINE",
"209 319 LINE",
"795 738 LINE",
"786 809 OFFCURVE",
"738 888 OFFCURVE",
"685 888 QCURVE SMOOTH",
"607 888 OFFCURVE",
"403 671 OFFCURVE",
"352 580 QCURVE",
"333 548 LINE",
"242 118 LINE",
"293 31 LINE",
"62 -23 LINE"
);
}
);
width = 1069;
}
);
unicode = 006B;
},
{
glyphname = l;
layers = (
{
guideLines = (
{
angle = 79;
position = "{140, 0}";
}
);
layerId = "0C979A8A-491B-4450-B337-179908CF5A8F";
paths = (
{
closed = 1;
nodes = (
"11 23 LINE",
"149 587 LINE",
"330 1383 LINE",
"161 1449 LINE",
"193 1547 LINE",
"463 1606 LINE",
"553 1532 LINE",
"336 568 LINE",
"245 160 LINE",
"461 168 LINE",
"459 44 LINE",
"58 -25 LINE"
);
}
);
width = 574;
}
);
unicode = 006C;
userData = {
com.typemytype.robofont.guideline.magnetic.Gkm7l0yZps = 5;
};
},
{
glyphname = m;
layers = (
{
layerId = "0C979A8A-491B-4450-B337-179908CF5A8F";
paths = (
{
closed = 1;
nodes = (
"40 46 LINE",
"178 584 LINE",
"231 868 LINE",
"89 868 LINE",
"106 1018 LINE",
"360 1051 LINE",
"396 1051 LINE",
"429 787 LINE",
"406 639 LINE",
"275 175 LINE",
"345 41 LINE",
"79 -24 LINE"
);
},
{
closed = 1;
nodes = (
"693 47 LINE",
"850 719 LINE SMOOTH",
"869 802 OFFCURVE",
"826 899 OFFCURVE",
"749 899 QCURVE SMOOTH",
"651 899 OFFCURVE",
"419 679 OFFCURVE",
"352 556 QCURVE",
"345 707 LINE",
"411 830 OFFCURVE",
"700 1072 OFFCURVE",
"822 1072 QCURVE SMOOTH",
"970 1072 OFFCURVE",
"1082 845 OFFCURVE",
"1040 665 QCURVE SMOOTH",
"933 209 LINE",
"1032 48 LINE",
"749 -17 LINE"
);
},
{
closed = 1;
nodes = (
"1324 66 LINE",
"1482 719 LINE SMOOTH",
"1502 802 OFFCURVE",
"1460 899 OFFCURVE",
"1383 899 QCURVE SMOOTH",
"1285 899 OFFCURVE",
"1053 679 OFFCURVE",
"986 556 QCURVE",
"979 707 LINE",
"1050 838 OFFCURVE",
"1353 1072 OFFCURVE",
"1471 1072 QCURVE SMOOTH",
"1604 1072 OFFCURVE",
"1731 886 OFFCURVE",
"1694 739 QCURVE SMOOTH",
"1547 166 LINE",
"1723 166 LINE",
"1721 43 LINE",
"1383 -17 LINE"
);
}
);
width = 1883;
}
);
unicode = 006D;
},
{
glyphname = n;
layers = (
{
guideLines = (
{
angle = 79;
position = "{710, 1000}";
}
);
layerId = "0C979A8A-491B-4450-B337-179908CF5A8F";
paths = (
{
closed = 1;
nodes = (
"30 25 LINE",
"178 584 LINE",
"231 868 LINE",
"89 868 LINE",
"106 1018 LINE",
"360 1050 LINE",
"396 1050 LINE",
"429 787 LINE",
"406 639 LINE",
"266 134 LINE",
"321 34 LINE",
"79 -24 LINE"
);
},
{
closed = 1;
nodes = (
"696 66 LINE",
"858 719 LINE SMOOTH",
"879 802 OFFCURVE",
"831 894 OFFCURVE",
"754 894 QCURVE SMOOTH",
"656 894 OFFCURVE",
"419 675 OFFCURVE",
"352 552 QCURVE",
"345 713 LINE",
"416 844 OFFCURVE",
"724 1072 OFFCURVE",
"842 1072 QCURVE SMOOTH",
"975 1072 OFFCURVE",
"1108 886 OFFCURVE",
"1070 739 QCURVE SMOOTH",
"923 166 LINE",
"1099 166 LINE",
"1097 43 LINE",
"759 -17 LINE"
);
}
);
width = 1259;
}
);
unicode = 006E;
userData = {
com.typemytype.robofont.guideline.magnetic.chXvK8tJH2 = 5;
};
},
{
glyphname = o;
layers = (
{
guideLines = (
{
angle = 79;
position = "{430, 0}";
}
);
layerId = "0C979A8A-491B-4450-B337-179908CF5A8F";
paths = (
{
closed = 1;
nodes = (
"89 805 OFFCURVE",
"439 1092 OFFCURVE",
"658 1077 QCURVE SMOOTH",
"877 1061 OFFCURVE",
"1096 729 OFFCURVE",
"1042 484 QCURVE SMOOTH",
"993 252 OFFCURVE",
"644 -51 OFFCURVE",
"423 -36 QCURVE SMOOTH",
"204 -21 OFFCURVE",
"-15 325 OFFCURVE",
"38 575 QCURVE SMOOTH"
);
},
{
closed = 1;
nodes = (
"221 379 OFFCURVE",
"318 123 OFFCURVE",
"449 113 QCURVE SMOOTH",
"590 104 OFFCURVE",
"782 321 OFFCURVE",
"821 508 QCURVE SMOOTH",
"858 680 OFFCURVE",
"754 912 OFFCURVE",
"623 921 QCURVE SMOOTH",
"481 931 OFFCURVE",
"294 735 OFFCURVE",
"258 557 QCURVE SMOOTH"
);
}
);
width = 1158;
}
);
unicode = 006F;
userData = {
com.typemytype.robofont.guideline.magnetic.U3mirZqiRj = 5;
};
},
{
glyphname = p;
layers = (
{
layerId = "0C979A8A-491B-4450-B337-179908CF5A8F";
paths = (
{
closed = 1;
nodes = (
"172 731 LINE",
"160 938 LINE",
"128 1024 LINE",
"352 1075 LINE",
"389 1012 LINE",
"389 848 LINE",
"473 933 OFFCURVE",
"695 1061 OFFCURVE",
"811 1061 QCURVE SMOOTH",
"914 1061 OFFCURVE",
"1048 925 OFFCURVE",
"1048 810 QCURVE SMOOTH",
"1048 449 OFFCURVE",
"570 8 OFFCURVE",
"335 8 QCURVE SMOOTH",
"279 8 OFFCURVE",
"232 17 OFFCURVE",
"209 27 QCURVE",
"149 -315 LINE",
"258 -347 LINE",
"224 -454 LINE",
"43 -488 LINE",
"-75 -388 LINE"
);
},
{
closed = 1;
nodes = (
"254 221 OFFCURVE",
"292 165 OFFCURVE",
"341 165 QCURVE SMOOTH",
"540 165 OFFCURVE",
"823 477 OFFCURVE",
"823 716 QCURVE SMOOTH",
"823 791 OFFCURVE",
"747 858 OFFCURVE",
"692 858 QCURVE SMOOTH",
"619 858 OFFCURVE",
"437 754 OFFCURVE",
"373 698 QCURVE",
"310 471 LINE",
"267 278 LINE SMOOTH"
);
}
);
width = 1116;
}
);
unicode = 0070;
},
{
glyphname = q;
layers = (
{
layerId = "0C979A8A-491B-4450-B337-179908CF5A8F";
paths = (
{
closed = 1;
nodes = (
"14 599 OFFCURVE",
"454 1055 OFFCURVE",
"685 1055 QCURVE SMOOTH",
"705 1055 OFFCURVE",
"801 1034 OFFCURVE",
"827 1010 QCURVE",
"924 1101 LINE",
"975 1101 LINE",
"1020 895 LINE",
"926 506 LINE",
"736 -315 LINE",
"844 -348 LINE",
"811 -446 LINE",
"619 -480 LINE",
"521 -392 LINE",
"662 161 LINE",
"640 169 LINE",
"551 64 OFFCURVE",
"344 -19 OFFCURVE",
"256 -19 QCURVE SMOOTH",
"137 -19 OFFCURVE",
"14 146 OFFCURVE",
"14 267 QCURVE SMOOTH"
);
},
{
closed = 1;
nodes = (
"226 256 OFFCURVE",
"290 152 OFFCURVE",
"361 152 QCURVE SMOOTH",
"482 152 OFFCURVE",
"701 350 OFFCURVE",
"734 537 QCURVE SMOOTH",
"794 800 LINE",
"791 839 OFFCURVE",
"730 873 OFFCURVE",
"682 873 QCURVE SMOOTH",
"494 873 OFFCURVE",
"226 577 OFFCURVE",
"226 335 QCURVE SMOOTH"
);
}
);
width = 1134;
}
);
unicode = 0071;
},
{
glyphname = r;
layers = (
{
guideLines = (
{
angle = 79;
position = "{170, 0}";
}
);
layerId = "0C979A8A-491B-4450-B337-179908CF5A8F";
paths = (
{
closed = 1;
nodes = (
"39 44 LINE",
"162 524 LINE",
"229 869 LINE",
"37 867 LINE",
"57 1016 LINE",
"324 1050 LINE",
"371 1050 LINE",
"429 1021 LINE",
"401 680 LINE",
"275 165 LINE",
"454 114 LINE",
"454 0 LINE",
"135 -32 LINE"
);
},
{
closed = 1;
nodes = (
"709 845 LINE",
"622 845 OFFCURVE",
"437 731 OFFCURVE",
"381 644 QCURVE",
"368 731 LINE",
"441 858 OFFCURVE",
"707 1063 OFFCURVE",
"818 1063 QCURVE SMOOTH",
"873 1063 OFFCURVE",
"938 986 OFFCURVE",
"938 916 QCURVE SMOOTH",
"938 818 OFFCURVE",
"826 694 OFFCURVE",
"770 680 QCURVE",
"709 727 LINE"
);
}
);
width = 905;
}
);
unicode = 0072;
userData = {
com.typemytype.robofont.guideline.magnetic.Wi2g0HXTh8 = 5;
};
},
{
glyphname = s;
layers = (
{
guideLines = (
{
angle = 79;
position = "{530, 1000}";
}
);
layerId = "0C979A8A-491B-4450-B337-179908CF5A8F";
paths = (
{
closed = 1;
nodes = (
"-34 289 OFFCURVE",
"62 385 OFFCURVE",
"127 385 QCURVE",
"156 357 LINE",
"156 197 LINE SMOOTH",
"156 152 OFFCURVE",
"224 102 OFFCURVE",
"318 102 QCURVE SMOOTH",
"436 102 OFFCURVE",
"561 182 OFFCURVE",
"561 244 QCURVE SMOOTH",
"561 305 OFFCURVE",
"472 388 OFFCURVE",
"346 466 QCURVE SMOOTH",
"206 553 OFFCURVE",
"93 685 OFFCURVE",
"93 796 QCURVE SMOOTH",
"93 925 OFFCURVE",
"314 1093 OFFCURVE",
"495 1093 QCURVE SMOOTH",
"641 1093 OFFCURVE",
"789 962 OFFCURVE",
"789 867 QCURVE SMOOTH",
"789 787 OFFCURVE",
"707 700 OFFCURVE",
"639 700 QCURVE",
"608 726 LINE",
"608 846 LINE SMOOTH",
"608 879 OFFCURVE",
"520 947 OFFCURVE",
"457 947 QCURVE SMOOTH",
"378 947 OFFCURVE",
"286 887 OFFCURVE",
"286 840 QCURVE SMOOTH",
"286 785 OFFCURVE",
"374 713 OFFCURVE",
"479 645 QCURVE SMOOTH",
"604 564 OFFCURVE",
"752 396 OFFCURVE",
"752 284 QCURVE SMOOTH",
"752 146 OFFCURVE",
"503 -35 OFFCURVE",
"312 -35 QCURVE SMOOTH",
"140 -35 OFFCURVE",
"-34 116 OFFCURVE",
"-34 204 QCURVE SMOOTH"
);
}
);
width = 860;
}
);
unicode = 0073;
userData = {
com.typemytype.robofont.guideline.magnetic.ZKubXPeaPs = 5;
};
},
{
glyphname = t;
layers = (
{
guideLines = (
{
angle = 79;
position = "{160, 0}";
}
);
layerId = "0C979A8A-491B-4450-B337-179908CF5A8F";
paths = (
{
closed = 1;
nodes = (
"51 53 LINE",
"151 538 LINE",
"201 830 LINE",
"70 842 LINE",
"91 963 LINE",
"201 992 OFFCURVE",
"373 1215 OFFCURVE",
"408 1345 QCURVE",
"485 1345 LINE",
"519 1294 LINE",
"330 510 LINE",
"271 155 LINE",
"496 167 LINE",
"496 46 LINE",
"119 -25 LINE"
);
},
{
closed = 1;
nodes = (
"328 998 LINE",
"663 998 LINE",
"655 875 LINE",
"275 849 LINE"
);
}
);
width = 648;
}
);
unicode = 0074;
userData = {
com.typemytype.robofont.guideline.magnetic.zMkafdzAAA = 5;
};
},
{
glyphname = u;
layers = (
{
guideLines = (
{
angle = 79;
position = "{670, 1000}";
}
);
layerId = "0C979A8A-491B-4450-B337-179908CF5A8F";
paths = (
{
closed = 1;
nodes = (
"737 68 LINE",
"729 262 LINE",
"886 951 LINE",
"852 1039 LINE",
"1063 1068 LINE",
"1109 984 LINE",
"939 296 LINE",
"932 164 LINE",
"1091 164 LINE",
"1094 43 LINE",
"813 -28 LINE"
);
},
{
closed = 1;
nodes = (
"209 867 LINE",
"52 864 LINE",
"54 1006 LINE",
"307 1048 LINE",
"376 1048 LINE",
"423 964 LINE",
"298 334 LINE SMOOTH",
"280 245 OFFCURVE",
"308 148 OFFCURVE",
"394 148 QCURVE SMOOTH",
"502 148 OFFCURVE",
"755 304 OFFCURVE",
"818 377 QCURVE",
"841 282 LINE",
"770 178 OFFCURVE",
"454 -19 OFFCURVE",
"323 -19 QCURVE SMOOTH",
"201 -19 OFFCURVE",
"55 131 OFFCURVE",
"86 276 QCURVE SMOOTH"
);
}
);
width = 1217;
}
);
unicode = 0075;
userData = {
com.typemytype.robofont.guideline.magnetic.gi7GPev9gB = 5;
};
},
{
glyphname = v;
layers = (
{
layerId = "0C979A8A-491B-4450-B337-179908CF5A8F";
paths = (
{
closed = 1;
nodes = (
"-6 997 LINE",
"202 1047 LINE",
"346 1047 LINE",
"396 578 LINE",
"420 220 LINE",
"754 622 OFFCURVE",
"785 860 OFFCURVE",
"719 921 QCURVE SMOOTH",
"681 956 OFFCURVE",
"676 1046 OFFCURVE",
"713 1080 QCURVE SMOOTH",
"749 1114 OFFCURVE",
"869 1116 OFFCURVE",
"919 1074 QCURVE SMOOTH",
"1016 994 OFFCURVE",
"944 573 OFFCURVE",
"383 -40 QCURVE",
"273 -43 LINE",
"193 530 LINE",
"147 859 LINE",
"-8 856 LINE"
);
}
);
width = 1021;
}
);
unicode = 0076;
},
{
glyphname = w;
layers = (
{
layerId = "0C979A8A-491B-4450-B337-179908CF5A8F";
paths = (
{
closed = 1;
nodes = (
"-68 961 LINE",
"159 1047 LINE",
"262 1047 LINE",
"331 608 LINE",
"385 223 LINE",
"504 388 OFFCURVE",
"621 554 OFFCURVE",
"736 723 QCURVE",
"815 628 LINE",
"664 409 OFFCURVE",
"512 191 OFFCURVE",
"359 -26 QCURVE",
"240 -26 LINE",
"147 535 LINE",
"93 858 LINE",
"-70 855 LINE"
);
},
{
closed = 1;
nodes = (
"743 1049 LINE",
"827 1049 LINE",
"858 902 LINE",
"951 222 LINE",
"1305 775 OFFCURVE",
"1315 856 OFFCURVE",
"1260 892 QCURVE SMOOTH",
"1204 929 OFFCURVE",
"1181 994 OFFCURVE",
"1206 1040 QCURVE SMOOTH",
"1235 1093 OFFCURVE",
"1369 1103 OFFCURVE",
"1438 1052 QCURVE SMOOTH",
"1509 999 OFFCURVE",
"1472 783 OFFCURVE",
"920 -26 QCURVE",
"803 -26 LINE",
"703 574 LINE",
"624 897 LINE",
"597 909 LINE",
"572 1006 LINE"
);
}
);
width = 1543;
}
);
unicode = 0077;
},
{
glyphname = x;
layers = (
{
layerId = "0C979A8A-491B-4450-B337-179908CF5A8F";
paths = (
{
closed = 1;
nodes = (
"90 982 LINE",
"333 1065 LINE",
"455 1046 LINE",
"616 624 LINE",
"798 147 LINE",
"951 164 LINE",
"968 45 LINE",
"715 -30 LINE",
"634 16 LINE",
"467 438 LINE",
"283 896 LINE",
"117 874 LINE"
);
},
{
closed = 1;
nodes = (
"-104 169 LINE",
"92 169 LINE",
"156 169 OFFCURVE",
"374 399 OFFCURVE",
"496 581 QCURVE SMOOTH",
"619 767 OFFCURVE",
"903 1066 OFFCURVE",
"1000 1066 QCURVE SMOOTH",
"1064 1066 OFFCURVE",
"1155 988 OFFCURVE",
"1155 916 QCURVE SMOOTH",
"1155 854 OFFCURVE",
"1056 761 OFFCURVE",
"993 761 QCURVE",
"979 773 LINE",
"979 854 LINE",
"979 862 OFFCURVE",
"968 873 OFFCURVE",
"956 873 QCURVE SMOOTH",
"905 873 OFFCURVE",
"690 662 OFFCURVE",
"571 484 QCURVE SMOOTH",
"445 294 OFFCURVE",
"189 -28 OFFCURVE",
"70 -28 QCURVE",
"-139 73 LINE"
);
}
);
width = 1087;
}
);
unicode = 0078;
},
{
glyphname = y;
layers = (
{
guideLines = (
{
angle = 79;
position = "{600, 1000}";
}
);
layerId = "0C979A8A-491B-4450-B337-179908CF5A8F";
paths = (
{
closed = 1;
nodes = (
"-301 -282 LINE",
"-94 -282 LINE SMOOTH",
"23 -282 OFFCURVE",
"247 -201 OFFCURVE",
"343 -74 QCURVE SMOOTH",
"399 0 LINE",
"337 3 LINE",
"322 66 OFFCURVE",
"204 676 OFFCURVE",
"152 872 QCURVE",
"-13 857 LINE",
"-15 995 LINE",
"249 1053 LINE",
"320 1053 LINE",
"356 921 LINE",
"513 159 LINE",
"659 393 OFFCURVE",
"753 597 OFFCURVE",
"753 732 QCURVE SMOOTH",
"753 801 OFFCURVE",
"653 998 OFFCURVE",
"701 1041 QCURVE SMOOTH",
"766 1099 OFFCURVE",
"964 958 OFFCURVE",
"963 860 QCURVE SMOOTH",
"961 707 OFFCURVE",
"691 199 OFFCURVE",
"522 -30 QCURVE SMOOTH",
"497 -64 LINE SMOOTH",
"363 -246 OFFCURVE",
"44 -464 OFFCURVE",
"-77 -464 QCURVE",
"-328 -407 LINE"
);
}
);
width = 1026;
}
);
unicode = 0079;
userData = {
com.typemytype.robofont.guideline.magnetic.wdFHwT5Dto = 5;
};
},
{
glyphname = z;
layers = (
{
layerId = "0C979A8A-491B-4450-B337-179908CF5A8F";
paths = (
{
closed = 1;
nodes = (
"-108 76 LINE",
"14 189 OFFCURVE",
"280 486 OFFCURVE",
"356 573 QCURVE SMOOTH",
"425 652 OFFCURVE",
"562 760 OFFCURVE",
"632 831 QCURVE",
"209 827 LINE",
"142 688 LINE",
"25 688 LINE",
"104 1008 LINE",
"172 1028 LINE",
"854 1028 LINE",
"884 905 LINE",
"796 812 OFFCURVE",
"558 551 OFFCURVE",
"501 485 QCURVE SMOOTH",
"445 419 OFFCURVE",
"313 295 OFFCURVE",
"247 234 QCURVE",
"653 196 LINE",
"768 348 LINE",
"865 322 LINE",
"750 -1 LINE",
"711 -20 LINE",
"96 77 LINE",
"1 -32 LINE"
);
}
);
width = 885;
}
);
unicode = 007A;
},
{
glyphname = zero;
layers = (
{
layerId = "0C979A8A-491B-4450-B337-179908CF5A8F";
paths = (
{
closed = 1;
nodes = (
"141 1103 OFFCURVE",
"521 1520 OFFCURVE",
"757 1520 QCURVE SMOOTH",
"1002 1520 OFFCURVE",
"1224 1097 OFFCURVE",
"1165 746 QCURVE SMOOTH",
"1110 417 OFFCURVE",
"733 -30 OFFCURVE",
"489 -30 QCURVE SMOOTH",
"242 -30 OFFCURVE",
"22 397 OFFCURVE",
"82 752 QCURVE SMOOTH"
);
},
{
closed = 1;
nodes = (
"287 472 OFFCURVE",
"358 112 OFFCURVE",
"505 112 QCURVE SMOOTH",
"664 112 OFFCURVE",
"855 454 OFFCURVE",
"910 753 QCURVE SMOOTH",
"961 1034 OFFCURVE",
"880 1361 OFFCURVE",
"731 1361 QCURVE SMOOTH",
"570 1361 OFFCURVE",
"387 1051 OFFCURVE",
"337 763 QCURVE SMOOTH"
);
}
);
width = 1250;
}
);
unicode = 0030;
},
{
glyphname = one;
layers = (
{
layerId = "0C979A8A-491B-4450-B337-179908CF5A8F";
paths = (
{
closed = 1;
nodes = (
"196 62 OFFCURVE",
"228 170 OFFCURVE",
"250 277 QCURVE SMOOTH",
"411 1054 LINE",
"445 1274 LINE",
"104 1090 LINE",
"51 1244 LINE",
"639 1555 LINE",
"702 1510 LINE",
"685 1463 OFFCURVE",
"653 1318 OFFCURVE",
"649 1295 QCURVE SMOOTH",
"540 720 LINE",
"466 133 LINE",
"275 -33 LINE",
"174 0 LINE"
);
}
);
width = 796;
}
);
unicode = 0031;
},
{
glyphname = two;
layers = (
{
layerId = "0C979A8A-491B-4450-B337-179908CF5A8F";
paths = (
{
closed = 1;
nodes = (
"-140 100 LINE",
"-11 201 LINE",
"469 625 OFFCURVE",
"716 991 OFFCURVE",
"716 1186 QCURVE SMOOTH",
"716 1276 OFFCURVE",
"610 1384 OFFCURVE",
"518 1384 QCURVE SMOOTH",
"411 1384 OFFCURVE",
"254 1290 OFFCURVE",
"193 1189 QCURVE",
"66 1253 LINE",
"154 1408 OFFCURVE",
"404 1530 OFFCURVE",
"572 1530 QCURVE SMOOTH",
"744 1530 OFFCURVE",
"931 1345 OFFCURVE",
"931 1191 QCURVE SMOOTH",
"931 916 OFFCURVE",
"344 335 OFFCURVE",
"196 226 QCURVE",
"313 264 LINE",
"652 216 LINE",
"759 344 LINE",
"878 331 LINE",
"746 -20 LINE",
"575 31 OFFCURVE",
"100 81 OFFCURVE",
"-91 12 QCURVE"
);
}
);
width = 966;
}
);
unicode = 0032;
},
{
glyphname = three;
layers = (
{
layerId = "0C979A8A-491B-4450-B337-179908CF5A8F";
paths = (
{
closed = 1;
nodes = (
"-74 290 OFFCURVE",
"9 392 OFFCURVE",
"79 392 QCURVE SMOOTH",
"103 392 LINE",
"103 361 LINE SMOOTH",
"103 236 OFFCURVE",
"192 103 OFFCURVE",
"309 103 QCURVE SMOOTH",
"463 103 OFFCURVE",
"650 295 OFFCURVE",
"650 464 QCURVE SMOOTH",
"650 593 OFFCURVE",
"475 744 OFFCURVE",
"299 749 QCURVE SMOOTH",
"224 752 LINE",
"252 892 LINE",
"332 899 LINE SMOOTH",
"498 914 OFFCURVE",
"699 1052 OFFCURVE",
"699 1185 QCURVE SMOOTH",
"699 1288 OFFCURVE",
"590 1379 OFFCURVE",
"509 1379 QCURVE SMOOTH",
"407 1379 OFFCURVE",
"229 1262 OFFCURVE",
"190 1211 QCURVE",
"88 1298 LINE",
"177 1417 OFFCURVE",
"404 1532 OFFCURVE",
"575 1532 QCURVE SMOOTH",
"724 1532 OFFCURVE",
"916 1370 OFFCURVE",
"916 1229 QCURVE SMOOTH",
"916 1070 OFFCURVE",
"678 866 OFFCURVE",
"545 833 QCURVE",
"544 826 LINE",
"680 806 OFFCURVE",
"882 605 OFFCURVE",
"882 452 QCURVE SMOOTH",
"882 256 OFFCURVE",
"535 -36 OFFCURVE",
"283 -36 QCURVE SMOOTH",
"87 -36 OFFCURVE",
"-74 109 OFFCURVE",
"-74 204 QCURVE SMOOTH"
);
}
);
width = 938;
}
);
unicode = 0033;
},
{
glyphname = four;
layers = (
{
layerId = "0C979A8A-491B-4450-B337-179908CF5A8F";
paths = (
{
closed = 1;
nodes = (
"-19 540 LINE",
"913 1561 LINE",
"996 1518 LINE",
"1026 1478 LINE",
"841 503 LINE",
"855 502 LINE",
"800 176 LINE",
"800 18 LINE",
"573 -34 LINE",
"543 31 LINE",
"653 515 LINE",
"640 517 LINE",
"784 1247 LINE",
"196 590 LINE",
"200 580 LINE",
"755 573 LINE",
"1087 580 LINE",
"1070 454 LINE",
"734 446 LINE",
"-19 455 LINE"
);
}
);
width = 1170;
}
);
unicode = 0034;
},
{
glyphname = five;
layers = (
{
layerId = "0C979A8A-491B-4450-B337-179908CF5A8F";
paths = (
{
closed = 1;
nodes = (
"-65 277 OFFCURVE",
"50 374 OFFCURVE",
"102 383 QCURVE",
"113 383 LINE",
"113 336 LINE SMOOTH",
"113 215 OFFCURVE",
"200 109 OFFCURVE",
"309 107 QCURVE",
"460 109 OFFCURVE",
"657 366 OFFCURVE",
"657 550 QCURVE SMOOTH",
"657 738 OFFCURVE",
"445 860 OFFCURVE",
"264 796 QCURVE SMOOTH",
"166 761 LINE",
"121 867 LINE",
"282 1433 LINE",
"366 1500 LINE",
"973 1500 LINE",
"923 1301 LINE",
"394 1301 LINE",
"383 1290 LINE",
"330 1100 OFFCURVE",
"283 945 OFFCURVE",
"251 903 QCURVE",
"442 984 LINE",
"638 1008 OFFCURVE",
"879 794 OFFCURVE",
"879 597 QCURVE SMOOTH",
"879 337 OFFCURVE",
"543 -27 OFFCURVE",
"295 -27 QCURVE SMOOTH",
"98 -27 OFFCURVE",
"-65 99 OFFCURVE",
"-65 211 QCURVE SMOOTH"
);
}
);
width = 985;
}
);
unicode = 0035;
},
{
glyphname = six;
layers = (
{
layerId = "0C979A8A-491B-4450-B337-179908CF5A8F";
paths = (
{
closed = 1;
nodes = (
"51 850 OFFCURVE",
"648 1485 OFFCURVE",
"1079 1559 QCURVE",
"1116 1448 LINE",
"752 1372 OFFCURVE",
"287 785 OFFCURVE",
"289 440 QCURVE SMOOTH",
"290 269 OFFCURVE",
"439 109 OFFCURVE",
"546 109 QCURVE SMOOTH",
"690 109 OFFCURVE",
"842 344 OFFCURVE",
"842 507 QCURVE SMOOTH",
"842 629 OFFCURVE",
"749 749 OFFCURVE",
"669 749 QCURVE SMOOTH",
"615 749 OFFCURVE",
"521 710 OFFCURVE",
"491 688 QCURVE",
"460 783 LINE",
"497 821 OFFCURVE",
"622 886 OFFCURVE",
"709 886 QCURVE SMOOTH",
"875 886 OFFCURVE",
"1078 678 OFFCURVE",
"1078 519 QCURVE SMOOTH",
"1078 293 OFFCURVE",
"767 -27 OFFCURVE",
"520 -27 QCURVE SMOOTH",
"309 -27 OFFCURVE",
"57 229 OFFCURVE",
"55 464 QCURVE SMOOTH"
);
}
);
width = 1156;
}
);
unicode = 0036;
},
{
glyphname = seven;
layers = (
{
layerId = "0C979A8A-491B-4450-B337-179908CF5A8F";
paths = (
{
closed = 1;
nodes = (
"188 1500 LINE",
"1109 1500 LINE",
"1141 1376 LINE",
"797 983 OFFCURVE",
"480 308 OFFCURVE",
"430 0 QCURVE",
"328 -43 LINE",
"183 31 LINE",
"358 496 OFFCURVE",
"680 1024 OFFCURVE",
"880 1283 QCURVE",
"868 1297 LINE",
"281 1299 LINE",
"191 1104 LINE",
"59 1104 LINE"
);
}
);
width = 1015;
}
);
unicode = 0037;
},
{
glyphname = eight;
layers = (
{
layerId = "0C979A8A-491B-4450-B337-179908CF5A8F";
paths = (
{
closed = 1;
nodes = (
"-52 476 OFFCURVE",
"228 752 OFFCURVE",
"424 844 QCURVE",
"514 760 LINE",
"340 672 OFFCURVE",
"151 449 OFFCURVE",
"151 317 QCURVE SMOOTH",
"151 217 OFFCURVE",
"272 112 OFFCURVE",
"405 112 QCURVE SMOOTH",
"552 112 OFFCURVE",
"756 257 OFFCURVE",
"756 388 QCURVE SMOOTH",
"756 498 OFFCURVE",
"564 653 OFFCURVE",
"489 706 QCURVE SMOOTH",
"414 759 OFFCURVE",
"228 972 OFFCURVE",
"228 1129 QCURVE SMOOTH",
"228 1282 OFFCURVE",
"516 1537 OFFCURVE",
"697 1537 QCURVE SMOOTH",
"847 1537 OFFCURVE",
"1014 1378 OFFCURVE",
"1014 1261 QCURVE SMOOTH",
"1014 1108 OFFCURVE",
"810 894 OFFCURVE",
"638 805 QCURVE",
"539 893 LINE",
"699 975 OFFCURVE",
"857 1141 OFFCURVE",
"857 1215 QCURVE SMOOTH",
"857 1291 OFFCURVE",
"766 1385 OFFCURVE",
"664 1385 QCURVE SMOOTH",
"535 1385 OFFCURVE",
"423 1249 OFFCURVE",
"423 1174 QCURVE SMOOTH",
"423 1083 OFFCURVE",
"542 972 OFFCURVE",
"647 893 QCURVE SMOOTH",
"790 786 OFFCURVE",
"957 560 OFFCURVE",
"957 425 QCURVE SMOOTH",
"957 255 OFFCURVE",
"631 -36 OFFCURVE",
"390 -36 QCURVE SMOOTH",
"204 -36 OFFCURVE",
"-52 155 OFFCURVE",
"-52 308 QCURVE SMOOTH"
);
}
);
width = 1035;
}
);
unicode = 0038;
},
{
glyphname = nine;
layers = (
{
layerId = "0C979A8A-491B-4450-B337-179908CF5A8F";
paths = (
{
closed = 1;
nodes = (
"51 44 LINE",
"415 120 OFFCURVE",
"880 707 OFFCURVE",
"878 1052 QCURVE SMOOTH",
"877 1223 OFFCURVE",
"728 1383 OFFCURVE",
"621 1383 QCURVE SMOOTH",
"477 1383 OFFCURVE",
"325 1148 OFFCURVE",
"325 985 QCURVE SMOOTH",
"325 863 OFFCURVE",
"418 743 OFFCURVE",
"498 743 QCURVE SMOOTH",
"552 743 OFFCURVE",
"646 782 OFFCURVE",
"676 804 QCURVE",
"707 709 LINE",
"670 671 OFFCURVE",
"545 606 OFFCURVE",
"458 606 QCURVE SMOOTH",
"292 606 OFFCURVE",
"89 814 OFFCURVE",
"89 973 QCURVE SMOOTH",
"89 1199 OFFCURVE",
"400 1519 OFFCURVE",
"647 1519 QCURVE SMOOTH",
"858 1519 OFFCURVE",
"1110 1263 OFFCURVE",
"1112 1028 QCURVE SMOOTH",
"1116 642 OFFCURVE",
"519 7 OFFCURVE",
"88 -67 QCURVE"
);
}
);
width = 1156;
}
);
unicode = 0039;
},
{
glyphname = zero.lf;
layers = (
{
layerId = "0C979A8A-491B-4450-B337-179908CF5A8F";
paths = (
{
closed = 1;
nodes = (
"141 1103 OFFCURVE",
"521 1520 OFFCURVE",
"757 1520 QCURVE SMOOTH",
"1002 1520 OFFCURVE",
"1224 1097 OFFCURVE",
"1165 746 QCURVE SMOOTH",
"1110 417 OFFCURVE",
"733 -30 OFFCURVE",
"489 -30 QCURVE SMOOTH",
"242 -30 OFFCURVE",
"22 397 OFFCURVE",
"82 752 QCURVE SMOOTH"
);
},
{
closed = 1;
nodes = (
"287 472 OFFCURVE",
"358 112 OFFCURVE",
"505 112 QCURVE SMOOTH",
"664 112 OFFCURVE",
"855 454 OFFCURVE",
"910 753 QCURVE SMOOTH",
"961 1034 OFFCURVE",
"880 1361 OFFCURVE",
"731 1361 QCURVE SMOOTH",
"570 1361 OFFCURVE",
"387 1051 OFFCURVE",
"337 763 QCURVE SMOOTH"
);
}
);
width = 1250;
}
);
},
{
glyphname = one.lf;
layers = (
{
layerId = "0C979A8A-491B-4450-B337-179908CF5A8F";
paths = (
{
closed = 1;
nodes = (
"196 62 OFFCURVE",
"228 170 OFFCURVE",
"250 277 QCURVE SMOOTH",
"411 1054 LINE",
"445 1274 LINE",
"104 1090 LINE",
"51 1244 LINE",
"639 1555 LINE",
"702 1510 LINE",
"685 1463 OFFCURVE",
"653 1318 OFFCURVE",
"649 1295 QCURVE SMOOTH",
"540 720 LINE",
"466 133 LINE",
"275 -33 LINE",
"174 0 LINE"
);
}
);
width = 796;
}
);
},
{
glyphname = two.lf;
layers = (
{
layerId = "0C979A8A-491B-4450-B337-179908CF5A8F";
paths = (
{
closed = 1;
nodes = (
"-140 100 LINE",
"-11 201 LINE",
"469 625 OFFCURVE",
"716 991 OFFCURVE",
"716 1186 QCURVE SMOOTH",
"716 1276 OFFCURVE",
"610 1384 OFFCURVE",
"518 1384 QCURVE SMOOTH",
"411 1384 OFFCURVE",
"254 1290 OFFCURVE",
"193 1189 QCURVE",
"66 1253 LINE",
"154 1408 OFFCURVE",
"404 1530 OFFCURVE",
"572 1530 QCURVE SMOOTH",
"744 1530 OFFCURVE",
"931 1345 OFFCURVE",
"931 1191 QCURVE SMOOTH",
"931 916 OFFCURVE",
"344 335 OFFCURVE",
"196 226 QCURVE",
"313 264 LINE",
"652 216 LINE",
"759 344 LINE",
"878 331 LINE",
"746 -20 LINE",
"575 31 OFFCURVE",
"100 81 OFFCURVE",
"-91 12 QCURVE"
);
}
);
width = 966;
}
);
},
{
glyphname = three.lf;
layers = (
{
layerId = "0C979A8A-491B-4450-B337-179908CF5A8F";
paths = (
{
closed = 1;
nodes = (
"-74 290 OFFCURVE",
"9 392 OFFCURVE",
"79 392 QCURVE SMOOTH",
"103 392 LINE",
"103 361 LINE SMOOTH",
"103 236 OFFCURVE",
"192 103 OFFCURVE",
"309 103 QCURVE SMOOTH",
"463 103 OFFCURVE",
"650 295 OFFCURVE",
"650 464 QCURVE SMOOTH",
"650 593 OFFCURVE",
"475 744 OFFCURVE",
"299 749 QCURVE SMOOTH",
"224 752 LINE",
"252 892 LINE",
"332 899 LINE SMOOTH",
"498 914 OFFCURVE",
"699 1052 OFFCURVE",
"699 1185 QCURVE SMOOTH",
"699 1288 OFFCURVE",
"590 1379 OFFCURVE",
"509 1379 QCURVE SMOOTH",
"407 1379 OFFCURVE",
"229 1262 OFFCURVE",
"190 1211 QCURVE",
"88 1298 LINE",
"177 1417 OFFCURVE",
"404 1532 OFFCURVE",
"575 1532 QCURVE SMOOTH",
"724 1532 OFFCURVE",
"916 1370 OFFCURVE",
"916 1229 QCURVE SMOOTH",
"916 1070 OFFCURVE",
"678 866 OFFCURVE",
"545 833 QCURVE",
"544 826 LINE",
"680 806 OFFCURVE",
"882 605 OFFCURVE",
"882 452 QCURVE SMOOTH",
"882 256 OFFCURVE",
"535 -36 OFFCURVE",
"283 -36 QCURVE SMOOTH",
"87 -36 OFFCURVE",
"-74 109 OFFCURVE",
"-74 204 QCURVE SMOOTH"
);
}
);
width = 938;
}
);
},
{
glyphname = four.lf;
layers = (
{
layerId = "0C979A8A-491B-4450-B337-179908CF5A8F";
paths = (
{
closed = 1;
nodes = (
"-19 540 LINE",
"913 1561 LINE",
"996 1518 LINE",
"1026 1478 LINE",
"841 503 LINE",
"855 502 LINE",
"800 176 LINE",
"800 18 LINE",
"573 -34 LINE",
"543 31 LINE",
"653 515 LINE",
"640 517 LINE",
"784 1247 LINE",
"196 590 LINE",
"200 580 LINE",
"755 573 LINE",
"1087 580 LINE",
"1070 454 LINE",
"734 446 LINE",
"-19 455 LINE"
);
}
);
width = 1170;
}
);
},
{
glyphname = five.lf;
layers = (
{
layerId = "0C979A8A-491B-4450-B337-179908CF5A8F";
paths = (
{
closed = 1;
nodes = (
"-65 277 OFFCURVE",
"50 374 OFFCURVE",
"102 383 QCURVE",
"113 383 LINE",
"113 336 LINE SMOOTH",
"113 215 OFFCURVE",
"200 109 OFFCURVE",
"309 107 QCURVE",
"460 109 OFFCURVE",
"657 366 OFFCURVE",
"657 550 QCURVE SMOOTH",
"657 738 OFFCURVE",
"445 860 OFFCURVE",
"264 796 QCURVE SMOOTH",
"166 761 LINE",
"121 867 LINE",
"282 1433 LINE",
"366 1500 LINE",
"973 1500 LINE",
"923 1301 LINE",
"394 1301 LINE",
"383 1290 LINE",
"330 1100 OFFCURVE",
"283 945 OFFCURVE",
"251 903 QCURVE",
"442 984 LINE",
"638 1008 OFFCURVE",
"879 794 OFFCURVE",
"879 597 QCURVE SMOOTH",
"879 337 OFFCURVE",
"543 -27 OFFCURVE",
"295 -27 QCURVE SMOOTH",
"98 -27 OFFCURVE",
"-65 99 OFFCURVE",
"-65 211 QCURVE SMOOTH"
);
}
);
width = 985;
}
);
},
{
glyphname = six.lf;
layers = (
{
layerId = "0C979A8A-491B-4450-B337-179908CF5A8F";
paths = (
{
closed = 1;
nodes = (
"51 850 OFFCURVE",
"648 1485 OFFCURVE",
"1079 1559 QCURVE",
"1116 1448 LINE",
"752 1372 OFFCURVE",
"287 785 OFFCURVE",
"289 440 QCURVE SMOOTH",
"290 269 OFFCURVE",
"439 109 OFFCURVE",
"546 109 QCURVE SMOOTH",
"690 109 OFFCURVE",
"842 344 OFFCURVE",
"842 507 QCURVE SMOOTH",
"842 629 OFFCURVE",
"749 749 OFFCURVE",
"669 749 QCURVE SMOOTH",
"615 749 OFFCURVE",
"521 710 OFFCURVE",
"491 688 QCURVE",
"460 783 LINE",
"497 821 OFFCURVE",
"622 886 OFFCURVE",
"709 886 QCURVE SMOOTH",
"875 886 OFFCURVE",
"1078 678 OFFCURVE",
"1078 519 QCURVE SMOOTH",
"1078 293 OFFCURVE",
"767 -27 OFFCURVE",
"520 -27 QCURVE SMOOTH",
"309 -27 OFFCURVE",
"57 229 OFFCURVE",
"55 464 QCURVE SMOOTH"
);
}
);
width = 1156;
}
);
},
{
glyphname = seven.lf;
layers = (
{
layerId = "0C979A8A-491B-4450-B337-179908CF5A8F";
paths = (
{
closed = 1;
nodes = (
"188 1500 LINE",
"1109 1500 LINE",
"1141 1376 LINE",
"797 983 OFFCURVE",
"480 308 OFFCURVE",
"430 0 QCURVE",
"328 -43 LINE",
"183 31 LINE",
"358 496 OFFCURVE",
"680 1024 OFFCURVE",
"880 1283 QCURVE",
"868 1297 LINE",
"281 1299 LINE",
"191 1104 LINE",
"59 1104 LINE"
);
}
);
width = 1015;
}
);
},
{
glyphname = eight.lf;
layers = (
{
layerId = "0C979A8A-491B-4450-B337-179908CF5A8F";
paths = (
{
closed = 1;
nodes = (
"-52 476 OFFCURVE",
"228 752 OFFCURVE",
"424 844 QCURVE",
"514 760 LINE",
"340 672 OFFCURVE",
"151 449 OFFCURVE",
"151 317 QCURVE SMOOTH",
"151 217 OFFCURVE",
"272 112 OFFCURVE",
"405 112 QCURVE SMOOTH",
"552 112 OFFCURVE",
"756 257 OFFCURVE",
"756 388 QCURVE SMOOTH",
"756 498 OFFCURVE",
"564 653 OFFCURVE",
"489 706 QCURVE SMOOTH",
"414 759 OFFCURVE",
"228 972 OFFCURVE",
"228 1129 QCURVE SMOOTH",
"228 1282 OFFCURVE",
"516 1537 OFFCURVE",
"697 1537 QCURVE SMOOTH",
"847 1537 OFFCURVE",
"1014 1378 OFFCURVE",
"1014 1261 QCURVE SMOOTH",
"1014 1108 OFFCURVE",
"810 894 OFFCURVE",
"638 805 QCURVE",
"539 893 LINE",
"699 975 OFFCURVE",
"857 1141 OFFCURVE",
"857 1215 QCURVE SMOOTH",
"857 1291 OFFCURVE",
"766 1385 OFFCURVE",
"664 1385 QCURVE SMOOTH",
"535 1385 OFFCURVE",
"423 1249 OFFCURVE",
"423 1174 QCURVE SMOOTH",
"423 1083 OFFCURVE",
"542 972 OFFCURVE",
"647 893 QCURVE SMOOTH",
"790 786 OFFCURVE",
"957 560 OFFCURVE",
"957 425 QCURVE SMOOTH",
"957 255 OFFCURVE",
"631 -36 OFFCURVE",
"390 -36 QCURVE SMOOTH",
"204 -36 OFFCURVE",
"-52 155 OFFCURVE",
"-52 308 QCURVE SMOOTH"
);
}
);
width = 1035;
}
);
},
{
glyphname = nine.lf;
layers = (
{
layerId = "0C979A8A-491B-4450-B337-179908CF5A8F";
paths = (
{
closed = 1;
nodes = (
"51 44 LINE",
"415 120 OFFCURVE",
"880 707 OFFCURVE",
"878 1052 QCURVE SMOOTH",
"877 1223 OFFCURVE",
"728 1383 OFFCURVE",
"621 1383 QCURVE SMOOTH",
"477 1383 OFFCURVE",
"325 1148 OFFCURVE",
"325 985 QCURVE SMOOTH",
"325 863 OFFCURVE",
"418 743 OFFCURVE",
"498 743 QCURVE SMOOTH",
"552 743 OFFCURVE",
"646 782 OFFCURVE",
"676 804 QCURVE",
"707 709 LINE",
"670 671 OFFCURVE",
"545 606 OFFCURVE",
"458 606 QCURVE SMOOTH",
"292 606 OFFCURVE",
"89 814 OFFCURVE",
"89 973 QCURVE SMOOTH",
"89 1199 OFFCURVE",
"400 1519 OFFCURVE",
"647 1519 QCURVE SMOOTH",
"858 1519 OFFCURVE",
"1110 1263 OFFCURVE",
"1112 1028 QCURVE SMOOTH",
"1116 642 OFFCURVE",
"519 7 OFFCURVE",
"88 -67 QCURVE"
);
}
);
width = 1156;
}
);
},
{
glyphname = onesuperior;
layers = (
{
layerId = "0C979A8A-491B-4450-B337-179908CF5A8F";
paths = (
{
closed = 1;
nodes = (
"201 729 OFFCURVE",
"262 915 OFFCURVE",
"280 1004 QCURVE SMOOTH",
"332 1265 LINE",
"358 1334 LINE",
"150 1235 LINE",
"107 1353 LINE",
"454 1529 LINE",
"554 1484 LINE",
"542 1456 OFFCURVE",
"521 1384 OFFCURVE",
"518 1372 QCURVE SMOOTH",
"447 1063 LINE",
"413 767 LINE",
"235 676 LINE",
"180 699 LINE"
);
}
);
width = 590;
}
);
unicode = 00B9;
},
{
glyphname = twosuperior;
layers = (
{
layerId = "0C979A8A-491B-4450-B337-179908CF5A8F";
paths = (
{
closed = 1;
nodes = (
"41 764 LINE",
"122 817 LINE",
"399 1022 OFFCURVE",
"548 1226 OFFCURVE",
"548 1288 QCURVE SMOOTH",
"548 1346 OFFCURVE",
"473 1391 OFFCURVE",
"423 1391 QCURVE SMOOTH",
"366 1391 OFFCURVE",
"298 1356 OFFCURVE",
"232 1303 QCURVE",
"171 1389 LINE",
"233 1455 OFFCURVE",
"404 1534 OFFCURVE",
"523 1534 QCURVE SMOOTH",
"624 1534 OFFCURVE",
"737 1424 OFFCURVE",
"737 1340 QCURVE SMOOTH",
"737 1191 OFFCURVE",
"388 871 OFFCURVE",
"295 825 QCURVE",
"300 813 LINE",
"373 834 OFFCURVE",
"628 840 OFFCURVE",
"679 824 QCURVE",
"631 655 LINE",
"514 686 OFFCURVE",
"198 709 OFFCURVE",
"85 673 QCURVE"
);
}
);
width = 774;
}
);
unicode = 00B2;
},
{
glyphname = threesuperior;
layers = (
{
layerId = "0C979A8A-491B-4450-B337-179908CF5A8F";
paths = (
{
closed = 1;
nodes = (
"52 746 OFFCURVE",
"105 822 OFFCURVE",
"146 837 QCURVE",
"222 788 LINE",
"220 759 LINE",
"206 755 OFFCURVE",
"182 742 OFFCURVE",
"182 722 QCURVE SMOOTH",
"182 702 OFFCURVE",
"226 666 OFFCURVE",
"307 666 QCURVE SMOOTH",
"371 666 OFFCURVE",
"497 774 OFFCURVE",
"497 886 QCURVE SMOOTH",
"497 971 OFFCURVE",
"399 1039 OFFCURVE",
"310 1055 QCURVE SMOOTH",
"236 1055 LINE",
"253 1169 LINE",
"328 1169 LINE SMOOTH",
"409 1169 OFFCURVE",
"525 1255 OFFCURVE",
"525 1322 QCURVE SMOOTH",
"525 1369 OFFCURVE",
"463 1409 OFFCURVE",
"416 1409 QCURVE SMOOTH",
"356 1409 OFFCURVE",
"279 1373 OFFCURVE",
"236 1337 QCURVE",
"182 1407 LINE",
"240 1471 OFFCURVE",
"393 1526 OFFCURVE",
"472 1526 QCURVE SMOOTH",
"553 1526 OFFCURVE",
"683 1426 OFFCURVE",
"683 1350 QCURVE SMOOTH",
"683 1264 OFFCURVE",
"546 1136 OFFCURVE",
"477 1118 QCURVE",
"476 1114 LINE",
"558 1103 OFFCURVE",
"669 984 OFFCURVE",
"669 893 QCURVE SMOOTH",
"669 739 OFFCURVE",
"447 563 OFFCURVE",
"295 563 QCURVE SMOOTH",
"172 563 OFFCURVE",
"52 649 OFFCURVE",
"52 700 QCURVE SMOOTH"
);
}
);
width = 774;
}
);
unicode = 00B3;
},
{
glyphname = foursuperior;
layers = (
{
layerId = "0C979A8A-491B-4450-B337-179908CF5A8F";
paths = (
{
closed = 1;
nodes = (
"57 1028 LINE",
"550 1540 LINE",
"669 1516 LINE",
"679 1494 LINE",
"578 965 LINE",
"537 731 LINE",
"536 647 LINE",
"409 618 LINE",
"365 671 LINE",
"433 960 LINE",
"503 1348 LINE",
"214 1044 LINE",
"214 1016 LINE",
"490 1025 LINE",
"725 1025 LINE",
"710 905 LINE",
"504 911 LINE",
"42 907 LINE"
);
}
);
width = 774;
}
);
unicode = 2074;
},
{
glyphname = ordfeminine;
layers = (
{
layerId = "0C979A8A-491B-4450-B337-179908CF5A8F";
paths = (
{
closed = 1;
nodes = (
"127 1099 OFFCURVE",
"499 1459 OFFCURVE",
"678 1459 QCURVE SMOOTH",
"694 1459 OFFCURVE",
"741 1449 OFFCURVE",
"758 1440 QCURVE",
"826 1499 LINE",
"865 1499 LINE",
"919 1386 LINE",
"813 952 LINE",
"780 802 LINE",
"821 707 LINE",
"673 641 LINE",
"609 776 LINE",
"365 646 LINE",
"265 646 OFFCURVE",
"127 767 OFFCURVE",
"127 856 QCURVE SMOOTH"
);
},
{
closed = 1;
nodes = (
"314 885 OFFCURVE",
"354 818 OFFCURVE",
"404 818 QCURVE SMOOTH",
"485 818 OFFCURVE",
"640 946 OFFCURVE",
"665 1066 QCURVE SMOOTH",
"707 1268 LINE",
"704 1296 OFFCURVE",
"651 1312 OFFCURVE",
"624 1312 QCURVE SMOOTH",
"484 1312 OFFCURVE",
"314 1096 OFFCURVE",
"314 935 QCURVE SMOOTH"
);
}
);
width = 871;
}
);
unicode = 00AA;
},
{
glyphname = ordmasculine;
layers = (
{
layerId = "0C979A8A-491B-4450-B337-179908CF5A8F";
paths = (
{
closed = 1;
nodes = (
"198 1271 OFFCURVE",
"480 1510 OFFCURVE",
"662 1499 QCURVE SMOOTH",
"833 1489 OFFCURVE",
"1016 1235 OFFCURVE",
"972 1043 QCURVE SMOOTH",
"931 863 OFFCURVE",
"649 618 OFFCURVE",
"467 629 QCURVE SMOOTH",
"285 642 OFFCURVE",
"112 896 OFFCURVE",
"156 1090 QCURVE SMOOTH"
);
},
{
closed = 1;
nodes = (
"324 958 OFFCURVE",
"397 769 OFFCURVE",
"495 760 QCURVE SMOOTH",
"601 752 OFFCURVE",
"745 914 OFFCURVE",
"774 1054 QCURVE SMOOTH",
"802 1182 OFFCURVE",
"724 1355 OFFCURVE",
"627 1362 QCURVE SMOOTH",
"519 1370 OFFCURVE",
"380 1224 OFFCURVE",
"353 1090 QCURVE SMOOTH"
);
}
);
width = 941;
}
);
unicode = 00BA;
},
{
glyphname = idotless;
layers = (
{
guideLines = (
{
angle = 79;
position = "{380, 1000}";
}
);
layerId = "0C979A8A-491B-4450-B337-179908CF5A8F";
paths = (
{
closed = 1;
nodes = (
"38 46 LINE",
"164 527 LINE",
"230 870 LINE",
"49 868 LINE",
"70 1017 LINE",
"337 1051 LINE",
"382 1051 LINE",
"452 1013 LINE",
"452 882 LINE",
"274 166 LINE",
"463 168 LINE",
"463 52 LINE",
"95 -21 LINE"
);
}
);
width = 644;
}
);
unicode = 0131;
userData = {
com.typemytype.robofont.guideline.magnetic.rp8UzsoUjE = 5;
};
},
{
glyphname = jdotless;
layers = (
{
layerId = "0C979A8A-491B-4450-B337-179908CF5A8F";
paths = (
{
closed = 1;
nodes = (
"109 302 OFFCURVE",
"209 699 OFFCURVE",
"226 870 QCURVE",
"45 868 LINE",
"66 1016 LINE",
"333 1051 LINE",
"378 1051 LINE",
"448 1013 LINE",
"448 881 LINE",
"281 94 LINE SMOOTH",
"207 -254 OFFCURVE",
"-24 -475 OFFCURVE",
"-234 -475 QCURVE",
"-430 -416 LINE",
"-404 -294 LINE",
"-239 -303 LINE SMOOTH",
"-78 -312 OFFCURVE",
"68 -163 OFFCURVE",
"113 93 QCURVE",
"73 93 LINE",
"9 188 LINE"
);
}
);
width = 561;
}
);
unicode = 0237;
},
{
glyphname = AE;
layers = (
{
layerId = "0C979A8A-491B-4450-B337-179908CF5A8F";
paths = (
{
closed = 1;
nodes = (
"506 696 LINE",
"736 690 LINE",
"696 558 LINE",
"420 544 LINE"
);
},
{
closed = 1;
nodes = (
"1019 698 LINE",
"986 556 LINE",
"696 558 LINE",
"736 690 LINE"
);
},
{
closed = 1;
nodes = (
"694 140 LINE",
"880 167 LINE",
"1003 783 LINE",
"1104 1339 LINE",
"696 1357 LINE",
"708 1500 LINE",
"1979 1500 LINE",
"1939 1112 LINE",
"1790 1112 LINE",
"1775 1347 LINE",
"1352 1347 LINE",
"1317 1321 LINE",
"1212 783 LINE",
"1107 187 LINE",
"1133 148 LINE",
"1614 148 LINE",
"1725 414 LINE",
"1885 414 LINE",
"1786 0 LINE",
"665 0 LINE"
);
},
{
closed = 1;
nodes = (
"1142 852 LINE",
"1556 862 LINE",
"1615 1012 LINE",
"1764 1012 LINE",
"1679 556 LINE",
"1530 556 LINE",
"1534 706 LINE",
"1123 736 LINE"
);
},
{
closed = 1;
nodes = (
"552 626 LINE",
"218 157 LINE",
"388 137 LINE",
"359 0 LINE",
"-170 0 LINE",
"-141 137 LINE",
"43 163 LINE",
"419 661 LINE",
"950 1427 LINE",
"1108 1409 LINE"
);
}
);
width = 1985;
}
);
unicode = 00C6;
},
{
glyphname = ae;
layers = (
{
layerId = "0C979A8A-491B-4450-B337-179908CF5A8F";
paths = (
{
closed = 1;
nodes = (
"23 607 OFFCURVE",
"482 1050 OFFCURVE",
"705 1050 QCURVE SMOOTH",
"724 1050 OFFCURVE",
"802 1036 OFFCURVE",
"823 1024 QCURVE",
"907 1101 LINE",
"955 1101 LINE",
"1007 957 LINE",
"1084 1011 OFFCURVE",
"1281 1079 OFFCURVE",
"1373 1079 QCURVE SMOOTH",
"1507 1079 OFFCURVE",
"1662 943 OFFCURVE",
"1662 870 QCURVE SMOOTH",
"1662 820 OFFCURVE",
"1650 696 OFFCURVE",
"1643 662 QCURVE",
"1687 636 LINE",
"1647 503 LINE",
"1573 509 OFFCURVE",
"1413 517 OFFCURVE",
"1342 517 QCURVE SMOOTH",
"856 515 LINE",
"856 644 LINE",
"1438 653 LINE",
"1450 682 OFFCURVE",
"1469 758 OFFCURVE",
"1469 802 QCURVE SMOOTH",
"1469 859 OFFCURVE",
"1379 932 OFFCURVE",
"1311 932 QCURVE SMOOTH",
"1170 932 OFFCURVE",
"978 693 OFFCURVE",
"933 497 QCURVE SMOOTH",
"895 330 OFFCURVE",
"1006 128 OFFCURVE",
"1122 128 QCURVE SMOOTH",
"1272 128 OFFCURVE",
"1440 247 OFFCURVE",
"1474 308 QCURVE",
"1582 308 LINE",
"1582 219 LINE",
"1499 107 OFFCURVE",
"1229 -27 OFFCURVE",
"1064 -27 QCURVE SMOOTH",
"944 -27 OFFCURVE",
"770 77 OFFCURVE",
"735 193 QCURVE",
"624 84 OFFCURVE",
"387 -18 OFFCURVE",
"257 -18 QCURVE SMOOTH",
"133 -18 OFFCURVE",
"23 148 OFFCURVE",
"23 301 QCURVE SMOOTH"
);
},
{
closed = 1;
nodes = (
"241 275 OFFCURVE",
"308 173 OFFCURVE",
"375 173 QCURVE SMOOTH",
"490 173 OFFCURVE",
"707 329 OFFCURVE",
"744 496 QCURVE SMOOTH",
"809 790 LINE",
"806 828 OFFCURVE",
"737 877 OFFCURVE",
"674 877 QCURVE SMOOTH",
"485 877 OFFCURVE",
"241 580 OFFCURVE",
"241 367 QCURVE SMOOTH"
);
}
);
width = 1731;
}
);
unicode = 00E6;
},
{
glyphname = OE;
layers = (
{
guideLines = (
{
angle = 79;
position = "{600, 0}";
}
);
layerId = "0C979A8A-491B-4450-B337-179908CF5A8F";
paths = (
{
closed = 1;
nodes = (
"191 1183 OFFCURVE",
"651 1507 OFFCURVE",
"966 1507 QCURVE SMOOTH",
"1003 1507 OFFCURVE",
"1111 1500 OFFCURVE",
"1169 1500 QCURVE SMOOTH",
"2079 1500 LINE",
"2039 1112 LINE",
"1890 1112 LINE",
"1875 1347 LINE",
"1442 1347 LINE",
"1407 1321 LINE",
"1302 783 LINE",
"1197 187 LINE",
"1223 148 LINE",
"1714 148 LINE",
"1825 414 LINE",
"1985 414 LINE",
"1886 0 LINE",
"1054 0 LINE SMOOTH",
"988 0 OFFCURVE",
"717 -40 OFFCURVE",
"612 -28 QCURVE SMOOTH",
"294 8 OFFCURVE",
"14 506 OFFCURVE",
"101 838 QCURVE SMOOTH"
);
},
{
closed = 1;
nodes = (
"269 548 OFFCURVE",
"432 141 OFFCURVE",
"665 141 QCURVE SMOOTH",
"766 141 OFFCURVE",
"899 158 OFFCURVE",
"972 189 QCURVE",
"1093 783 LINE",
"1190 1316 LINE",
"1141 1324 OFFCURVE",
"1046 1339 OFFCURVE",
"992 1339 QCURVE SMOOTH",
"699 1339 OFFCURVE",
"388 1048 OFFCURVE",
"331 808 QCURVE SMOOTH"
);
},
{
closed = 1;
nodes = (
"1242 852 LINE",
"1656 862 LINE",
"1713 1006 LINE",
"1862 1006 LINE",
"1777 550 LINE",
"1628 550 LINE",
"1634 706 LINE",
"1223 736 LINE"
);
}
);
width = 2051;
}
);
unicode = 0152;
userData = {
com.typemytype.robofont.guideline.magnetic.H1G1w2PsAX = 5;
};
},
{
glyphname = oe;
layers = (
{
layerId = "0C979A8A-491B-4450-B337-179908CF5A8F";
paths = (
{
closed = 1;
nodes = (
"96 805 OFFCURVE",
"463 1092 OFFCURVE",
"682 1077 QCURVE SMOOTH",
"795 1069 OFFCURVE",
"956 945 OFFCURVE",
"994 846 QCURVE",
"1085 950 OFFCURVE",
"1323 1079 OFFCURVE",
"1471 1079 QCURVE SMOOTH",
"1605 1079 OFFCURVE",
"1760 943 OFFCURVE",
"1760 870 QCURVE SMOOTH",
"1760 820 OFFCURVE",
"1748 696 OFFCURVE",
"1741 662 QCURVE",
"1785 636 LINE",
"1745 503 LINE",
"1671 509 OFFCURVE",
"1511 517 OFFCURVE",
"1440 517 QCURVE SMOOTH",
"954 515 LINE",
"954 644 LINE",
"1536 653 LINE",
"1548 682 OFFCURVE",
"1567 758 OFFCURVE",
"1567 802 QCURVE SMOOTH",
"1567 859 OFFCURVE",
"1477 932 OFFCURVE",
"1409 932 QCURVE SMOOTH",
"1268 932 OFFCURVE",
"1076 693 OFFCURVE",
"1031 497 QCURVE SMOOTH",
"993 330 OFFCURVE",
"1104 125 OFFCURVE",
"1220 125 QCURVE SMOOTH",
"1370 125 OFFCURVE",
"1538 239 OFFCURVE",
"1572 300 QCURVE",
"1680 300 LINE",
"1680 211 LINE",
"1597 99 OFFCURVE",
"1327 -30 OFFCURVE",
"1162 -30 QCURVE SMOOTH",
"1067 -30 OFFCURVE",
"892 56 OFFCURVE",
"851 166 QCURVE",
"767 53 OFFCURVE",
"526 -39 OFFCURVE",
"409 -31 QCURVE SMOOTH",
"190 -16 OFFCURVE",
"-20 325 OFFCURVE",
"39 575 QCURVE SMOOTH"
);
},
{
closed = 1;
nodes = (
"217 379 OFFCURVE",
"308 128 OFFCURVE",
"439 118 QCURVE SMOOTH",
"580 109 OFFCURVE",
"777 321 OFFCURVE",
"821 508 QCURVE SMOOTH",
"862 680 OFFCURVE",
"764 912 OFFCURVE",
"633 921 QCURVE SMOOTH",
"491 931 OFFCURVE",
"299 735 OFFCURVE",
"259 557 QCURVE SMOOTH"
);
}
);
width = 1829;
}
);
unicode = 0153;
},
{
glyphname = eth;
layers = (
{
layerId = "0C979A8A-491B-4450-B337-179908CF5A8F";
paths = (
{
closed = 1;
nodes = (
"88 791 OFFCURVE",
"430 1036 OFFCURVE",
"649 1021 QCURVE SMOOTH",
"868 1005 OFFCURVE",
"1055 715 OFFCURVE",
"1001 470 QCURVE",
"858 494 LINE",
"891 645 OFFCURVE",
"776 856 OFFCURVE",
"630 865 QCURVE SMOOTH",
"472 875 OFFCURVE",
"286 695 OFFCURVE",
"257 543 QCURVE SMOOTH",
"223 365 OFFCURVE",
"318 123 OFFCURVE",
"449 113 QCURVE SMOOTH",
"590 104 OFFCURVE",
"777 322 OFFCURVE",
"820 488 QCURVE SMOOTH",
"953 1001 OFFCURVE",
"926 1361 OFFCURVE",
"827 1401 QCURVE SMOOTH",
"718 1445 OFFCURVE",
"539 1368 OFFCURVE",
"484 1300 QCURVE",
"390 1300 LINE",
"390 1413 LINE",
"467 1493 OFFCURVE",
"770 1593 OFFCURVE",
"922 1531 QCURVE SMOOTH",
"1067 1471 OFFCURVE",
"1189 983 OFFCURVE",
"1039 464 QCURVE SMOOTH",
"962 197 OFFCURVE",
"626 -53 OFFCURVE",
"423 -36 QCURVE SMOOTH",
"204 -18 OFFCURVE",
"-16 311 OFFCURVE",
"37 561 QCURVE SMOOTH"
);
},
{
closed = 1;
nodes = (
"1176 1636 LINE",
"1249 1508 LINE",
"1007 1335 LINE",
"723 1130 LINE",
"651 1243 LINE",
"944 1438 LINE"
);
}
);
width = 1168;
}
);
unicode = 00F0;
},
{
glyphname = Thorn;
layers = (
{
layerId = "0C979A8A-491B-4450-B337-179908CF5A8F";
paths = (
{
closed = 1;
nodes = (
"733 1218 LINE SMOOTH",
"950 1218 OFFCURVE",
"1175 973 OFFCURVE",
"1137 760 QCURVE SMOOTH",
"1101 556 OFFCURVE",
"767 317 OFFCURVE",
"568 317 QCURVE SMOOTH",
"469 317 OFFCURVE",
"321 338 OFFCURVE",
"279 346 QCURVE",
"310 481 LINE",
"361 468 OFFCURVE",
"463 459 OFFCURVE",
"556 459 QCURVE SMOOTH",
"711 459 OFFCURVE",
"884 623 OFFCURVE",
"912 795 QCURVE SMOOTH",
"935 934 OFFCURVE",
"819 1076 OFFCURVE",
"703 1076 QCURVE SMOOTH",
"514 1076 LINE",
"488 1054 LINE",
"432 753 LINE",
"325 164 LINE",
"525 142 LINE",
"506 0 LINE",
"-107 0 LINE",
"-88 142 LINE",
"109 169 LINE",
"221 754 LINE",
"310 1315 LINE",
"127 1339 LINE",
"156 1500 LINE",
"770 1500 LINE",
"741 1339 LINE",
"531 1336 LINE",
"512 1218 LINE"
);
}
);
width = 1151;
}
);
unicode = 00DE;
},
{
glyphname = thorn;
layers = (
{
layerId = "0C979A8A-491B-4450-B337-179908CF5A8F";
paths = (
{
closed = 1;
nodes = (
"128 603 LINE",
"292 1383 LINE",
"154 1450 LINE",
"186 1546 LINE",
"432 1608 LINE",
"519 1538 LINE",
"364 848 LINE",
"448 933 OFFCURVE",
"670 1061 OFFCURVE",
"786 1061 QCURVE SMOOTH",
"889 1061 OFFCURVE",
"1023 925 OFFCURVE",
"1023 810 QCURVE SMOOTH",
"1023 449 OFFCURVE",
"545 8 OFFCURVE",
"310 8 QCURVE SMOOTH",
"254 8 OFFCURVE",
"207 17 OFFCURVE",
"184 27 QCURVE",
"124 -315 LINE",
"233 -347 LINE",
"199 -454 LINE",
"18 -488 LINE",
"-100 -388 LINE"
);
},
{
closed = 1;
nodes = (
"229 221 OFFCURVE",
"267 165 OFFCURVE",
"316 165 QCURVE SMOOTH",
"515 165 OFFCURVE",
"798 477 OFFCURVE",
"798 716 QCURVE SMOOTH",
"798 791 OFFCURVE",
"722 858 OFFCURVE",
"667 858 QCURVE SMOOTH",
"594 858 OFFCURVE",
"412 754 OFFCURVE",
"348 698 QCURVE",
"285 471 LINE",
"242 278 LINE SMOOTH"
);
}
);
width = 1087;
}
);
unicode = 00FE;
},
{
glyphname = kgreenlandic;
layers = (
{
layerId = "0C979A8A-491B-4450-B337-179908CF5A8F";
paths = (
{
closed = 1;
nodes = (
"178 584 LINE",
"231 868 LINE",
"89 868 LINE",
"106 1018 LINE",
"340 1051 LINE",
"376 1051 LINE",
"453 987 LINE",
"406 639 LINE",
"266 134 LINE",
"321 34 LINE",
"79 -24 LINE",
"30 25 LINE"
);
},
{
closed = 1;
nodes = (
"921 861 LINE",
"636 624 LINE",
"923 168 LINE",
"1079 168 LINE",
"1072 44 LINE",
"819 -9 LINE SMOOTH",
"804 -12 OFFCURVE",
"770 29 OFFCURVE",
"734 114 QCURVE",
"487 512 LINE",
"324 393 LINE",
"270 502 LINE",
"745 882 LINE",
"742 893 LINE",
"660 916 LINE",
"678 1027 LINE",
"1094 1027 LINE",
"1072 907 LINE"
);
}
);
width = 1104;
}
);
unicode = 0138;
},
{
glyphname = Germandbls;
layers = (
{
layerId = "0C979A8A-491B-4450-B337-179908CF5A8F";
paths = (
{
closed = 1;
nodes = (
"449 -448 LINE",
"-167 -448 LINE",
"-142 -305 LINE",
"45 -278 LINE",
"247 760 LINE",
"319 1138 LINE SMOOTH",
"352 1310 OFFCURVE",
"614 1556 OFFCURVE",
"812 1556 QCURVE SMOOTH",
"865 1556 OFFCURVE",
"987 1535 OFFCURVE",
"1056 1515 QCURVE",
"1117 1500 LINE",
"1144 1337 LINE",
"1051 1343 OFFCURVE",
"870 1260 OFFCURVE",
"870 1176 QCURVE SMOOTH",
"870 1099 OFFCURVE",
"1003 978 OFFCURVE",
"1150 876 QCURVE SMOOTH",
"1301 771 OFFCURVE",
"1453 559 OFFCURVE",
"1452 410 QCURVE SMOOTH",
"1451 233 OFFCURVE",
"1170 -13 OFFCURVE",
"1011 -13 QCURVE SMOOTH",
"864 -13 OFFCURVE",
"669 49 OFFCURVE",
"628 84 QCURVE",
"594 -20 LINE",
"454 -2 LINE",
"530 475 LINE",
"689 475 LINE",
"681 356 LINE SMOOTH",
"675 263 OFFCURVE",
"836 156 OFFCURVE",
"969 156 QCURVE SMOOTH",
"1082 156 OFFCURVE",
"1232 268 OFFCURVE",
"1232 384 QCURVE SMOOTH",
"1232 476 OFFCURVE",
"1116 630 OFFCURVE",
"973 726 QCURVE SMOOTH",
"851 808 OFFCURVE",
"660 987 OFFCURVE",
"660 1131 QCURVE SMOOTH",
"660 1208 OFFCURVE",
"785 1340 OFFCURVE",
"869 1374 QCURVE",
"715 1386 OFFCURVE",
"541 1219 OFFCURVE",
"520 1096 QCURVE SMOOTH",
"463 760 LINE",
"264 -283 LINE",
"474 -305 LINE"
);
}
);
width = 1493;
}
);
unicode = 1E9E;
},
{
glyphname = germandbls;
layers = (
{
layerId = "0C979A8A-491B-4450-B337-179908CF5A8F";
paths = (
{
closed = 1;
nodes = (
"240 1192 LINE SMOOTH",
"269 1368 OFFCURVE",
"472 1582 OFFCURVE",
"620 1582 QCURVE SMOOTH",
"779 1582 OFFCURVE",
"965 1425 OFFCURVE",
"965 1305 QCURVE SMOOTH",
"965 1177 OFFCURVE",
"845 1026 OFFCURVE",
"753 961 QCURVE SMOOTH",
"715 934 OFFCURVE",
"652 878 OFFCURVE",
"652 840 QCURVE SMOOTH",
"652 785 OFFCURVE",
"740 723 OFFCURVE",
"845 655 QCURVE SMOOTH",
"970 574 OFFCURVE",
"1118 416 OFFCURVE",
"1118 304 QCURVE SMOOTH",
"1118 166 OFFCURVE",
"869 -34 OFFCURVE",
"715 -34 QCURVE SMOOTH",
"542 -34 OFFCURVE",
"381 100 OFFCURVE",
"381 179 QCURVE SMOOTH",
"381 255 OFFCURVE",
"470 371 OFFCURVE",
"530 371 QCURVE",
"557 346 LINE",
"557 223 LINE SMOOTH",
"557 182 OFFCURVE",
"649 132 OFFCURVE",
"721 132 QCURVE SMOOTH",
"802 132 OFFCURVE",
"927 202 OFFCURVE",
"927 264 QCURVE SMOOTH",
"927 325 OFFCURVE",
"838 398 OFFCURVE",
"712 476 QCURVE SMOOTH",
"572 563 OFFCURVE",
"459 685 OFFCURVE",
"459 773 QCURVE SMOOTH",
"459 854 OFFCURVE",
"532 978 OFFCURVE",
"625 1057 QCURVE SMOOTH",
"707 1127 OFFCURVE",
"789 1224 OFFCURVE",
"789 1291 QCURVE SMOOTH",
"789 1342 OFFCURVE",
"708 1429 OFFCURVE",
"639 1429 QCURVE SMOOTH",
"556 1429 OFFCURVE",
"465 1341 OFFCURVE",
"451 1261 QCURVE",
"249 82 LINE SMOOTH",
"196 -225 OFFCURVE",
"6 -474 OFFCURVE",
"-183 -474 QCURVE",
"-415 -413 LINE",
"-387 -294 LINE",
"-217 -304 LINE",
"-83 -304 OFFCURVE",
"12 -196 OFFCURVE",
"51 39 QCURVE"
);
}
);
width = 1189;
}
);
unicode = 00DF;
},
{
glyphname = Schwa;
layers = (
{
layerId = "0C979A8A-491B-4450-B337-179908CF5A8F";
paths = (
{
closed = 1;
nodes = (
"236 1396 OFFCURVE",
"636 1576 OFFCURVE",
"901 1538 QCURVE SMOOTH",
"1148 1503 OFFCURVE",
"1399 987 OFFCURVE",
"1302 634 QCURVE SMOOTH",
"1206 283 OFFCURVE",
"630 -77 OFFCURVE",
"355 -42 QCURVE SMOOTH",
"173 -19 OFFCURVE",
"-24 160 OFFCURVE",
"-24 299 QCURVE SMOOTH",
"-24 332 OFFCURVE",
"-19 396 OFFCURVE",
"-10 441 QCURVE",
"49 502 LINE",
"1019 502 LINE",
"1038 544 OFFCURVE",
"1061 606 OFFCURVE",
"1074 658 QCURVE SMOOTH",
"1151 955 OFFCURVE",
"981 1321 OFFCURVE",
"799 1358 QCURVE SMOOTH",
"621 1394 OFFCURVE",
"337 1260 OFFCURVE",
"243 1121 QCURVE",
"201 1142 LINE",
"133 1252 LINE"
);
},
{
closed = 1;
nodes = (
"542 111 OFFCURVE",
"806 199 OFFCURVE",
"902 347 QCURVE",
"513 350 LINE",
"260 348 LINE SMOOTH",
"219 348 OFFCURVE",
"188 302 OFFCURVE",
"188 256 QCURVE SMOOTH",
"188 196 OFFCURVE",
"325 141 OFFCURVE",
"397 131 QCURVE SMOOTH"
);
}
);
width = 1303;
}
);
unicode = 018F;
},
{
glyphname = schwa;
layers = (
{
layerId = "0C979A8A-491B-4450-B337-179908CF5A8F";
paths = (
{
closed = 1;
nodes = (
"860 265 OFFCURVE",
"488 -36 OFFCURVE",
"271 -36 QCURVE SMOOTH",
"137 -36 OFFCURVE",
"-18 100 OFFCURVE",
"-18 173 QCURVE SMOOTH",
"-18 223 OFFCURVE",
"-6 347 OFFCURVE",
"1 381 QCURVE",
"-43 407 LINE",
"-3 540 LINE",
"71 534 OFFCURVE",
"231 526 OFFCURVE",
"302 526 QCURVE SMOOTH",
"788 528 LINE",
"788 399 LINE",
"206 390 LINE",
"194 361 OFFCURVE",
"175 285 OFFCURVE",
"175 241 QCURVE SMOOTH",
"175 184 OFFCURVE",
"265 111 OFFCURVE",
"333 111 QCURVE SMOOTH",
"474 111 OFFCURVE",
"666 350 OFFCURVE",
"711 546 QCURVE SMOOTH",
"749 713 OFFCURVE",
"638 923 OFFCURVE",
"522 923 QCURVE SMOOTH",
"372 923 OFFCURVE",
"204 804 OFFCURVE",
"170 743 QCURVE",
"62 743 LINE",
"62 832 LINE",
"145 944 OFFCURVE",
"415 1078 OFFCURVE",
"580 1078 QCURVE SMOOTH",
"773 1078 OFFCURVE",
"978 765 OFFCURVE",
"910 476 QCURVE SMOOTH"
);
}
);
width = 994;
}
);
unicode = 0259;
},
{
glyphname = micro;
layers = (
{
layerId = "0C979A8A-491B-4450-B337-179908CF5A8F";
paths = (
{
closed = 1;
nodes = (
"-60 -293 LINE",
"-23.75 -151 OFFCURVE",
"67 187 OFFCURVE",
"85 275 QCURVE SMOOTH",
"209 867 LINE",
"52 864 LINE",
"54 1006 LINE",
"307 1048 LINE",
"376 1048 LINE",
"431 964 LINE",
"298 342 LINE SMOOTH",
"279 253 OFFCURVE",
"320 156 OFFCURVE",
"394 156 QCURVE SMOOTH",
"475 156 OFFCURVE",
"665 245 OFFCURVE",
"738 302 QCURVE",
"886 951 LINE",
"852 1039 LINE",
"1063 1068 LINE",
"1109 984 LINE",
"941 306 LINE",
"934 174 LINE",
"1093 174 LINE",
"1096 53 LINE",
"815 -18 LINE",
"739 78 LINE",
"735 169 LINE",
"648 96 OFFCURVE",
"419 -11 OFFCURVE",
"323 -11 QCURVE SMOOTH",
"292 -11 OFFCURVE",
"236 -2 OFFCURVE",
"211 7 QCURVE",
"158 -231 LINE",
"334 -239 LINE",
"331 -371 LINE",
"-60 -399 LINE",
"-83 -317 LINE"
);
}
);
width = 1217;
}
);
unicode = 00B5;
},
{
glyphname = fi;
layers = (
{
layerId = "0C979A8A-491B-4450-B337-179908CF5A8F";
paths = (
{
closed = 1;
nodes = (
"-346 -294 LINE",
"-176 -304 LINE",
"-42 -304 OFFCURVE",
"56 -196 OFFCURVE",
"92 39 QCURVE SMOOTH",
"226 905 LINE",
"229 942 LINE",
"266 1165 LINE SMOOTH",
"307 1414 OFFCURVE",
"508 1582 OFFCURVE",
"627 1582 QCURVE SMOOTH",
"716 1582 OFFCURVE",
"835 1502 OFFCURVE",
"835 1469 QCURVE SMOOTH",
"835 1429 OFFCURVE",
"782 1344 OFFCURVE",
"753 1344 QCURVE SMOOTH",
"747 1344 OFFCURVE",
"747 1344 OFFCURVE",
"729 1358 QCURVE SMOOTH",
"718 1367 OFFCURVE",
"685 1397 OFFCURVE",
"641 1397 QCURVE SMOOTH",
"581 1397 OFFCURVE",
"488 1295 OFFCURVE",
"464 1157 QCURVE SMOOTH",
"425 936 LINE",
"439 913 LINE",
"290 82 LINE SMOOTH",
"235 -225 OFFCURVE",
"47 -474 OFFCURVE",
"-142 -474 QCURVE",
"-374 -413 LINE"
);
},
{
closed = 1;
nodes = (
"39 958 LINE",
"278 1000 LINE",
"780 1000 LINE",
"780 868 LINE",
"355 845 LINE",
"298 827 LINE",
"45 844 LINE"
);
},
{
closed = 1;
nodes = (
"688 46 LINE",
"814 527 LINE",
"880 870 LINE",
"699 868 LINE",
"720 997 LINE",
"987 1051 LINE",
"1032 1051 LINE",
"1102 1013 LINE",
"1102 882 LINE",
"924 166 LINE",
"1113 168 LINE",
"1113 52 LINE",
"745 -21 LINE"
);
}
);
width = 1296;
}
);
unicode = FB01;
},
{
glyphname = fl;
layers = (
{
layerId = "0C979A8A-491B-4450-B337-179908CF5A8F";
paths = (
{
closed = 1;
nodes = (
"-346 -294 LINE",
"-176 -304 LINE",
"-42 -304 OFFCURVE",
"56 -196 OFFCURVE",
"92 39 QCURVE SMOOTH",
"226 905 LINE",
"229 942 LINE",
"283 1269 LINE SMOOTH",
"312 1444 OFFCURVE",
"518 1582 OFFCURVE",
"617 1582 QCURVE SMOOTH",
"696 1582 OFFCURVE",
"830 1512 OFFCURVE",
"830 1484 QCURVE SMOOTH",
"830 1450 OFFCURVE",
"777 1379 OFFCURVE",
"748 1379 QCURVE SMOOTH",
"742 1379 OFFCURVE",
"742 1379 OFFCURVE",
"724 1391 QCURVE SMOOTH",
"713 1398 OFFCURVE",
"655 1415 OFFCURVE",
"631 1415 QCURVE SMOOTH",
"591 1415 OFFCURVE",
"495 1335 OFFCURVE",
"482 1261 QCURVE SMOOTH",
"425 936 LINE",
"439 913 LINE",
"290 82 LINE SMOOTH",
"235 -225 OFFCURVE",
"47 -474 OFFCURVE",
"-142 -474 QCURVE",
"-374 -413 LINE"
);
},
{
closed = 1;
nodes = (
"39 958 LINE",
"278 1000 LINE",
"700 980 LINE",
"700 848 LINE",
"355 845 LINE",
"298 827 LINE",
"45 844 LINE"
);
},
{
closed = 1;
nodes = (
"661 23 LINE",
"799 587 LINE",
"980 1363 LINE",
"761 1399 LINE",
"793 1507 LINE",
"1113 1606 LINE",
"1203 1532 LINE",
"986 568 LINE",
"895 160 LINE",
"1111 168 LINE",
"1109 44 LINE",
"708 -25 LINE"
);
}
);
width = 1224;
}
);
unicode = FB02;
},
{
glyphname = f_f;
layers = (
{
layerId = "0C979A8A-491B-4450-B337-179908CF5A8F";
paths = (
{
closed = 1;
nodes = (
"-307 -294 LINE",
"-176 -304 LINE",
"-42 -304 OFFCURVE",
"56 -196 OFFCURVE",
"92 39 QCURVE SMOOTH",
"226 905 LINE",
"229 942 LINE",
"283 1212 LINE SMOOTH",
"318 1387 OFFCURVE",
"488 1525 OFFCURVE",
"587 1525 QCURVE SMOOTH",
"666 1525 OFFCURVE",
"780 1455 OFFCURVE",
"780 1422 QCURVE SMOOTH",
"780 1382 OFFCURVE",
"727 1297 OFFCURVE",
"698 1297 QCURVE SMOOTH",
"692 1297 OFFCURVE",
"692 1297 OFFCURVE",
"674 1311 QCURVE SMOOTH",
"663 1320 OFFCURVE",
"625 1340 OFFCURVE",
"601 1340 QCURVE SMOOTH",
"561 1340 OFFCURVE",
"496 1268 OFFCURVE",
"482 1204 QCURVE SMOOTH",
"425 936 LINE",
"439 913 LINE",
"290 82 LINE SMOOTH",
"235 -225 OFFCURVE",
"47 -474 OFFCURVE",
"-142 -474 QCURVE",
"-335 -413 LINE"
);
},
{
closed = 1;
nodes = (
"341 -205 LINE",
"511 -215 LINE",
"645 -215 OFFCURVE",
"743 -107 OFFCURVE",
"779 128 QCURVE SMOOTH",
"897 905 LINE",
"900 942 LINE",
"954 1269 LINE SMOOTH",
"983 1444 OFFCURVE",
"1159 1582 OFFCURVE",
"1258 1582 QCURVE SMOOTH",
"1337 1582 OFFCURVE",
"1451 1512 OFFCURVE",
"1451 1479 QCURVE SMOOTH",
"1451 1439 OFFCURVE",
"1398 1354 OFFCURVE",
"1369 1354 QCURVE SMOOTH",
"1363 1354 OFFCURVE",
"1363 1354 OFFCURVE",
"1345 1368 QCURVE SMOOTH",
"1334 1377 OFFCURVE",
"1296 1397 OFFCURVE",
"1272 1397 QCURVE SMOOTH",
"1232 1397 OFFCURVE",
"1164 1325 OFFCURVE",
"1153 1261 QCURVE SMOOTH",
"1096 936 LINE",
"1110 913 LINE",
"977 171 LINE SMOOTH",
"922 -136 OFFCURVE",
"734 -385 OFFCURVE",
"545 -385 QCURVE",
"314 -325 LINE"
);
},
{
closed = 1;
nodes = (
"39 958 LINE",
"278 1000 LINE",
"1321 980 LINE",
"1321 848 LINE",
"355 845 LINE",
"298 827 LINE",
"45 844 LINE"
);
}
);
width = 1288;
}
);
unicode = FB00;
},
{
glyphname = f_f_i;
layers = (
{
layerId = "0C979A8A-491B-4450-B337-179908CF5A8F";
paths = (
{
closed = 1;
nodes = (
"-307 -294 LINE",
"-176 -304 LINE",
"-42 -304 OFFCURVE",
"56 -196 OFFCURVE",
"92 39 QCURVE SMOOTH",
"226 905 LINE",
"229 942 LINE",
"283 1212 LINE SMOOTH",
"318 1387 OFFCURVE",
"488 1525 OFFCURVE",
"587 1525 QCURVE SMOOTH",
"666 1525 OFFCURVE",
"780 1455 OFFCURVE",
"780 1422 QCURVE SMOOTH",
"780 1382 OFFCURVE",
"727 1297 OFFCURVE",
"698 1297 QCURVE SMOOTH",
"692 1297 OFFCURVE",
"692 1297 OFFCURVE",
"674 1311 QCURVE SMOOTH",
"663 1320 OFFCURVE",
"625 1340 OFFCURVE",
"601 1340 QCURVE SMOOTH",
"561 1340 OFFCURVE",
"496 1268 OFFCURVE",
"482 1204 QCURVE SMOOTH",
"425 936 LINE",
"439 913 LINE",
"290 82 LINE SMOOTH",
"235 -225 OFFCURVE",
"47 -474 OFFCURVE",
"-142 -474 QCURVE",
"-335 -413 LINE"
);
},
{
closed = 1;
nodes = (
"341 -205 LINE",
"511 -215 LINE",
"645 -215 OFFCURVE",
"743 -107 OFFCURVE",
"779 128 QCURVE SMOOTH",
"897 905 LINE",
"900 942 LINE",
"954 1269 LINE SMOOTH",
"983 1444 OFFCURVE",
"1159 1582 OFFCURVE",
"1258 1582 QCURVE SMOOTH",
"1337 1582 OFFCURVE",
"1451 1512 OFFCURVE",
"1451 1479 QCURVE SMOOTH",
"1451 1439 OFFCURVE",
"1398 1354 OFFCURVE",
"1369 1354 QCURVE SMOOTH",
"1363 1354 OFFCURVE",
"1363 1354 OFFCURVE",
"1345 1368 QCURVE SMOOTH",
"1334 1377 OFFCURVE",
"1296 1397 OFFCURVE",
"1272 1397 QCURVE SMOOTH",
"1232 1397 OFFCURVE",
"1164 1325 OFFCURVE",
"1153 1261 QCURVE SMOOTH",
"1096 936 LINE",
"1110 913 LINE",
"977 171 LINE SMOOTH",
"922 -136 OFFCURVE",
"734 -385 OFFCURVE",
"545 -385 QCURVE",
"314 -325 LINE"
);
},
{
closed = 1;
nodes = (
"39 958 LINE",
"277 995 LINE",
"1484 1001 LINE",
"1484 869 LINE",
"355 845 LINE",
"298 827 LINE",
"45 844 LINE"
);
},
{
closed = 1;
nodes = (
"1368 46 LINE",
"1494 527 LINE",
"1560 870 LINE",
"1379 868 LINE",
"1400 997 LINE",
"1667 1051 LINE",
"1712 1051 LINE",
"1782 1013 LINE",
"1782 882 LINE",
"1604 166 LINE",
"1793 168 LINE",
"1793 52 LINE",
"1425 -21 LINE"
);
}
);
width = 1975;
}
);
unicode = FB03;
},
{
glyphname = f_f_l;
layers = (
{
layerId = "0C979A8A-491B-4450-B337-179908CF5A8F";
paths = (
{
closed = 1;
nodes = (
"-307 -294 LINE",
"-176 -304 LINE",
"-42 -304 OFFCURVE",
"56 -196 OFFCURVE",
"92 39 QCURVE SMOOTH",
"226 905 LINE",
"229 942 LINE",
"283 1212 LINE SMOOTH",
"318 1387 OFFCURVE",
"488 1525 OFFCURVE",
"587 1525 QCURVE SMOOTH",
"666 1525 OFFCURVE",
"780 1455 OFFCURVE",
"780 1422 QCURVE SMOOTH",
"780 1382 OFFCURVE",
"727 1297 OFFCURVE",
"698 1297 QCURVE SMOOTH",
"692 1297 OFFCURVE",
"692 1297 OFFCURVE",
"674 1311 QCURVE SMOOTH",
"663 1320 OFFCURVE",
"625 1340 OFFCURVE",
"601 1340 QCURVE SMOOTH",
"561 1340 OFFCURVE",
"496 1268 OFFCURVE",
"482 1204 QCURVE SMOOTH",
"425 936 LINE",
"439 913 LINE",
"290 82 LINE SMOOTH",
"235 -225 OFFCURVE",
"47 -474 OFFCURVE",
"-142 -474 QCURVE",
"-335 -413 LINE"
);
},
{
closed = 1;
nodes = (
"341 -205 LINE",
"511 -215 LINE",
"645 -215 OFFCURVE",
"743 -107 OFFCURVE",
"779 128 QCURVE SMOOTH",
"897 905 LINE",
"900 942 LINE",
"954 1269 LINE SMOOTH",
"983 1444 OFFCURVE",
"1159 1592 OFFCURVE",
"1258 1592 QCURVE SMOOTH",
"1337 1592 OFFCURVE",
"1451 1532 OFFCURVE",
"1451 1499 QCURVE SMOOTH",
"1451 1459 OFFCURVE",
"1398 1384 OFFCURVE",
"1369 1384 QCURVE SMOOTH",
"1363 1384 OFFCURVE",
"1363 1384 OFFCURVE",
"1345 1398 QCURVE SMOOTH",
"1334 1407 OFFCURVE",
"1296 1427 OFFCURVE",
"1272 1427 QCURVE SMOOTH",
"1232 1427 OFFCURVE",
"1164 1325 OFFCURVE",
"1153 1261 QCURVE SMOOTH",
"1096 936 LINE",
"1110 913 LINE",
"977 171 LINE SMOOTH",
"922 -136 OFFCURVE",
"734 -385 OFFCURVE",
"545 -385 QCURVE",
"314 -325 LINE"
);
},
{
closed = 1;
nodes = (
"39 958 LINE",
"277 995 LINE",
"1394 1001 LINE",
"1394 869 LINE",
"355 845 LINE",
"298 827 LINE",
"45 844 LINE"
);
},
{
closed = 1;
nodes = (
"1331 23 LINE",
"1469 587 LINE",
"1648 1372 LINE",
"1413 1406 LINE",
"1397 1526 LINE",
"1783 1606 LINE",
"1873 1532 LINE",
"1656 568 LINE",
"1565 160 LINE",
"1781 168 LINE",
"1779 44 LINE",
"1378 -25 LINE"
);
}
);
width = 1894;
}
);
unicode = FB04;
},
{
glyphname = dollar;
layers = (
{
layerId = "0C979A8A-491B-4450-B337-179908CF5A8F";
paths = (
{
closed = 1;
nodes = (
"84 368 LINE",
"159 285 OFFCURVE",
"391 146 OFFCURVE",
"510 146 QCURVE SMOOTH",
"641 146 OFFCURVE",
"784 260 OFFCURVE",
"784 384 QCURVE SMOOTH",
"784 476 OFFCURVE",
"662 630 OFFCURVE",
"519 726 QCURVE SMOOTH",
"397 808 OFFCURVE",
"216 1023 OFFCURVE",
"216 1167 QCURVE SMOOTH",
"216 1347 OFFCURVE",
"487 1546 OFFCURVE",
"667 1546 QCURVE SMOOTH",
"795 1546 OFFCURVE",
"1026 1449 OFFCURVE",
"1117 1373 QCURVE",
"1009 1209 LINE",
"931 1289 OFFCURVE",
"774 1389 OFFCURVE",
"673 1389 QCURVE SMOOTH",
"560 1389 OFFCURVE",
"410 1281 OFFCURVE",
"410 1190 QCURVE SMOOTH",
"410 1099 OFFCURVE",
"540 991 OFFCURVE",
"685 885 QCURVE SMOOTH",
"825 782 OFFCURVE",
"993 549 OFFCURVE",
"992 400 QCURVE SMOOTH",
"991 223 OFFCURVE",
"711 -25 OFFCURVE",
"509 -25 QCURVE SMOOTH",
"327 -25 OFFCURVE",
"51 106 OFFCURVE",
"-23 194 QCURVE"
);
},
{
closed = 1;
nodes = (
"338 52 LINE",
"377 52 LINE",
"534 820 LINE",
"636 778 LINE",
"487 52 LINE",
"524 52 LINE",
"478 -166 LINE",
"291 -190 LINE"
);
},
{
closed = 1;
nodes = (
"839 1639 LINE",
"803 1444 LINE",
"778 1444 LINE",
"647 778 LINE",
"545 820 LINE",
"668 1444 LINE",
"617 1444 LINE",
"654 1635 LINE"
);
}
);
width = 1134;
}
);
unicode = 0024;
},
{
glyphname = cent;
layers = (
{
layerId = "0C979A8A-491B-4450-B337-179908CF5A8F";
paths = (
{
closed = 1;
nodes = (
"362 22 LINE",
"391 22 LINE",
"482 520 LINE",
"584 478 LINE",
"501 22 LINE",
"532 22 LINE",
"495 -190 LINE",
"316 -240 LINE"
);
},
{
closed = 1;
nodes = (
"753 1239 LINE",
"714 1018 LINE",
"684 1018 LINE",
"584 478 LINE",
"482 520 LINE",
"574 1018 LINE",
"544 1018 LINE",
"576 1200 LINE"
);
},
{
closed = 1;
nodes = (
"101 802 OFFCURVE",
"466 1079 OFFCURVE",
"673 1079 QCURVE SMOOTH",
"810 1079 OFFCURVE",
"978 941 OFFCURVE",
"978 839 QCURVE SMOOTH",
"978 759 OFFCURVE",
"895 646 OFFCURVE",
"814 617 QCURVE",
"781 650 LINE",
"781 859 LINE SMOOTH",
"781 884 OFFCURVE",
"713 935 OFFCURVE",
"640 935 QCURVE SMOOTH",
"513 935 OFFCURVE",
"295 711 OFFCURVE",
"250 507 QCURVE SMOOTH",
"206 309 OFFCURVE",
"327 112 OFFCURVE",
"434 112 QCURVE SMOOTH",
"564 112 OFFCURVE",
"769 239 OFFCURVE",
"838 339 QCURVE",
"932 256 LINE",
"932 227 LINE",
"846 104 OFFCURVE",
"589 -41 OFFCURVE",
"409 -41 QCURVE SMOOTH",
"224 -41 OFFCURVE",
"-20 278 OFFCURVE",
"41 543 QCURVE SMOOTH"
);
}
);
width = 1030;
}
);
unicode = 00A2;
},
{
glyphname = euro;
layers = (
{
layerId = "0C979A8A-491B-4450-B337-179908CF5A8F";
paths = (
{
closed = 1;
nodes = (
"124 994 LINE",
"924 994 LINE",
"894 848 LINE",
"70 848 LINE"
);
},
{
closed = 1;
nodes = (
"49 667 LINE",
"913 667 LINE",
"883 521 LINE",
"53 521 LINE"
);
},
{
closed = 1;
nodes = (
"996 1246 OFFCURVE",
"908 1347 OFFCURVE",
"815 1347 QCURVE SMOOTH",
"657 1347 OFFCURVE",
"481 1060 OFFCURVE",
"429 772 QCURVE SMOOTH",
"377 481 OFFCURVE",
"468 138 OFFCURVE",
"621 138 QCURVE SMOOTH",
"704 138 OFFCURVE",
"822 206 OFFCURVE",
"892 278 QCURVE",
"992 166 LINE",
"902 66 OFFCURVE",
"705 -39 OFFCURVE",
"596 -39 QCURVE SMOOTH",
"355 -39 OFFCURVE",
"136 399 OFFCURVE",
"198 746 QCURVE SMOOTH",
"264 1117 OFFCURVE",
"615 1520 OFFCURVE",
"861 1520 QCURVE SMOOTH",
"983 1520 OFFCURVE",
"1148 1387 OFFCURVE",
"1190 1256 QCURVE",
"1017 1193 LINE"
);
}
);
width = 1122;
}
);
unicode = 20AC;
},
{
glyphname = sterling;
layers = (
{
layerId = "0C979A8A-491B-4450-B337-179908CF5A8F";
paths = (
{
closed = 1;
nodes = (
"184 758 LINE",
"888 758 LINE",
"867 614 LINE",
"167 614 LINE"
);
},
{
closed = 1;
nodes = (
"638 311 OFFCURVE",
"331 -35 OFFCURVE",
"115 -35 QCURVE SMOOTH",
"-12 -35 OFFCURVE",
"-145 117 OFFCURVE",
"-137 208 QCURVE SMOOTH",
"-127 319 OFFCURVE",
"48 439 OFFCURVE",
"142 439 QCURVE SMOOTH",
"229 439 OFFCURVE",
"399 348 OFFCURVE",
"473 300 QCURVE SMOOTH",
"546 253 OFFCURVE",
"717 173 OFFCURVE",
"771 173 QCURVE SMOOTH",
"825 173 OFFCURVE",
"926 219 OFFCURVE",
"990 261 QCURVE",
"1052 160 LINE",
"1005 89 OFFCURVE",
"817 -9 OFFCURVE",
"756 -9 QCURVE SMOOTH",
"676 -9 OFFCURVE",
"468 109 OFFCURVE",
"386 177 QCURVE SMOOTH",
"324 228 OFFCURVE",
"191 294 OFFCURVE",
"133 294 QCURVE SMOOTH",
"94 294 OFFCURVE",
"34 262 OFFCURVE",
"23 218 QCURVE SMOOTH",
"11 168 OFFCURVE",
"67 105 OFFCURVE",
"108 105 QCURVE SMOOTH",
"295 105 OFFCURVE",
"462 326 OFFCURVE",
"462 483 QCURVE SMOOTH",
"462 574 OFFCURVE",
"362 744 OFFCURVE",
"323 808 QCURVE SMOOTH",
"288 866 OFFCURVE",
"199 1039 OFFCURVE",
"210 1170 QCURVE SMOOTH",
"222 1308 OFFCURVE",
"468 1501 OFFCURVE",
"661 1501 QCURVE SMOOTH",
"800 1501 OFFCURVE",
"1007 1414 OFFCURVE",
"1072 1342 QCURVE",
"955 1205 LINE",
"906 1261 OFFCURVE",
"761 1343 OFFCURVE",
"669 1343 QCURVE SMOOTH",
"559 1343 OFFCURVE",
"443 1243 OFFCURVE",
"435 1153 QCURVE SMOOTH",
"427 1062 OFFCURVE",
"460 950 OFFCURVE",
"505 875 QCURVE SMOOTH",
"553 795 OFFCURVE",
"638 628 OFFCURVE",
"638 518 QCURVE SMOOTH"
);
}
);
width = 1072;
}
);
unicode = 00A3;
},
{
glyphname = yen;
layers = (
{
layerId = "0C979A8A-491B-4450-B337-179908CF5A8F";
paths = (
{
closed = 1;
nodes = (
"115 1500 LINE",
"613 1500 LINE",
"609 1358 LINE",
"462 1337 LINE",
"555 1065 LINE",
"659 804 LINE",
"843 1069 LINE",
"1014 1333 LINE",
"850 1351 LINE",
"887 1500 LINE",
"1369 1500 LINE",
"1329 1340 LINE",
"1171 1323 LINE",
"940 989 LINE",
"705 651 LINE",
"621 159 LINE",
"815 134 LINE",
"794 0 LINE",
"189 0 LINE",
"213 134 LINE",
"418 159 LINE",
"513 635 LINE",
"388 972 LINE",
"244 1329 LINE",
"112 1345 LINE"
);
},
{
closed = 1;
nodes = (
"116 817 LINE",
"1110 817 LINE",
"1070 671 LINE",
"135 671 LINE"
);
},
{
closed = 1;
nodes = (
"136 477 LINE",
"1030 477 LINE",
"990 331 LINE",
"155 331 LINE"
);
}
);
width = 1242;
}
);
unicode = 00A5;
},
{
glyphname = florin;
layers = (
{
layerId = "0C979A8A-491B-4450-B337-179908CF5A8F";
paths = (
{
closed = 1;
nodes = (
"253 -183 OFFCURVE",
"119 -309 OFFCURVE",
"19 -309 QCURVE SMOOTH",
"-14 -309 OFFCURVE",
"-116 -301 OFFCURVE",
"-145 -291 QCURVE SMOOTH",
"-183 -278 LINE",
"-174 -118 LINE",
"-133 -133 LINE SMOOTH",
"-125 -136 OFFCURVE",
"-68 -144 OFFCURVE",
"-52 -144 QCURVE SMOOTH",
"17 -144 OFFCURVE",
"72 -59 OFFCURVE",
"85 13 QCURVE SMOOTH",
"226 805 LINE",
"41 817 LINE",
"44 966 LINE",
"259 984 LINE",
"323 1304 LINE SMOOTH",
"343 1402 OFFCURVE",
"476 1518 OFFCURVE",
"576 1518 QCURVE SMOOTH",
"609 1518 OFFCURVE",
"685 1508 OFFCURVE",
"714 1504 QCURVE SMOOTH",
"755 1499 LINE",
"726 1343 LINE",
"682 1352 LINE SMOOTH",
"674 1354 OFFCURVE",
"635 1359 OFFCURVE",
"612 1359 QCURVE SMOOTH",
"567 1359 OFFCURVE",
"517 1294 OFFCURVE",
"506 1222 QCURVE SMOOTH",
"469 985 LINE",
"678 985 LINE",
"665 828 LINE",
"440 817 LINE",
"273 -75 LINE SMOOTH"
);
}
);
width = 679;
}
);
unicode = 0192;
},
{
glyphname = franc;
layers = (
{
layerId = "0C979A8A-491B-4450-B337-179908CF5A8F";
paths = (
{
closed = 1;
nodes = (
"58 481 LINE",
"783 481 LINE",
"752 335 LINE",
"27 335 LINE"
);
},
{
closed = 1;
nodes = (
"-17 139 LINE",
"175 166 LINE",
"291 760 LINE",
"394 1317 LINE",
"193 1340 LINE",
"217 1500 LINE",
"1210 1500 LINE",
"1140 1139 LINE",
"1000 1139 LINE",
"1005 1350 LINE",
"638 1348 LINE",
"602 1328 LINE",
"494 770 LINE",
"380 152 LINE",
"606 139 LINE",
"580 0 LINE",
"-43 0 LINE"
);
},
{
closed = 1;
nodes = (
"426 864 LINE",
"854 871 LINE",
"885 976 LINE",
"1025 976 LINE",
"968 578 LINE",
"828 578 LINE",
"828 715 LINE",
"406 726 LINE"
);
}
);
width = 1135;
}
);
unicode = 20A3;
},
{
glyphname = naira;
layers = (
{
layerId = "0C979A8A-491B-4450-B337-179908CF5A8F";
paths = (
{
closed = 1;
nodes = (
"1131 530 LINE",
"1136 565 LINE",
"843 565 LINE",
"816 660 LINE",
"1154 660 LINE",
"1158 687 LINE",
"1484 687 LINE",
"1464 530 LINE"
);
},
{
closed = 1;
nodes = (
"45 687 LINE",
"328 687 LINE",
"324 660 LINE",
"816 660 LINE",
"849 556 LINE",
"303 556 LINE",
"300 531 LINE",
"24 531 LINE"
);
},
{
closed = 1;
nodes = (
"1195 885 LINE",
"1198 904 LINE",
"728 904 LINE",
"689 1014 LINE",
"1219 1014 LINE",
"1222 1039 LINE",
"1534 1039 LINE",
"1514 881 LINE"
);
},
{
closed = 1;
nodes = (
"105 1039 LINE",
"394 1039 LINE",
"389 1008 LINE",
"693 1008 LINE",
"728 905 LINE",
"369 905 LINE",
"366 881 LINE",
"84 881 LINE"
);
},
{
closed = 1;
nodes = (
"-29 155 LINE",
"152 167 LINE",
"256 753 LINE",
"355 1323 LINE",
"173 1334 LINE",
"204 1499 LINE",
"632 1499 LINE",
"854 808 LINE",
"1013 231 LINE",
"1120 772 LINE",
"1218 1315 LINE",
"1030 1339 LINE",
"1053 1499 LINE",
"1578 1499 LINE",
"1555 1338 LINE",
"1375 1314 LINE",
"1272 753 LINE",
"1132 -1 LINE",
"903 -1 LINE",
"676 733 LINE",
"497 1304 LINE",
"410 753 LINE",
"309 170 LINE",
"493 152 LINE",
"468 -1 LINE",
"-50 -1 LINE"
);
}
);
width = 1539;
}
);
unicode = 20A6;
},
{
glyphname = peseta;
layers = (
{
layerId = "0C979A8A-491B-4450-B337-179908CF5A8F";
paths = (
{
closed = 1;
nodes = (
"-18 148 LINE",
"141 167 LINE",
"255 754 LINE",
"360 1318 LINE",
"193 1337 LINE",
"213 1500 LINE",
"779 1500 LINE SMOOTH",
"996 1500 OFFCURVE",
"1236 1238 OFFCURVE",
"1196 1026 QCURVE SMOOTH",
"1153 799 OFFCURVE",
"805 564 OFFCURVE",
"581 564 QCURVE SMOOTH",
"482 564 OFFCURVE",
"352 583 OFFCURVE",
"312 593 QCURVE",
"351 741 LINE",
"403 732 OFFCURVE",
"484 719 OFFCURVE",
"577 719 QCURVE SMOOTH",
"745 719 OFFCURVE",
"954 865 OFFCURVE",
"984 1029 QCURVE SMOOTH",
"1010 1175 OFFCURVE",
"868 1338 OFFCURVE",
"714 1338 QCURVE SMOOTH",
"589 1338 LINE",
"563 1316 LINE",
"454 764 LINE",
"348 166 LINE",
"541 145 LINE",
"521 0 LINE",
"-43 0 LINE"
);
},
{
closed = 1;
nodes = (
"1144 53 LINE",
"1221 395 LINE",
"1279 760 LINE",
"1147 760 LINE",
"1168 881 LINE",
"1307 917 OFFCURVE",
"1443 1130 OFFCURVE",
"1485 1263 QCURVE",
"1562 1263 LINE",
"1596 1212 LINE",
"1422 511 LINE",
"1364 155 LINE",
"1559 167 LINE",
"1559 46 LINE",
"1212 -25 LINE"
);
},
{
closed = 1;
nodes = (
"1412 916 LINE",
"1705 916 LINE",
"1697 793 LINE",
"1359 767 LINE"
);
},
{
closed = 1;
nodes = (
"1586 253 OFFCURVE",
"1670 321 OFFCURVE",
"1727 321 QCURVE",
"1752 295 LINE",
"1752 181 LINE SMOOTH",
"1752 140 OFFCURVE",
"1812 96 OFFCURVE",
"1894 96 QCURVE SMOOTH",
"1998 96 OFFCURVE",
"2097 164 OFFCURVE",
"2097 221 QCURVE SMOOTH",
"2097 277 OFFCURVE",
"2029 354 OFFCURVE",
"1919 425 QCURVE SMOOTH",
"1796 505 OFFCURVE",
"1697 626 OFFCURVE",
"1697 728 QCURVE SMOOTH",
"1697 847 OFFCURVE",
"1891 1001 OFFCURVE",
"2049 1001 QCURVE SMOOTH",
"2177 1001 OFFCURVE",
"2307 881 OFFCURVE",
"2307 793 QCURVE SMOOTH",
"2307 720 OFFCURVE",
"2235 670 OFFCURVE",
"2175 670 QCURVE",
"2148 694 LINE",
"2148 774 LINE SMOOTH",
"2148 804 OFFCURVE",
"2071 858 OFFCURVE",
"2016 858 QCURVE SMOOTH",
"1947 858 OFFCURVE",
"1866 812 OFFCURVE",
"1866 769 QCURVE SMOOTH",
"1866 718 OFFCURVE",
"1943 652 OFFCURVE",
"2035 590 QCURVE SMOOTH",
"2145 515 OFFCURVE",
"2274 361 OFFCURVE",
"2274 258 QCURVE SMOOTH",
"2274 131 OFFCURVE",
"2056 -35 OFFCURVE",
"1889 -35 QCURVE SMOOTH",
"1738 -35 OFFCURVE",
"1586 94 OFFCURVE",
"1586 175 QCURVE SMOOTH"
);
}
);
width = 2370;
}
);
unicode = 20A7;
},
{
glyphname = won;
layers = (
{
layerId = "0C979A8A-491B-4450-B337-179908CF5A8F";
paths = (
{
closed = 1;
nodes = (
"1322 575 LINE",
"1332 601 LINE",
"1036 601 LINE",
"1036 703 LINE",
"1371 703 LINE",
"1381 722 LINE",
"1773 722 LINE",
"1714 575 LINE"
);
},
{
closed = 1;
nodes = (
"1481 926 LINE",
"1491 953 LINE",
"1041 953 LINE",
"1041 1060 LINE",
"1551 1060 LINE",
"1561 1086 LINE",
"1931 1086 LINE",
"1863 926 LINE"
);
},
{
closed = 1;
nodes = (
"118 722 LINE",
"449 722 LINE",
"451 703 LINE",
"1036 703 LINE",
"1036 601 LINE",
"445 601 LINE",
"449 575 LINE",
"127 575 LINE"
);
},
{
closed = 1;
nodes = (
"90 1086 LINE",
"443 1086 LINE",
"445 1060 LINE",
"1041 1060 LINE",
"1041 953 LINE",
"450 953 LINE",
"449 926 LINE",
"98 926 LINE"
);
},
{
closed = 1;
nodes = (
"200 1500 LINE",
"661 1500 LINE",
"640 1353 LINE",
"512 1333 LINE",
"519 803 LINE",
"532 338 LINE",
"540 338 LINE",
"768 767 LINE",
"1009 1234 LINE",
"1058 1063 LINE",
"873 718 LINE",
"497 -8 LINE",
"359 -8 LINE",
"335 740 LINE",
"312 1330 LINE",
"179 1350 LINE"
);
},
{
closed = 1;
nodes = (
"833 1500 LINE",
"1298 1500 LINE",
"1280 1350 LINE",
"1127 1337 LINE",
"1117 800 LINE",
"1119 337 LINE",
"1133 338 LINE",
"1380 811 LINE",
"1629 1333 LINE",
"1486 1347 LINE",
"1508 1500 LINE",
"2005 1500 LINE",
"1975 1342 LINE",
"1791 1330 LINE",
"1497 762 LINE",
"1083 -8 LINE",
"947 -8 LINE",
"941 734 LINE",
"932 1340 LINE",
"815 1361 LINE"
);
}
);
width = 1949;
}
);
unicode = 20A9;
},
{
glyphname = dong;
layers = (
{
layerId = "0C979A8A-491B-4450-B337-179908CF5A8F";
paths = (
{
closed = 1;
nodes = (
"-10 -124 LINE",
"446 -128 LINE",
"940 -124 LINE",
"910 -295 LINE",
"417 -291 LINE",
"-40 -295 LINE"
);
},
{
closed = 1;
nodes = (
"567 1285 LINE",
"1014 1282 LINE",
"1311 1285 LINE",
"1276 1136 LINE",
"978 1140 LINE",
"531 1136 LINE"
);
},
{
closed = 1;
nodes = (
"23 577 OFFCURVE",
"479 1015 OFFCURVE",
"783 1015 QCURVE SMOOTH",
"856 1015 LINE",
"935 1384 LINE",
"793 1449 LINE",
"816 1544 LINE",
"1097 1606 LINE",
"1177 1536 LINE",
"938 469 LINE",
"866 168 LINE",
"1022 168 LINE",
"1014 44 LINE",
"732 -16 LINE",
"677 86 LINE",
"677 160 LINE",
"607 95 OFFCURVE",
"355 -20 OFFCURVE",
"255 -20 QCURVE SMOOTH",
"132 -20 OFFCURVE",
"23 146 OFFCURVE",
"23 255 QCURVE SMOOTH"
);
},
{
closed = 1;
nodes = (
"243 255 OFFCURVE",
"302 157 OFFCURVE",
"381 157 QCURVE SMOOTH",
"476 157 OFFCURVE",
"705 313 OFFCURVE",
"742 491 QCURVE SMOOTH",
"805 790 LINE",
"802 818 OFFCURVE",
"742 854 OFFCURVE",
"678 854 QCURVE SMOOTH",
"475 854 OFFCURVE",
"243 505 OFFCURVE",
"243 325 QCURVE SMOOTH"
);
}
);
width = 1255;
}
);
unicode = 20AB;
},
{
glyphname = kip;
layers = (
{
layerId = "0C979A8A-491B-4450-B337-179908CF5A8F";
paths = (
{
closed = 1;
nodes = (
"753 735 LINE",
"753 781 LINE",
"677 781 LINE",
"634 843 LINE",
"673 843 LINE",
"673 902 LINE",
"1315 902 LINE",
"1265 735 LINE"
);
},
{
closed = 1;
nodes = (
"56 901 LINE",
"417 901 LINE",
"397 843 LINE",
"467 843 LINE",
"454 781 LINE",
"377 781 LINE",
"367 735 LINE",
"35 735 LINE"
);
},
{
closed = 1;
nodes = (
"-23 141 LINE",
"173 166 LINE",
"288 754 LINE",
"394 1317 LINE",
"201 1341 LINE",
"222 1500 LINE",
"801 1500 LINE",
"780 1341 LINE",
"598 1317 LINE",
"483 754 LINE",
"382 166 LINE",
"566 141 LINE",
"549 0 LINE",
"-40 0 LINE"
);
},
{
closed = 1;
nodes = (
"397 684 LINE",
"1120 1326 LINE",
"999 1346 LINE",
"1020 1500 LINE",
"1487 1500 LINE",
"1466 1358 LINE",
"1315 1320 LINE",
"354 481 LINE"
);
},
{
closed = 1;
nodes = (
"782 947 LINE",
"1150 158 LINE",
"1314 133 LINE",
"1300 0 LINE",
"796 0 LINE",
"810 133 LINE",
"941 158 LINE",
"639 803 LINE"
);
}
);
width = 1386;
}
);
unicode = 20AD;
},
{
glyphname = peso;
layers = (
{
layerId = "0C979A8A-491B-4450-B337-179908CF5A8F";
paths = (
{
closed = 1;
nodes = (
"1042 739 LINE",
"1042 757 LINE",
"649 757 LINE",
"676 876 LINE",
"1092 876 LINE",
"1092 895 LINE",
"1393 895 LINE",
"1363 739 LINE"
);
},
{
closed = 1;
nodes = (
"45 894 LINE",
"373 894 LINE",
"371 876 LINE",
"676 876 LINE",
"649 758 LINE",
"355 758 LINE",
"353 740 LINE",
"24 740 LINE"
);
},
{
closed = 1;
nodes = (
"1132 1054 LINE",
"1132 1072 LINE",
"717 1072 LINE",
"739 1191 LINE",
"1132 1191 LINE",
"1142 1211 LINE",
"1444 1211 LINE",
"1414 1054 LINE"
);
},
{
closed = 1;
nodes = (
"65 1211 LINE",
"419 1211 LINE",
"417 1191 LINE",
"739 1191 LINE",
"717 1073 LINE",
"400 1073 LINE",
"398 1054 LINE",
"44 1054 LINE"
);
},
{
closed = 1;
nodes = (
"-18 148 LINE",
"171 167 LINE",
"285 754 LINE",
"390 1318 LINE",
"193 1337 LINE",
"213 1500 LINE",
"834 1500 LINE SMOOTH",
"1051 1500 OFFCURVE",
"1298 1238 OFFCURVE",
"1246 975 QCURVE SMOOTH",
"1188 686 OFFCURVE",
"835 455 OFFCURVE",
"611 455 QCURVE SMOOTH",
"512 455 OFFCURVE",
"372 474 OFFCURVE",
"332 484 QCURVE",
"371 628 LINE",
"423 619 OFFCURVE",
"514 606 OFFCURVE",
"607 606 QCURVE SMOOTH",
"775 606 OFFCURVE",
"994 752 OFFCURVE",
"1039 977 QCURVE SMOOTH",
"1078 1175 OFFCURVE",
"926 1350 OFFCURVE",
"772 1350 QCURVE SMOOTH",
"624 1350 LINE",
"598 1328 LINE",
"486 764 LINE",
"380 166 LINE",
"586 145 LINE",
"566 0 LINE",
"-43 0 LINE"
);
}
);
width = 1375;
}
);
unicode = 20B1;
},
{
glyphname = guarani;
layers = (
{
layerId = "0C979A8A-491B-4450-B337-179908CF5A8F";
paths = (
{
closed = 1;
nodes = (
"469 86 LINE",
"487 81 LINE",
"693 871 LINE",
"820 803 LINE",
"627 54 LINE",
"628 50 LINE",
"576 -150 LINE",
"403 -163 LINE"
);
},
{
closed = 1;
nodes = (
"1055 1618 LINE",
"1002 1424 LINE",
"980 1428 LINE",
"820 803 LINE",
"692 871 LINE",
"840 1455 LINE",
"821 1460 LINE",
"864 1618 LINE"
);
},
{
closed = 1;
nodes = (
"192 1190 OFFCURVE",
"701 1560 OFFCURVE",
"985 1515 QCURVE SMOOTH",
"1076 1500 OFFCURVE",
"1182 1466 OFFCURVE",
"1226 1446 QCURVE",
"1265 1426 LINE",
"1333 1405 LINE",
"1267 1023 LINE",
"1136 1023 LINE",
"1157 1252 LINE",
"1131 1281 OFFCURVE",
"1024 1350 OFFCURVE",
"952 1361 QCURVE SMOOTH",
"737 1394 OFFCURVE",
"399 1132 OFFCURVE",
"325 829 QCURVE SMOOTH",
"255 544 OFFCURVE",
"395 189 OFFCURVE",
"573 153 QCURVE SMOOTH",
"715 124 OFFCURVE",
"926 190 OFFCURVE",
"1015 248 QCURVE",
"1075 545 LINE",
"912 569 LINE",
"931 710 LINE",
"1401 710 LINE",
"1381 568 LINE",
"1265 544 LINE",
"1200 171 LINE",
"1145 149 LINE",
"1060 72 OFFCURVE",
"753 -44 OFFCURVE",
"583 -25 QCURVE SMOOTH",
"290 10 OFFCURVE",
"16 496 OFFCURVE",
"105 849 QCURVE SMOOTH"
);
}
);
width = 1422;
}
);
unicode = 20B2;
},
{
glyphname = cedi;
layers = (
{
layerId = "0C979A8A-491B-4450-B337-179908CF5A8F";
paths = (
{
closed = 1;
nodes = (
"489 102 LINE",
"508 97 LINE",
"677 831 LINE",
"809 762 LINE",
"656 88 LINE",
"677 83 LINE",
"626 -137 LINE",
"433 -149 LINE"
);
},
{
closed = 1;
nodes = (
"1015 1567 LINE",
"967 1357 LINE",
"947 1361 LINE",
"809 762 LINE",
"677 831 LINE",
"806 1389 LINE",
"785 1394 LINE",
"824 1567 LINE"
);
},
{
closed = 1;
nodes = (
"199 1141 OFFCURVE",
"672 1467 OFFCURVE",
"964 1422 QCURVE SMOOTH",
"1053 1408 OFFCURVE",
"1172 1366 OFFCURVE",
"1218 1351 QCURVE",
"1242 1339 LINE",
"1264 1327 LINE",
"1198 956 LINE",
"1063 956 LINE",
"1077 1212 LINE",
"1066 1222 OFFCURVE",
"971 1264 OFFCURVE",
"918 1271 QCURVE SMOOTH",
"714 1302 OFFCURVE",
"410 1088 OFFCURVE",
"341 808 QCURVE SMOOTH",
"278 559 OFFCURVE",
"403 253 OFFCURVE",
"591 223 QCURVE SMOOTH",
"767 196 OFFCURVE",
"1013 312 OFFCURVE",
"1102 419 QCURVE",
"1124 406 LINE",
"1164 293 LINE",
"1072 168 OFFCURVE",
"756 34 OFFCURVE",
"578 56 QCURVE SMOOTH",
"277 95 OFFCURVE",
"34 538 OFFCURVE",
"117 844 QCURVE SMOOTH"
);
}
);
width = 1312;
}
);
unicode = 20B5;
},
{
glyphname = rupeeIndian;
layers = (
{
layerId = "0C979A8A-491B-4450-B337-179908CF5A8F";
paths = (
{
closed = 1;
nodes = (
"130 770 LINE",
"184 809 LINE",
"410 815 LINE SMOOTH",
"569 819 OFFCURVE",
"744 961 OFFCURVE",
"768 1088 QCURVE SMOOTH",
"788 1196 OFFCURVE",
"681 1341 OFFCURVE",
"578 1341 QCURVE SMOOTH",
"483 1341 OFFCURVE",
"152 1335 OFFCURVE",
"48 1330 QCURVE",
"103 1514 LINE",
"270 1511 OFFCURVE",
"606 1497 OFFCURVE",
"621 1497 QCURVE",
"1182 1517 LINE",
"1142 1329 LINE",
"1089 1332 OFFCURVE",
"997 1334 OFFCURVE",
"922 1341 QCURVE",
"963 1294 OFFCURVE",
"997 1155 OFFCURVE",
"977 1055 QCURVE SMOOTH",
"950 922 OFFCURVE",
"692 685 OFFCURVE",
"505 685 QCURVE SMOOTH",
"444 685 OFFCURVE",
"217 648 OFFCURVE",
"140 617 QCURVE"
);
},
{
closed = 1;
nodes = (
"659 790 LINE",
"686 688 LINE SMOOTH",
"746 460 OFFCURVE",
"902 139 OFFCURVE",
"1057 129 QCURVE",
"1020 -8 LINE",
"923 -8 LINE SMOOTH",
"723 -8 OFFCURVE",
"530 422 OFFCURVE",
"477 651 QCURVE SMOOTH",
"456 731 LINE"
);
},
{
closed = 1;
nodes = (
"123 1164 LINE",
"820 1150 LINE",
"820 1165 LINE",
"1131 1165 LINE",
"1091 1004 LINE",
"790 1004 LINE",
"790 1008 LINE",
"102 1005 LINE"
);
}
);
width = 1120;
}
);
unicode = 20B9;
},
{
glyphname = liraTurkish;
layers = (
{
layerId = "0C979A8A-491B-4450-B337-179908CF5A8F";
paths = (
{
closed = 1;
nodes = (
"52 601 LINE",
"368 682 LINE",
"367 678 LINE",
"768 779 LINE",
"731 605 LINE",
"346 511 LINE",
"345 507 LINE",
"68 435 LINE"
);
},
{
closed = 1;
nodes = (
"107 1000 LINE",
"423 1071 LINE",
"423 1078 LINE",
"874 1180 LINE",
"834 998 LINE",
"404 905 LINE",
"404 903 LINE",
"125 831 LINE"
);
},
{
closed = 1;
nodes = (
"395 132 LINE",
"553 153 OFFCURVE",
"904 369 OFFCURVE",
"953 564 QCURVE SMOOTH",
"1002 758 LINE",
"1154 758 LINE",
"1103 400 LINE",
"990 246 OFFCURVE",
"588 48 OFFCURVE",
"351 -8 QCURVE",
"196 -29 LINE",
"109 47 LINE",
"163 165 LINE",
"282 754 LINE",
"392 1318 LINE",
"190 1341 LINE",
"212 1500 LINE",
"832 1500 LINE",
"800 1341 LINE",
"606 1318 LINE",
"492 754 LINE",
"377 166 LINE"
);
}
);
width = 1176;
}
);
unicode = 20BA;
},
{
glyphname = manat;
layers = (
{
layerId = "0C979A8A-491B-4450-B337-179908CF5A8F";
paths = (
{
closed = 1;
nodes = (
"579 664 LINE",
"712 1352 LINE",
"746 1576 LINE",
"945 1578 LINE",
"883 1352 LINE",
"773 764 LINE",
"729 401 LINE",
"508 375 LINE"
);
},
{
closed = 1;
nodes = (
"1284 0 LINE",
"690 0 LINE",
"709 140 LINE",
"895 176 LINE",
"988 609 LINE SMOOTH",
"1008 701 OFFCURVE",
"1040 933 OFFCURVE",
"1040 1000 QCURVE SMOOTH",
"1040 1119 OFFCURVE",
"892 1250 OFFCURVE",
"751 1250 QCURVE SMOOTH",
"577 1250 OFFCURVE",
"420 1077 OFFCURVE",
"385 893 QCURVE SMOOTH",
"331 609 LINE",
"257 175 LINE",
"439 140 LINE",
"420 0 LINE",
"-154 0 LINE",
"-131 159 LINE",
"74 183 LINE",
"157 609 LINE",
"212 910 LINE SMOOTH",
"261 1177 OFFCURVE",
"529 1435 OFFCURVE",
"790 1435 QCURVE SMOOTH",
"1026 1435 OFFCURVE",
"1268 1201 OFFCURVE",
"1265 1039 QCURVE SMOOTH",
"1264 959 OFFCURVE",
"1236 788 OFFCURVE",
"1203 609 QCURVE SMOOTH",
"1114 183 LINE",
"1307 159 LINE"
);
}
);
width = 1362;
}
);
unicode = 20BC;
},
{
glyphname = ruble;
layers = (
{
layerId = "0C979A8A-491B-4450-B337-179908CF5A8F";
paths = (
{
closed = 1;
nodes = (
"22 446 LINE",
"750 446 LINE",
"709 289 LINE",
"-14 309 LINE"
);
},
{
closed = 1;
nodes = (
"-18 148 LINE",
"169 161 LINE",
"285 754 LINE",
"390 1326 LINE",
"193 1337 LINE",
"213 1500 LINE",
"794 1500 LINE SMOOTH",
"1011 1500 OFFCURVE",
"1246 1238 OFFCURVE",
"1206 1026 QCURVE SMOOTH",
"1163 799 OFFCURVE",
"820 565 OFFCURVE",
"618 565 QCURVE SMOOTH",
"455 565 OFFCURVE",
"183 622 OFFCURVE",
"85 658 QCURVE",
"129 813 LINE",
"222 773 OFFCURVE",
"499 720 OFFCURVE",
"592 720 QCURVE SMOOTH",
"745 720 OFFCURVE",
"949 865 OFFCURVE",
"979 1029 QCURVE SMOOTH",
"1005 1175 OFFCURVE",
"883 1338 OFFCURVE",
"729 1338 QCURVE SMOOTH",
"634 1338 LINE",
"608 1324 LINE",
"499 764 LINE",
"391 160 LINE",
"586 145 LINE",
"566 0 LINE",
"-43 0 LINE"
);
}
);
width = 1225;
}
);
unicode = 20BD;
},
{
glyphname = colonsign;
layers = (
{
layerId = "0C979A8A-491B-4450-B337-179908CF5A8F";
paths = (
{
closed = 1;
nodes = (
"642 139 LINE",
"653 134 LINE",
"815 832 LINE",
"956 762 LINE",
"803 106 LINE",
"816 101 LINE",
"759 -198 LINE",
"579 -148 LINE"
);
},
{
closed = 1;
nodes = (
"1154 1568 LINE",
"1104 1346 LINE",
"1092 1350 LINE",
"956 762 LINE",
"815 832 LINE",
"942 1379 LINE",
"929 1384 LINE",
"970 1568 LINE"
);
},
{
closed = 1;
nodes = (
"368 230 LINE",
"379 225 LINE",
"515 832 LINE",
"656 762 LINE",
"529 197 LINE",
"542 192 LINE",
"471 -128 LINE",
"291 -78 LINE"
);
},
{
closed = 1;
nodes = (
"854 1568 LINE",
"811 1382 LINE",
"799 1386 LINE",
"656 762 LINE",
"515 832 LINE",
"641 1385 LINE",
"628 1390 LINE",
"670 1568 LINE"
);
},
{
closed = 1;
nodes = (
"199 1145 OFFCURVE",
"693 1467 OFFCURVE",
"985 1422 QCURVE SMOOTH",
"1074 1408 OFFCURVE",
"1193 1366 OFFCURVE",
"1239 1351 QCURVE",
"1263 1339 LINE",
"1322 1308 LINE",
"1261 956 LINE",
"1126 956 LINE",
"1137 1204 LINE",
"1126 1214 OFFCURVE",
"992 1269 OFFCURVE",
"939 1276 QCURVE SMOOTH",
"735 1307 OFFCURVE",
"402 1097 OFFCURVE",
"333 817 QCURVE SMOOTH",
"270 568 OFFCURVE",
"424 253 OFFCURVE",
"612 223 QCURVE SMOOTH",
"788 196 OFFCURVE",
"1034 312 OFFCURVE",
"1123 419 QCURVE",
"1145 406 LINE",
"1185 293 LINE",
"1093 168 OFFCURVE",
"777 34 OFFCURVE",
"599 56 QCURVE SMOOTH",
"298 95 OFFCURVE",
"34 542 OFFCURVE",
"117 848 QCURVE SMOOTH"
);
}
);
width = 1349;
}
);
unicode = 20A1;
},
{
glyphname = currency;
layers = (
{
layerId = "0C979A8A-491B-4450-B337-179908CF5A8F";
paths = (
{
closed = 1;
nodes = (
"227 999 OFFCURVE",
"489 1279 OFFCURVE",
"702 1279 QCURVE SMOOTH",
"916 1279 OFFCURVE",
"1181 1017 OFFCURVE",
"1181 805 QCURVE SMOOTH",
"1181 607 OFFCURVE",
"920 321 OFFCURVE",
"708 321 QCURVE SMOOTH",
"494 321 OFFCURVE",
"227 586 OFFCURVE",
"227 800 QCURVE SMOOTH"
);
},
{
closed = 1;
nodes = (
"429 677 OFFCURVE",
"570 509 OFFCURVE",
"700 509 QCURVE SMOOTH",
"842 509 OFFCURVE",
"975 661 OFFCURVE",
"975 805 QCURVE SMOOTH",
"975 935 OFFCURVE",
"835 1086 OFFCURVE",
"702 1086 QCURVE SMOOTH",
"559 1086 OFFCURVE",
"427 950 OFFCURVE",
"428 815 QCURVE SMOOTH"
);
},
{
closed = 1;
nodes = (
"96 1301 LINE",
"223 1437 LINE",
"486 1168 LINE",
"363 1036 LINE"
);
},
{
closed = 1;
nodes = (
"937 1156 LINE",
"1203 1423 LINE",
"1327 1292 LINE",
"1062 1025 LINE"
);
},
{
closed = 1;
nodes = (
"495 418 LINE",
"220 141 LINE",
"97 273 LINE",
"372 550 LINE"
);
},
{
closed = 1;
nodes = (
"1311 294 LINE",
"1187 163 LINE",
"922 430 LINE",
"1046 561 LINE"
);
}
);
width = 1417;
}
);
unicode = 00A4;
},
{
glyphname = exclam;
layers = (
{
layerId = "0C979A8A-491B-4450-B337-179908CF5A8F";
paths = (
{
closed = 1;
nodes = (
"105 192 OFFCURVE",
"187 279 OFFCURVE",
"251 279 QCURVE SMOOTH",
"314 279 OFFCURVE",
"397 192 OFFCURVE",
"397 133 QCURVE SMOOTH",
"397 76 OFFCURVE",
"314 -12 OFFCURVE",
"251 -12 QCURVE SMOOTH",
"187 -12 OFFCURVE",
"105 76 OFFCURVE",
"105 133 QCURVE SMOOTH"
);
},
{
closed = 1;
nodes = (
"363 1449 OFFCURVE",
"433 1556 OFFCURVE",
"498 1557 QCURVE SMOOTH",
"563 1558 OFFCURVE",
"624 1450 OFFCURVE",
"604 1382 QCURVE SMOOTH",
"525 1108 LINE",
"441 800 LINE",
"354 474 LINE",
"262 489 LINE",
"301 800 LINE",
"339 1108 LINE",
"358 1381 LINE SMOOTH"
);
}
);
width = 664;
}
);
unicode = 0021;
},
{
glyphname = exclamdown;
layers = (
{
layerId = "0C979A8A-491B-4450-B337-179908CF5A8F";
paths = (
{
closed = 1;
nodes = (
"561 1144 OFFCURVE",
"479 1057 OFFCURVE",
"415 1057 QCURVE SMOOTH",
"352 1057 OFFCURVE",
"269 1144 OFFCURVE",
"269 1203 QCURVE SMOOTH",
"269 1260 OFFCURVE",
"352 1348 OFFCURVE",
"415 1348 QCURVE SMOOTH",
"479 1348 OFFCURVE",
"561 1260 OFFCURVE",
"561 1203 QCURVE SMOOTH"
);
},
{
closed = 1;
nodes = (
"303 -113 OFFCURVE",
"233 -220 OFFCURVE",
"168 -221 QCURVE SMOOTH",
"103 -222 OFFCURVE",
"42 -114 OFFCURVE",
"62 -46 QCURVE SMOOTH",
"141 228 LINE",
"225 536 LINE",
"312 862 LINE",
"404 847 LINE",
"365 536 LINE",
"327 228 LINE",
"308 -45 LINE SMOOTH"
);
}
);
width = 664;
}
);
unicode = 00A1;
},
{
glyphname = question;
layers = (
{
layerId = "0C979A8A-491B-4450-B337-179908CF5A8F";
paths = (
{
closed = 1;
nodes = (
"177 1373 OFFCURVE",
"446 1524 OFFCURVE",
"632 1524 QCURVE SMOOTH",
"821 1524 OFFCURVE",
"1050 1333 OFFCURVE",
"1050 1194 QCURVE SMOOTH",
"1050 1050 OFFCURVE",
"848 836 OFFCURVE",
"658 731 QCURVE SMOOTH",
"544 668 OFFCURVE",
"446 596 OFFCURVE",
"420 522 QCURVE SMOOTH",
"404 477 LINE",
"269 477 LINE",
"271 519 LINE SMOOTH",
"275 593 OFFCURVE",
"422 754 OFFCURVE",
"537 834 QCURVE SMOOTH",
"675 930 OFFCURVE",
"822 1085 OFFCURVE",
"822 1193 QCURVE SMOOTH",
"822 1281 OFFCURVE",
"690 1375 OFFCURVE",
"596 1375 QCURVE SMOOTH",
"474 1375 OFFCURVE",
"339 1323 OFFCURVE",
"327 1264 QCURVE SMOOTH",
"321 1233 OFFCURVE",
"422 1171 OFFCURVE",
"414 1117 QCURVE SMOOTH",
"408 1073 OFFCURVE",
"347 1003 OFFCURVE",
"281 1003 QCURVE SMOOTH",
"208 1003 OFFCURVE",
"126 1117 OFFCURVE",
"151 1241 QCURVE SMOOTH"
);
},
{
closed = 1;
nodes = (
"164 192 OFFCURVE",
"246 279 OFFCURVE",
"310 279 QCURVE SMOOTH",
"373 279 OFFCURVE",
"456 192 OFFCURVE",
"456 133 QCURVE SMOOTH",
"456 76 OFFCURVE",
"373 -12 OFFCURVE",
"310 -12 QCURVE SMOOTH",
"246 -12 OFFCURVE",
"164 76 OFFCURVE",
"164 133 QCURVE SMOOTH"
);
}
);
width = 1034;
}
);
unicode = 003F;
},
{
glyphname = questiondown;
layers = (
{
layerId = "0C979A8A-491B-4450-B337-179908CF5A8F";
paths = (
{
closed = 1;
nodes = (
"839 -35 OFFCURVE",
"570 -186 OFFCURVE",
"384 -186 QCURVE SMOOTH",
"195 -186 OFFCURVE",
"-34 5 OFFCURVE",
"-34 144 QCURVE SMOOTH",
"-34 288 OFFCURVE",
"168 502 OFFCURVE",
"358 607 QCURVE SMOOTH",
"472 670 OFFCURVE",
"570 742 OFFCURVE",
"596 816 QCURVE SMOOTH",
"612 861 LINE",
"747 861 LINE",
"745 819 LINE SMOOTH",
"741 745 OFFCURVE",
"594 584 OFFCURVE",
"479 504 QCURVE SMOOTH",
"341 408 OFFCURVE",
"194 253 OFFCURVE",
"194 145 QCURVE SMOOTH",
"194 57 OFFCURVE",
"326 -37 OFFCURVE",
"420 -37 QCURVE SMOOTH",
"542 -37 OFFCURVE",
"677 15 OFFCURVE",
"689 74 QCURVE SMOOTH",
"695 105 OFFCURVE",
"594 167 OFFCURVE",
"602 221 QCURVE SMOOTH",
"608 265 OFFCURVE",
"669 335 OFFCURVE",
"735 335 QCURVE SMOOTH",
"808 335 OFFCURVE",
"890 221 OFFCURVE",
"865 97 QCURVE SMOOTH"
);
},
{
closed = 1;
nodes = (
"852 1146 OFFCURVE",
"770 1059 OFFCURVE",
"706 1059 QCURVE SMOOTH",
"643 1059 OFFCURVE",
"560 1146 OFFCURVE",
"560 1205 QCURVE SMOOTH",
"560 1262 OFFCURVE",
"643 1350 OFFCURVE",
"706 1350 QCURVE SMOOTH",
"770 1350 OFFCURVE",
"852 1262 OFFCURVE",
"852 1205 QCURVE SMOOTH"
);
}
);
width = 1034;
}
);
unicode = 00BF;
},
{
glyphname = comma;
layers = (
{
layerId = "0C979A8A-491B-4450-B337-179908CF5A8F";
paths = (
{
closed = 1;
nodes = (
"73 -161 OFFCURVE",
"202 -46 OFFCURVE",
"224 16 QCURVE",
"149 16 OFFCURVE",
"65 92 OFFCURVE",
"65 152 QCURVE SMOOTH",
"65 210 OFFCURVE",
"159 296 OFFCURVE",
"225 296 QCURVE SMOOTH",
"287 296 OFFCURVE",
"382 191 OFFCURVE",
"382 106 QCURVE SMOOTH",
"382 1 OFFCURVE",
"191 -212 OFFCURVE",
"93 -271 QCURVE",
"30 -192 LINE"
);
}
);
width = 603;
}
);
unicode = 002C;
},
{
glyphname = period;
layers = (
{
layerId = "0C979A8A-491B-4450-B337-179908CF5A8F";
paths = (
{
closed = 1;
nodes = (
"55 196 OFFCURVE",
"141 287 OFFCURVE",
"209 287 QCURVE SMOOTH",
"277 287 OFFCURVE",
"364 196 OFFCURVE",
"364 137 QCURVE SMOOTH",
"364 76 OFFCURVE",
"277 -15 OFFCURVE",
"209 -15 QCURVE SMOOTH",
"141 -15 OFFCURVE",
"55 76 OFFCURVE",
"55 137 QCURVE SMOOTH"
);
}
);
width = 603;
}
);
unicode = 002E;
},
{
glyphname = colon;
layers = (
{
layerId = "0C979A8A-491B-4450-B337-179908CF5A8F";
paths = (
{
closed = 1;
nodes = (
"102 194 OFFCURVE",
"189 285 OFFCURVE",
"257 285 QCURVE SMOOTH",
"325 285 OFFCURVE",
"412 194 OFFCURVE",
"412 132 QCURVE SMOOTH",
"412 72 OFFCURVE",
"325 -19 OFFCURVE",
"257 -19 QCURVE SMOOTH",
"189 -19 OFFCURVE",
"102 72 OFFCURVE",
"102 132 QCURVE SMOOTH"
);
},
{
closed = 1;
nodes = (
"269 978 OFFCURVE",
"356 1069 OFFCURVE",
"424 1069 QCURVE SMOOTH",
"492 1069 OFFCURVE",
"579 978 OFFCURVE",
"579 916 QCURVE SMOOTH",
"579 856 OFFCURVE",
"492 765 OFFCURVE",
"424 765 QCURVE SMOOTH",
"356 765 OFFCURVE",
"269 856 OFFCURVE",
"269 916 QCURVE SMOOTH"
);
}
);
width = 671;
}
);
unicode = 003A;
},
{
glyphname = semicolon;
layers = (
{
layerId = "0C979A8A-491B-4450-B337-179908CF5A8F";
paths = (
{
closed = 1;
nodes = (
"267 978 OFFCURVE",
"354 1069 OFFCURVE",
"422 1069 QCURVE SMOOTH",
"490 1069 OFFCURVE",
"577 978 OFFCURVE",
"577 916 QCURVE SMOOTH",
"577 856 OFFCURVE",
"490 765 OFFCURVE",
"422 765 QCURVE SMOOTH",
"354 765 OFFCURVE",
"267 856 OFFCURVE",
"267 916 QCURVE SMOOTH"
);
},
{
closed = 1;
nodes = (
"83 -161 OFFCURVE",
"212 -46 OFFCURVE",
"234 16 QCURVE",
"159 16 OFFCURVE",
"75 92 OFFCURVE",
"75 152 QCURVE SMOOTH",
"75 210 OFFCURVE",
"169 296 OFFCURVE",
"235 296 QCURVE SMOOTH",
"297 296 OFFCURVE",
"392 191 OFFCURVE",
"392 106 QCURVE SMOOTH",
"392 1 OFFCURVE",
"201 -212 OFFCURVE",
"103 -271 QCURVE",
"40 -192 LINE"
);
}
);
width = 656;
}
);
unicode = 003B;
},
{
glyphname = ellipsis;
layers = (
{
layerId = "0C979A8A-491B-4450-B337-179908CF5A8F";
paths = (
{
closed = 1;
nodes = (
"55 196 OFFCURVE",
"141 287 OFFCURVE",
"209 287 QCURVE SMOOTH",
"277 287 OFFCURVE",
"364 196 OFFCURVE",
"364 137 QCURVE SMOOTH",
"364 76 OFFCURVE",
"277 -15 OFFCURVE",
"209 -15 QCURVE SMOOTH",
"141 -15 OFFCURVE",
"55 76 OFFCURVE",
"55 137 QCURVE SMOOTH"
);
},
{
closed = 1;
nodes = (
"1262 196 OFFCURVE",
"1348 287 OFFCURVE",
"1416 287 QCURVE SMOOTH",
"1484 287 OFFCURVE",
"1571 196 OFFCURVE",
"1571 137 QCURVE SMOOTH",
"1571 76 OFFCURVE",
"1484 -15 OFFCURVE",
"1416 -15 QCURVE SMOOTH",
"1348 -15 OFFCURVE",
"1262 76 OFFCURVE",
"1262 137 QCURVE SMOOTH"
);
},
{
closed = 1;
nodes = (
"658 196 OFFCURVE",
"744 287 OFFCURVE",
"812 287 QCURVE SMOOTH",
"880 287 OFFCURVE",
"967 196 OFFCURVE",
"967 137 QCURVE SMOOTH",
"967 76 OFFCURVE",
"880 -15 OFFCURVE",
"812 -15 QCURVE SMOOTH",
"744 -15 OFFCURVE",
"658 76 OFFCURVE",
"658 137 QCURVE SMOOTH"
);
}
);
width = 1809;
}
);
unicode = 2026;
},
{
glyphname = periodcentered;
layers = (
{
layerId = "0C979A8A-491B-4450-B337-179908CF5A8F";
paths = (
{
closed = 1;
nodes = (
"209 898 OFFCURVE",
"296 989 OFFCURVE",
"364 989 QCURVE SMOOTH",
"432 989 OFFCURVE",
"519 898 OFFCURVE",
"519 836 QCURVE SMOOTH",
"519 776 OFFCURVE",
"432 685 OFFCURVE",
"364 685 QCURVE SMOOTH",
"296 685 OFFCURVE",
"209 776 OFFCURVE",
"209 836 QCURVE SMOOTH"
);
}
);
width = 656;
}
);
unicode = 00B7;
},
{
glyphname = bullet;
layers = (
{
layerId = "0C979A8A-491B-4450-B337-179908CF5A8F";
paths = (
{
closed = 1;
nodes = (
"144 919 OFFCURVE",
"306 1091 OFFCURVE",
"434 1091 QCURVE SMOOTH",
"558 1091 OFFCURVE",
"720 919 OFFCURVE",
"720 803 QCURVE SMOOTH",
"720 689 OFFCURVE",
"558 517 OFFCURVE",
"434 517 QCURVE SMOOTH",
"306 517 OFFCURVE",
"144 689 OFFCURVE",
"144 803 QCURVE SMOOTH"
);
}
);
width = 784;
}
);
unicode = 2022;
},
{
glyphname = underscore;
layers = (
{
layerId = "0C979A8A-491B-4450-B337-179908CF5A8F";
paths = (
{
closed = 1;
nodes = (
"-210 -305 LINE",
"538 -311 LINE",
"1278 -305 LINE",
"1245 -480 LINE",
"501 -490 LINE",
"-243 -480 LINE"
);
}
);
width = 1448;
}
);
unicode = 005F;
},
{
glyphname = hyphen;
layers = (
{
layerId = "0C979A8A-491B-4450-B337-179908CF5A8F";
paths = (
{
closed = 1;
nodes = (
"92 770 LINE",
"402 766 LINE",
"731 770 LINE",
"731 556 LINE",
"402 560 LINE",
"92 556 LINE"
);
}
);
width = 795;
}
);
unicode = 002D;
},
{
glyphname = hyphentwo;
layers = (
{
layerId = "0C979A8A-491B-4450-B337-179908CF5A8F";
paths = (
{
closed = 1;
nodes = (
"92 770 LINE",
"402 766 LINE",
"731 770 LINE",
"731 556 LINE",
"402 560 LINE",
"92 556 LINE"
);
}
);
width = 795;
}
);
unicode = 2010;
},
{
glyphname = endash;
layers = (
{
layerId = "0C979A8A-491B-4450-B337-179908CF5A8F";
paths = (
{
closed = 1;
nodes = (
"0 720 LINE",
"503 722 LINE",
"1024 720 LINE",
"1024 562 LINE",
"503 556 LINE",
"0 562 LINE"
);
}
);
width = 1024;
}
);
unicode = 2013;
},
{
glyphname = emdash;
layers = (
{
layerId = "0C979A8A-491B-4450-B337-179908CF5A8F";
paths = (
{
closed = 1;
nodes = (
"256 720 LINE",
"1024 722 LINE",
"1792 720 LINE",
"1792 562 LINE",
"1024 556 LINE",
"256 562 LINE"
);
}
);
width = 2048;
}
);
unicode = 2014;
},
{
glyphname = quotesingle;
layers = (
{
layerId = "0C979A8A-491B-4450-B337-179908CF5A8F";
paths = (
{
closed = 1;
nodes = (
"264 1413 LINE SMOOTH",
"263 1462 OFFCURVE",
"361 1572 OFFCURVE",
"424 1572 QCURVE SMOOTH",
"494 1572 OFFCURVE",
"550 1458 OFFCURVE",
"532 1413 QCURVE SMOOTH",
"344 944 LINE",
"270 954 LINE"
);
}
);
width = 543;
}
);
unicode = 0027;
},
{
glyphname = quotedbl;
layers = (
{
layerId = "0C979A8A-491B-4450-B337-179908CF5A8F";
paths = (
{
closed = 1;
nodes = (
"264 1413 LINE SMOOTH",
"263 1462 OFFCURVE",
"361 1572 OFFCURVE",
"424 1572 QCURVE SMOOTH",
"494 1572 OFFCURVE",
"550 1458 OFFCURVE",
"532 1413 QCURVE SMOOTH",
"344 944 LINE",
"270 954 LINE"
);
},
{
closed = 1;
nodes = (
"694 1413 LINE SMOOTH",
"693 1462 OFFCURVE",
"791 1572 OFFCURVE",
"854 1572 QCURVE SMOOTH",
"924 1572 OFFCURVE",
"980 1458 OFFCURVE",
"962 1413 QCURVE SMOOTH",
"774 944 LINE",
"700 954 LINE"
);
}
);
width = 973;
}
);
unicode = 0022;
},
{
glyphname = quoteleft;
layers = (
{
layerId = "0C979A8A-491B-4450-B337-179908CF5A8F";
paths = (
{
closed = 1;
nodes = (
"544 1443 OFFCURVE",
"408 1324 OFFCURVE",
"385 1260 QCURVE",
"464 1260 OFFCURVE",
"552 1181 OFFCURVE",
"552 1119 QCURVE SMOOTH",
"552 1059 OFFCURVE",
"453 970 OFFCURVE",
"384 970 QCURVE SMOOTH",
"318 970 OFFCURVE",
"218 1079 OFFCURVE",
"218 1167 QCURVE SMOOTH",
"218 1275 OFFCURVE",
"420 1495 OFFCURVE",
"523 1556 QCURVE",
"589 1475 LINE"
);
}
);
width = 611;
}
);
unicode = 2018;
},
{
glyphname = quoteright;
layers = (
{
layerId = "0C979A8A-491B-4450-B337-179908CF5A8F";
paths = (
{
closed = 1;
nodes = (
"262 1059 OFFCURVE",
"398 1178 OFFCURVE",
"421 1242 QCURVE",
"342 1242 OFFCURVE",
"254 1321 OFFCURVE",
"254 1383 QCURVE SMOOTH",
"254 1443 OFFCURVE",
"353 1532 OFFCURVE",
"422 1532 QCURVE SMOOTH",
"488 1532 OFFCURVE",
"588 1423 OFFCURVE",
"588 1335 QCURVE SMOOTH",
"588 1227 OFFCURVE",
"386 1007 OFFCURVE",
"283 946 QCURVE",
"217 1027 LINE"
);
}
);
width = 611;
}
);
unicode = 2019;
},
{
glyphname = quotesinglbase;
layers = (
{
layerId = "0C979A8A-491B-4450-B337-179908CF5A8F";
paths = (
{
closed = 1;
nodes = (
"44 -187 OFFCURVE",
"180 -68 OFFCURVE",
"203 -4 QCURVE",
"124 -4 OFFCURVE",
"36 75 OFFCURVE",
"36 137 QCURVE SMOOTH",
"36 197 OFFCURVE",
"135 286 OFFCURVE",
"204 286 QCURVE SMOOTH",
"270 286 OFFCURVE",
"370 177 OFFCURVE",
"370 89 QCURVE SMOOTH",
"370 -19 OFFCURVE",
"168 -239 OFFCURVE",
"65 -300 QCURVE",
"-1 -219 LINE"
);
}
);
width = 611;
}
);
unicode = 201A;
},
{
glyphname = quotedblleft;
layers = (
{
layerId = "0C979A8A-491B-4450-B337-179908CF5A8F";
paths = (
{
closed = 1;
nodes = (
"524 1443 OFFCURVE",
"388 1324 OFFCURVE",
"365 1260 QCURVE",
"444 1260 OFFCURVE",
"532 1181 OFFCURVE",
"532 1119 QCURVE SMOOTH",
"532 1059 OFFCURVE",
"433 970 OFFCURVE",
"364 970 QCURVE SMOOTH",
"298 970 OFFCURVE",
"198 1079 OFFCURVE",
"198 1167 QCURVE SMOOTH",
"198 1275 OFFCURVE",
"400 1495 OFFCURVE",
"503 1556 QCURVE",
"569 1475 LINE"
);
},
{
closed = 1;
nodes = (
"977 1443 OFFCURVE",
"841 1324 OFFCURVE",
"818 1260 QCURVE",
"897 1260 OFFCURVE",
"985 1181 OFFCURVE",
"985 1119 QCURVE SMOOTH",
"985 1059 OFFCURVE",
"886 970 OFFCURVE",
"817 970 QCURVE SMOOTH",
"751 970 OFFCURVE",
"651 1079 OFFCURVE",
"651 1167 QCURVE SMOOTH",
"651 1275 OFFCURVE",
"853 1495 OFFCURVE",
"956 1556 QCURVE",
"1022 1475 LINE"
);
}
);
width = 994;
}
);
unicode = 201C;
},
{
glyphname = quotedblright;
layers = (
{
layerId = "0C979A8A-491B-4450-B337-179908CF5A8F";
paths = (
{
closed = 1;
nodes = (
"722 1059 OFFCURVE",
"858 1178 OFFCURVE",
"881 1242 QCURVE",
"802 1242 OFFCURVE",
"714 1321 OFFCURVE",
"714 1383 QCURVE SMOOTH",
"714 1443 OFFCURVE",
"813 1532 OFFCURVE",
"882 1532 QCURVE SMOOTH",
"948 1532 OFFCURVE",
"1048 1423 OFFCURVE",
"1048 1335 QCURVE SMOOTH",
"1048 1227 OFFCURVE",
"846 1007 OFFCURVE",
"743 946 QCURVE",
"677 1027 LINE"
);
},
{
closed = 1;
nodes = (
"242 1059 OFFCURVE",
"378 1178 OFFCURVE",
"401 1242 QCURVE",
"322 1242 OFFCURVE",
"234 1321 OFFCURVE",
"234 1383 QCURVE SMOOTH",
"234 1443 OFFCURVE",
"333 1532 OFFCURVE",
"402 1532 QCURVE SMOOTH",
"468 1532 OFFCURVE",
"568 1423 OFFCURVE",
"568 1335 QCURVE SMOOTH",
"568 1227 OFFCURVE",
"366 1007 OFFCURVE",
"263 946 QCURVE",
"197 1027 LINE"
);
}
);
width = 994;
}
);
unicode = 201D;
},
{
glyphname = quotedblbase;
layers = (
{
layerId = "0C979A8A-491B-4450-B337-179908CF5A8F";
paths = (
{
closed = 1;
nodes = (
"490 -188 OFFCURVE",
"626 -69 OFFCURVE",
"649 -5 QCURVE",
"570 -5 OFFCURVE",
"482 74 OFFCURVE",
"482 136 QCURVE SMOOTH",
"482 196 OFFCURVE",
"581 285 OFFCURVE",
"650 285 QCURVE SMOOTH",
"716 285 OFFCURVE",
"816 176 OFFCURVE",
"816 88 QCURVE SMOOTH",
"816 -20 OFFCURVE",
"614 -240 OFFCURVE",
"511 -301 QCURVE",
"445 -220 LINE"
);
},
{
closed = 1;
nodes = (
"10 -188 OFFCURVE",
"146 -69 OFFCURVE",
"169 -5 QCURVE",
"90 -5 OFFCURVE",
"2 74 OFFCURVE",
"2 136 QCURVE SMOOTH",
"2 196 OFFCURVE",
"101 285 OFFCURVE",
"170 285 QCURVE SMOOTH",
"236 285 OFFCURVE",
"336 176 OFFCURVE",
"336 88 QCURVE SMOOTH",
"336 -20 OFFCURVE",
"134 -240 OFFCURVE",
"31 -301 QCURVE",
"-35 -220 LINE"
);
}
);
width = 994;
}
);
unicode = 201E;
},
{
glyphname = apostrophemod;
layers = (
{
layerId = "0C979A8A-491B-4450-B337-179908CF5A8F";
paths = (
{
closed = 1;
nodes = (
"262 1059 OFFCURVE",
"398 1178 OFFCURVE",
"421 1242 QCURVE",
"342 1242 OFFCURVE",
"254 1321 OFFCURVE",
"254 1383 QCURVE SMOOTH",
"254 1443 OFFCURVE",
"353 1532 OFFCURVE",
"422 1532 QCURVE SMOOTH",
"488 1532 OFFCURVE",
"588 1423 OFFCURVE",
"588 1335 QCURVE SMOOTH",
"588 1227 OFFCURVE",
"386 1007 OFFCURVE",
"283 946 QCURVE",
"217 1027 LINE"
);
}
);
width = 611;
}
);
unicode = 02BC;
},
{
glyphname = primemod;
layers = (
{
layerId = "0C979A8A-491B-4450-B337-179908CF5A8F";
paths = (
{
closed = 1;
nodes = (
"613 1502 LINE",
"382 969 LINE",
"226 975 LINE",
"350 1502 LINE"
);
}
);
width = 600;
}
);
unicode = 02B9;
},
{
glyphname = doubleprimemod;
layers = (
{
layerId = "0C979A8A-491B-4450-B337-179908CF5A8F";
paths = (
{
closed = 1;
nodes = (
"573 1502 LINE",
"339 982 LINE",
"183 988 LINE",
"330 1502 LINE"
);
},
{
closed = 1;
nodes = (
"969 1502 LINE",
"735 982 LINE",
"579 988 LINE",
"726 1502 LINE"
);
}
);
width = 992;
}
);
unicode = 02BA;
},
{
glyphname = minute;
layers = (
{
layerId = "0C979A8A-491B-4450-B337-179908CF5A8F";
paths = (
{
closed = 1;
nodes = (
"346 1485 LINE SMOOTH",
"363 1529 OFFCURVE",
"491 1572 OFFCURVE",
"547 1541 QCURVE SMOOTH",
"602 1511 OFFCURVE",
"618 1400 OFFCURVE",
"588 1363 QCURVE SMOOTH",
"233 930 LINE",
"144 964 LINE"
);
}
);
width = 584;
}
);
unicode = 2032;
},
{
glyphname = second;
layers = (
{
layerId = "0C979A8A-491B-4450-B337-179908CF5A8F";
paths = (
{
closed = 1;
nodes = (
"346 1485 LINE SMOOTH",
"363 1529 OFFCURVE",
"491 1572 OFFCURVE",
"547 1541 QCURVE SMOOTH",
"602 1511 OFFCURVE",
"618 1400 OFFCURVE",
"588 1363 QCURVE SMOOTH",
"233 930 LINE",
"144 964 LINE"
);
},
{
closed = 1;
nodes = (
"816 1485 LINE SMOOTH",
"833 1529 OFFCURVE",
"961 1572 OFFCURVE",
"1017 1541 QCURVE SMOOTH",
"1072 1511 OFFCURVE",
"1088 1400 OFFCURVE",
"1058 1363 QCURVE SMOOTH",
"703 930 LINE",
"614 964 LINE"
);
}
);
width = 1054;
}
);
unicode = 2033;
},
{
glyphname = parenleft;
layers = (
{
layerId = "0C979A8A-491B-4450-B337-179908CF5A8F";
paths = (
{
closed = 1;
nodes = (
"82 840 OFFCURVE",
"468 1416 OFFCURVE",
"613 1522 QCURVE",
"710 1420 LINE",
"591 1312 OFFCURVE",
"290 822 OFFCURVE",
"252 543 QCURVE SMOOTH",
"215 267 OFFCURVE",
"383 -213 OFFCURVE",
"518 -378 QCURVE",
"406 -474 LINE",
"239 -319 OFFCURVE",
"2 237 OFFCURVE",
"42 543 QCURVE SMOOTH"
);
}
);
width = 648;
}
);
unicode = 0028;
},
{
glyphname = parenright;
layers = (
{
layerId = "0C979A8A-491B-4450-B337-179908CF5A8F";
paths = (
{
closed = 1;
nodes = (
"580 208 OFFCURVE",
"194 -368 OFFCURVE",
"49 -474 QCURVE",
"-48 -372 LINE",
"71 -264 OFFCURVE",
"372 226 OFFCURVE",
"410 505 QCURVE SMOOTH",
"447 781 OFFCURVE",
"279 1261 OFFCURVE",
"144 1426 QCURVE",
"256 1522 LINE",
"423 1367 OFFCURVE",
"660 811 OFFCURVE",
"620 505 QCURVE SMOOTH"
);
}
);
width = 648;
}
);
unicode = 0029;
},
{
glyphname = bracketleft;
layers = (
{
layerId = "0C979A8A-491B-4450-B337-179908CF5A8F";
paths = (
{
closed = 1;
nodes = (
"268 1362 LINE",
"263 1382 LINE",
"286 1500 LINE",
"744 1500 LINE",
"711 1349 LINE",
"464 1330 LINE",
"300 508 LINE",
"150 -308 LINE",
"390 -327 LINE",
"359 -480 LINE",
"-99 -480 LINE",
"-76 -362 LINE",
"-63 -342 LINE",
"114 508 LINE"
);
}
);
width = 648;
}
);
unicode = 005B;
},
{
glyphname = bracketright;
layers = (
{
layerId = "0C979A8A-491B-4450-B337-179908CF5A8F";
paths = (
{
closed = 1;
nodes = (
"-156 -329 LINE",
"91 -310 LINE",
"255 512 LINE",
"405 1328 LINE",
"165 1347 LINE",
"196 1500 LINE",
"654 1500 LINE",
"631 1382 LINE",
"618 1362 LINE",
"441 512 LINE",
"287 -342 LINE",
"292 -362 LINE",
"269 -480 LINE",
"-189 -480 LINE"
);
}
);
width = 648;
}
);
unicode = 005D;
},
{
glyphname = braceleft;
layers = (
{
layerId = "0C979A8A-491B-4450-B337-179908CF5A8F";
paths = (
{
closed = 1;
nodes = (
"14 612 LINE",
"147 622 LINE SMOOTH",
"204 626 OFFCURVE",
"261 660 OFFCURVE",
"272 716 QCURVE SMOOTH",
"295 834 OFFCURVE",
"210 1066 OFFCURVE",
"233 1184 QCURVE SMOOTH",
"264 1343 OFFCURVE",
"488 1510 OFFCURVE",
"644 1510 QCURVE SMOOTH",
"715 1510 OFFCURVE",
"775 1503 OFFCURVE",
"812 1500 QCURVE",
"784 1349 LINE",
"733 1351 OFFCURVE",
"690 1351 OFFCURVE",
"641 1351 QCURVE SMOOTH",
"581 1351 OFFCURVE",
"472 1280 OFFCURVE",
"455 1196 QCURVE SMOOTH",
"434 1094 OFFCURVE",
"495 849 OFFCURVE",
"477 758 QCURVE SMOOTH",
"458 663 OFFCURVE",
"356 572 OFFCURVE",
"280 550 QCURVE",
"358 514 OFFCURVE",
"414 384 OFFCURVE",
"400 314 QCURVE SMOOTH",
"382 223 OFFCURVE",
"178 -79 OFFCURVE",
"158 -180 QCURVE SMOOTH",
"143 -257 OFFCURVE",
"202 -333 OFFCURVE",
"284 -333 QCURVE SMOOTH",
"333 -333 OFFCURVE",
"396 -333 OFFCURVE",
"449 -331 QCURVE",
"421 -484 LINE",
"383 -487 OFFCURVE",
"300 -495 OFFCURVE",
"229 -495 QCURVE SMOOTH",
"73 -495 OFFCURVE",
"-88 -327 OFFCURVE",
"-57 -168 QCURVE SMOOTH",
"-34 -50 OFFCURVE",
"180 246 OFFCURVE",
"203 364 QCURVE",
"224 465 LINE",
"-10 481 LINE"
);
}
);
width = 693;
}
);
unicode = 007B;
},
{
glyphname = braceright;
layers = (
{
layerId = "0C979A8A-491B-4450-B337-179908CF5A8F";
paths = (
{
closed = 1;
nodes = (
"-197 -334 LINE",
"-146 -336 OFFCURVE",
"-103 -336 OFFCURVE",
"-54 -336 QCURVE SMOOTH",
"6 -336 OFFCURVE",
"115 -265 OFFCURVE",
"132 -181 QCURVE SMOOTH",
"153 -79 OFFCURVE",
"119 239 OFFCURVE",
"137 330 QCURVE SMOOTH",
"156 425 OFFCURVE",
"258 516 OFFCURVE",
"334 538 QCURVE",
"256 574 OFFCURVE",
"200 704 OFFCURVE",
"214 774 QCURVE SMOOTH",
"232 865 OFFCURVE",
"409 1094 OFFCURVE",
"429 1195 QCURVE SMOOTH",
"444 1272 OFFCURVE",
"385 1348 OFFCURVE",
"303 1348 QCURVE SMOOTH",
"254 1348 OFFCURVE",
"191 1348 OFFCURVE",
"138 1346 QCURVE",
"166 1499 LINE",
"204 1502 OFFCURVE",
"287 1510 OFFCURVE",
"358 1510 QCURVE SMOOTH",
"514 1510 OFFCURVE",
"675 1342 OFFCURVE",
"644 1183 QCURVE SMOOTH",
"621 1065 OFFCURVE",
"434 842 OFFCURVE",
"411 724 QCURVE",
"390 623 LINE",
"624 607 LINE",
"600 476 LINE",
"467 466 LINE SMOOTH",
"410 462 OFFCURVE",
"353 428 OFFCURVE",
"342 372 QCURVE SMOOTH",
"319 254 OFFCURVE",
"377 -51 OFFCURVE",
"354 -169 QCURVE SMOOTH",
"323 -328 OFFCURVE",
"99 -495 OFFCURVE",
"-57 -495 QCURVE SMOOTH",
"-128 -495 OFFCURVE",
"-188 -488 OFFCURVE",
"-225 -485 QCURVE"
);
}
);
width = 693;
}
);
unicode = 007D;
},
{
glyphname = guillemetleft;
layers = (
{
layerId = "0C979A8A-491B-4450-B337-179908CF5A8F";
paths = (
{
closed = 1;
nodes = (
"59 644 OFFCURVE",
"683 1005 OFFCURVE",
"762 1045 QCURVE SMOOTH",
"827 1078 OFFCURVE",
"889 932 OFFCURVE",
"829 897 QCURVE SMOOTH",
"664 801 OFFCURVE",
"334 602 OFFCURVE",
"334 602 QCURVE",
"334 602 OFFCURVE",
"649 352 OFFCURVE",
"730 288 QCURVE SMOOTH",
"786 244 OFFCURVE",
"684 121 OFFCURVE",
"619 159 QCURVE SMOOTH",
"559 193 OFFCURVE",
"97 516 OFFCURVE",
"31 564 QCURVE",
"59 644 LINE"
);
},
{
closed = 1;
nodes = (
"659 644 OFFCURVE",
"1283 1005 OFFCURVE",
"1362 1045 QCURVE SMOOTH",
"1427 1078 OFFCURVE",
"1489 932 OFFCURVE",
"1429 897 QCURVE SMOOTH",
"1264 801 OFFCURVE",
"934 602 OFFCURVE",
"934 602 QCURVE",
"934 602 OFFCURVE",
"1249 352 OFFCURVE",
"1330 288 QCURVE SMOOTH",
"1386 244 OFFCURVE",
"1284 121 OFFCURVE",
"1219 159 QCURVE SMOOTH",
"1159 193 OFFCURVE",
"697 516 OFFCURVE",
"631 564 QCURVE",
"659 644 LINE"
);
}
);
width = 1513;
}
);
unicode = 00AB;
},
{
glyphname = guillemetright;
layers = (
{
layerId = "0C979A8A-491B-4450-B337-179908CF5A8F";
paths = (
{
closed = 1;
nodes = (
"851 555 OFFCURVE",
"227 194 OFFCURVE",
"148 154 QCURVE SMOOTH",
"83 121 OFFCURVE",
"21 267 OFFCURVE",
"81 302 QCURVE SMOOTH",
"246 398 OFFCURVE",
"576 597 OFFCURVE",
"576 597 QCURVE",
"576 597 OFFCURVE",
"261 847 OFFCURVE",
"180 911 QCURVE SMOOTH",
"124 955 OFFCURVE",
"226 1078 OFFCURVE",
"291 1040 QCURVE SMOOTH",
"351 1006 OFFCURVE",
"813 683 OFFCURVE",
"879 635 QCURVE",
"851 555 LINE"
);
},
{
closed = 1;
nodes = (
"1483 555 OFFCURVE",
"859 194 OFFCURVE",
"780 154 QCURVE SMOOTH",
"715 121 OFFCURVE",
"653 267 OFFCURVE",
"713 302 QCURVE SMOOTH",
"878 398 OFFCURVE",
"1208 597 OFFCURVE",
"1208 597 QCURVE",
"1208 597 OFFCURVE",
"893 847 OFFCURVE",
"812 911 QCURVE SMOOTH",
"756 955 OFFCURVE",
"858 1078 OFFCURVE",
"923 1040 QCURVE SMOOTH",
"983 1006 OFFCURVE",
"1445 683 OFFCURVE",
"1511 635 QCURVE",
"1483 555 LINE"
);
}
);
width = 1513;
}
);
unicode = 00BB;
},
{
glyphname = guilsinglleft;
layers = (
{
layerId = "0C979A8A-491B-4450-B337-179908CF5A8F";
paths = (
{
closed = 1;
nodes = (
"59 644 OFFCURVE",
"683 1005 OFFCURVE",
"762 1045 QCURVE SMOOTH",
"827 1078 OFFCURVE",
"889 932 OFFCURVE",
"829 897 QCURVE SMOOTH",
"664 801 OFFCURVE",
"334 602 OFFCURVE",
"334 602 QCURVE",
"334 602 OFFCURVE",
"649 352 OFFCURVE",
"730 288 QCURVE SMOOTH",
"786 244 OFFCURVE",
"684 121 OFFCURVE",
"619 159 QCURVE SMOOTH",
"559 193 OFFCURVE",
"97 516 OFFCURVE",
"31 564 QCURVE",
"59 644 LINE"
);
}
);
width = 913;
}
);
unicode = 2039;
},
{
glyphname = guilsinglright;
layers = (
{
layerId = "0C979A8A-491B-4450-B337-179908CF5A8F";
paths = (
{
closed = 1;
nodes = (
"851 555 OFFCURVE",
"227 194 OFFCURVE",
"148 154 QCURVE SMOOTH",
"83 121 OFFCURVE",
"21 267 OFFCURVE",
"81 302 QCURVE SMOOTH",
"246 398 OFFCURVE",
"576 597 OFFCURVE",
"576 597 QCURVE",
"576 597 OFFCURVE",
"261 847 OFFCURVE",
"180 911 QCURVE SMOOTH",
"124 955 OFFCURVE",
"226 1078 OFFCURVE",
"291 1040 QCURVE SMOOTH",
"351 1006 OFFCURVE",
"813 683 OFFCURVE",
"879 635 QCURVE",
"851 555 LINE"
);
}
);
width = 913;
}
);
unicode = 203A;
},
{
glyphname = leftanglebracket;
layers = (
{
layerId = "0C979A8A-491B-4450-B337-179908CF5A8F";
paths = (
{
closed = 1;
nodes = (
"1143 1382 LINE",
"237 700 LINE",
"859 -66 LINE",
"710 -177 LINE",
"24 622 LINE",
"24 801 LINE",
"1046 1518 LINE"
);
}
);
width = 1053;
}
);
unicode = 27E8;
},
{
glyphname = rightanglebracket;
layers = (
{
layerId = "0C979A8A-491B-4450-B337-179908CF5A8F";
paths = (
{
closed = 1;
nodes = (
"-96 -31 LINE",
"810 651 LINE",
"188 1417 LINE",
"337 1528 LINE",
"1023 729 LINE",
"1023 550 LINE",
"1 -167 LINE"
);
}
);
width = 1053;
}
);
unicode = 27E9;
},
{
glyphname = plus;
layers = (
{
layerId = "0C979A8A-491B-4450-B337-179908CF5A8F";
paths = (
{
closed = 1;
nodes = (
"60 718 LINE",
"924 718 LINE",
"924 547 LINE",
"60 547 LINE"
);
},
{
closed = 1;
nodes = (
"402 1064 LINE",
"582 1064 LINE",
"582 200 LINE",
"402 200 LINE"
);
}
);
width = 1024;
}
);
unicode = 002B;
},
{
glyphname = minus;
layers = (
{
layerId = "0C979A8A-491B-4450-B337-179908CF5A8F";
paths = (
{
closed = 1;
nodes = (
"60 718 LINE",
"924 718 LINE",
"924 536 LINE",
"60 536 LINE"
);
}
);
width = 1024;
}
);
unicode = 2212;
},
{
glyphname = plusminus;
layers = (
{
layerId = "0C979A8A-491B-4450-B337-179908CF5A8F";
paths = (
{
closed = 1;
nodes = (
"60 718 LINE",
"924 718 LINE",
"924 546 LINE",
"60 546 LINE"
);
},
{
closed = 1;
nodes = (
"402 1064 LINE",
"582 1064 LINE",
"582 258 LINE",
"402 258 LINE"
);
},
{
closed = 1;
nodes = (
"60 191 LINE",
"924 191 LINE",
"924 26 LINE",
"60 26 LINE"
);
}
);
width = 1024;
}
);
unicode = 00B1;
},
{
glyphname = multiply;
layers = (
{
layerId = "0C979A8A-491B-4450-B337-179908CF5A8F";
paths = (
{
closed = 1;
nodes = (
"127 386 LINE",
"738 997 LINE",
"857 878 LINE",
"246 267 LINE"
);
},
{
closed = 1;
nodes = (
"120 871 LINE",
"253 1004 LINE",
"864 393 LINE",
"731 260 LINE"
);
}
);
width = 1024;
}
);
unicode = 00D7;
},
{
glyphname = divide;
layers = (
{
layerId = "0C979A8A-491B-4450-B337-179908CF5A8F";
paths = (
{
closed = 1;
nodes = (
"60 718 LINE",
"924 718 LINE",
"924 546 LINE",
"60 546 LINE"
);
},
{
closed = 1;
nodes = (
"349 351 OFFCURVE",
"429 437 OFFCURVE",
"492 437 QCURVE SMOOTH",
"555 437 OFFCURVE",
"635 351 OFFCURVE",
"635 294 QCURVE SMOOTH",
"635 238 OFFCURVE",
"555 152 OFFCURVE",
"492 152 QCURVE SMOOTH",
"429 152 OFFCURVE",
"349 238 OFFCURVE",
"349 294 QCURVE SMOOTH"
);
},
{
closed = 1;
nodes = (
"349 1028 OFFCURVE",
"429 1114 OFFCURVE",
"492 1114 QCURVE SMOOTH",
"555 1114 OFFCURVE",
"635 1028 OFFCURVE",
"635 971 QCURVE SMOOTH",
"635 915 OFFCURVE",
"555 829 OFFCURVE",
"492 829 QCURVE SMOOTH",
"429 829 OFFCURVE",
"349 915 OFFCURVE",
"349 971 QCURVE SMOOTH"
);
}
);
width = 1024;
}
);
unicode = 00F7;
},
{
glyphname = equal;
layers = (
{
layerId = "0C979A8A-491B-4450-B337-179908CF5A8F";
paths = (
{
closed = 1;
nodes = (
"90 506 LINE",
"490 500 LINE",
"894 506 LINE",
"894 324 LINE",
"490 324 LINE",
"90 324 LINE"
);
},
{
closed = 1;
nodes = (
"90 918 LINE",
"490 918 LINE",
"894 918 LINE",
"894 736 LINE",
"490 742 LINE",
"90 736 LINE"
);
}
);
width = 1024;
}
);
unicode = 003D;
},
{
glyphname = notequal;
layers = (
{
layerId = "0C979A8A-491B-4450-B337-179908CF5A8F";
paths = (
{
closed = 1;
nodes = (
"80 501 LINE",
"440 494 LINE",
"904 501 LINE",
"904 329 LINE",
"410 333 LINE",
"80 329 LINE"
);
},
{
closed = 1;
nodes = (
"80 913 LINE",
"540 908 LINE",
"904 913 LINE",
"904 741 LINE",
"510 748 LINE",
"80 741 LINE"
);
},
{
closed = 1;
nodes = (
"618 1210 LINE",
"773 1168 LINE",
"364 53 LINE",
"209 95 LINE"
);
}
);
width = 1024;
}
);
unicode = 2260;
},
{
glyphname = approxequal;
layers = (
{
layerId = "0C979A8A-491B-4450-B337-179908CF5A8F";
paths = (
{
closed = 1;
nodes = (
"80 844 OFFCURVE",
"264 968 OFFCURVE",
"352 968 QCURVE",
"685 837 LINE",
"745 837 OFFCURVE",
"830 917 OFFCURVE",
"863 971 QCURVE",
"966 911 LINE",
"916 807 OFFCURVE",
"767 658 OFFCURVE",
"635 658 QCURVE",
"315 785 LINE",
"254 785 OFFCURVE",
"155 732 OFFCURVE",
"98 680 QCURVE",
"18 751 LINE"
);
},
{
closed = 1;
nodes = (
"80 464 OFFCURVE",
"265 586 OFFCURVE",
"353 586 QCURVE",
"685 453 LINE",
"745 453 OFFCURVE",
"828 543 OFFCURVE",
"861 597 QCURVE",
"966 531 LINE",
"916 427 OFFCURVE",
"768 274 OFFCURVE",
"636 274 QCURVE",
"316 401 LINE",
"255 401 OFFCURVE",
"156 348 OFFCURVE",
"99 296 QCURVE",
"18 371 LINE"
);
}
);
width = 1024;
}
);
unicode = 2248;
},
{
glyphname = less;
layers = (
{
layerId = "0C979A8A-491B-4450-B337-179908CF5A8F";
paths = (
{
closed = 1;
nodes = (
"27 663 OFFCURVE",
"493 1034 OFFCURVE",
"562 1088 QCURVE SMOOTH",
"631 1142 OFFCURVE",
"720 1034 OFFCURVE",
"658 975 QCURVE",
"568 893 OFFCURVE",
"354 708 OFFCURVE",
"301 655 QCURVE",
"354 584 OFFCURVE",
"517 378 OFFCURVE",
"566 309 QCURVE",
"609 249 OFFCURVE",
"502 157 OFFCURVE",
"450 214 QCURVE SMOOTH",
"397 270 OFFCURVE",
"27 663 OFFCURVE",
"27 663 QCURVE"
);
}
);
width = 694;
}
);
unicode = 003C;
},
{
glyphname = greater;
layers = (
{
layerId = "0C979A8A-491B-4450-B337-179908CF5A8F";
paths = (
{
closed = 1;
nodes = (
"648 614 OFFCURVE",
"177 249 OFFCURVE",
"108 196 QCURVE SMOOTH",
"37 143 OFFCURVE",
"-49 253 OFFCURVE",
"13 310 QCURVE",
"104 392 OFFCURVE",
"320 574 OFFCURVE",
"374 626 QCURVE",
"322 698 OFFCURVE",
"162 906 OFFCURVE",
"114 975 QCURVE",
"71 1036 OFFCURVE",
"180 1126 OFFCURVE",
"232 1069 QCURVE SMOOTH",
"283 1012 OFFCURVE",
"648 614 OFFCURVE",
"648 614 QCURVE"
);
}
);
width = 694;
}
);
unicode = 003E;
},
{
glyphname = lessequal;
layers = (
{
layerId = "0C979A8A-491B-4450-B337-179908CF5A8F";
paths = (
{
closed = 1;
nodes = (
"30 208 LINE",
"834 208 LINE",
"834 36 LINE",
"30 36 LINE"
);
},
{
closed = 1;
nodes = (
"153 700 OFFCURVE",
"682 1037 OFFCURVE",
"757 1086 QCURVE SMOOTH",
"832 1134 OFFCURVE",
"913 1015 OFFCURVE",
"845 963 QCURVE SMOOTH",
"702 853 OFFCURVE",
"485 700 OFFCURVE",
"446 681 QCURVE",
"471 654 OFFCURVE",
"635 510 OFFCURVE",
"730 402 QCURVE",
"779 349 OFFCURVE",
"676 250 OFFCURVE",
"618 298 QCURVE SMOOTH",
"560 346 OFFCURVE",
"153 700 OFFCURVE",
"153 700 QCURVE"
);
}
);
width = 1024;
}
);
unicode = 2264;
},
{
glyphname = greaterequal;
layers = (
{
layerId = "0C979A8A-491B-4450-B337-179908CF5A8F";
paths = (
{
closed = 1;
nodes = (
"20 208 LINE",
"824 208 LINE",
"824 36 LINE",
"20 36 LINE"
);
},
{
closed = 1;
nodes = (
"316 516 OFFCURVE",
"533 657 OFFCURVE",
"578 690 QCURVE",
"546 719 OFFCURVE",
"370 873 OFFCURVE",
"273 980 QCURVE",
"224 1033 OFFCURVE",
"331 1134 OFFCURVE",
"389 1086 QCURVE SMOOTH",
"447 1038 OFFCURVE",
"854 684 OFFCURVE",
"854 684 QCURVE",
"854 684 OFFCURVE",
"325 347 OFFCURVE",
"250 298 QCURVE SMOOTH",
"175 250 OFFCURVE",
"105 354 OFFCURVE",
"173 406 QCURVE SMOOTH"
);
}
);
width = 1024;
}
);
unicode = 2265;
},
{
glyphname = bulletoperator;
layers = (
{
layerId = "0C979A8A-491B-4450-B337-179908CF5A8F";
paths = (
{
closed = 1;
nodes = (
"331 709 OFFCURVE",
"421 805 OFFCURVE",
"492 805 QCURVE SMOOTH",
"563 805 OFFCURVE",
"653 709 OFFCURVE",
"653 644 QCURVE SMOOTH",
"653 580 OFFCURVE",
"563 484 OFFCURVE",
"492 484 QCURVE SMOOTH",
"421 484 OFFCURVE",
"331 580 OFFCURVE",
"331 644 QCURVE SMOOTH"
);
}
);
width = 1024;
}
);
unicode = 2219;
},
{
glyphname = logicalnot;
layers = (
{
layerId = "0C979A8A-491B-4450-B337-179908CF5A8F";
paths = (
{
closed = 1;
nodes = (
"909 718 LINE",
"909 200 LINE",
"733 200 LINE",
"733 546 LINE",
"45 546 LINE",
"45 718 LINE"
);
}
);
width = 1024;
}
);
unicode = 00AC;
},
{
glyphname = divisionslash;
layers = (
{
layerId = "0C979A8A-491B-4450-B337-179908CF5A8F";
paths = (
{
closed = 1;
nodes = (
"561 1550 LINE",
"709 1518 LINE",
"93 -155 LINE",
"-55 -123 LINE"
);
}
);
width = 656;
}
);
unicode = 2215;
},
{
glyphname = slash;
layers = (
{
layerId = "0C979A8A-491B-4450-B337-179908CF5A8F";
paths = (
{
closed = 1;
nodes = (
"561 1550 LINE",
"709 1518 LINE",
"93 -155 LINE",
"-55 -123 LINE"
);
}
);
width = 656;
}
);
unicode = 002F;
},
{
glyphname = backslash;
layers = (
{
layerId = "0C979A8A-491B-4450-B337-179908CF5A8F";
paths = (
{
closed = 1;
nodes = (
"280 1555 LINE",
"571 -118 LINE",
"419 -151 LINE",
"128 1522 LINE"
);
}
);
width = 656;
}
);
unicode = 005C;
},
{
glyphname = fraction;
layers = (
{
layerId = "0C979A8A-491B-4450-B337-179908CF5A8F";
paths = (
{
closed = 1;
nodes = (
"728 1529 LINE",
"840 1454 LINE",
"-308 -50 LINE",
"-420 25 LINE"
);
}
);
width = 420;
}
);
unicode = 2044;
},
{
glyphname = percent;
layers = (
{
layerId = "0C979A8A-491B-4450-B337-179908CF5A8F";
paths = (
{
closed = 1;
nodes = (
"167 1255 OFFCURVE",
"460 1522 OFFCURVE",
"643 1521 QCURVE SMOOTH",
"826 1519 OFFCURVE",
"991 1266 OFFCURVE",
"939 1064 QCURVE SMOOTH",
"891 872 OFFCURVE",
"599 600 OFFCURVE",
"417 601 QCURVE SMOOTH",
"233 602 OFFCURVE",
"68 857 OFFCURVE",
"119 1063 QCURVE SMOOTH"
);
},
{
closed = 1;
nodes = (
"285 932 OFFCURVE",
"351 740 OFFCURVE",
"447 740 QCURVE SMOOTH",
"550 739 OFFCURVE",
"703 911 OFFCURVE",
"740 1063 QCURVE SMOOTH",
"774 1201 OFFCURVE",
"704 1374 OFFCURVE",
"607 1375 QCURVE SMOOTH",
"504 1376 OFFCURVE",
"355 1221 OFFCURVE",
"320 1076 QCURVE SMOOTH"
);
},
{
closed = 1;
nodes = (
"1485 1533 LINE",
"1611 1447 LINE",
"532 -57 LINE",
"406 29 LINE"
);
},
{
closed = 1;
nodes = (
"1169 624 OFFCURVE",
"1462 891 OFFCURVE",
"1645 890 QCURVE SMOOTH",
"1828 888 OFFCURVE",
"1993 635 OFFCURVE",
"1941 433 QCURVE SMOOTH",
"1893 241 OFFCURVE",
"1601 -31 OFFCURVE",
"1419 -30 QCURVE SMOOTH",
"1235 -29 OFFCURVE",
"1070 226 OFFCURVE",
"1121 432 QCURVE SMOOTH"
);
},
{
closed = 1;
nodes = (
"1287 301 OFFCURVE",
"1353 109 OFFCURVE",
"1449 109 QCURVE SMOOTH",
"1552 108 OFFCURVE",
"1705 280 OFFCURVE",
"1742 432 QCURVE SMOOTH",
"1776 570 OFFCURVE",
"1706 743 OFFCURVE",
"1609 744 QCURVE SMOOTH",
"1506 745 OFFCURVE",
"1357 590 OFFCURVE",
"1322 445 QCURVE SMOOTH"
);
}
);
width = 2046;
}
);
unicode = 0025;
},
{
glyphname = perthousand;
layers = (
{
layerId = "0C979A8A-491B-4450-B337-179908CF5A8F";
paths = (
{
closed = 1;
nodes = (
"167 1255 OFFCURVE",
"460 1522 OFFCURVE",
"643 1521 QCURVE SMOOTH",
"826 1519 OFFCURVE",
"991 1266 OFFCURVE",
"939 1064 QCURVE SMOOTH",
"891 872 OFFCURVE",
"599 600 OFFCURVE",
"417 601 QCURVE SMOOTH",
"233 602 OFFCURVE",
"68 857 OFFCURVE",
"119 1063 QCURVE SMOOTH"
);
},
{
closed = 1;
nodes = (
"285 932 OFFCURVE",
"351 740 OFFCURVE",
"447 740 QCURVE SMOOTH",
"550 739 OFFCURVE",
"703 911 OFFCURVE",
"740 1063 QCURVE SMOOTH",
"774 1201 OFFCURVE",
"704 1374 OFFCURVE",
"607 1375 QCURVE SMOOTH",
"504 1376 OFFCURVE",
"355 1221 OFFCURVE",
"320 1076 QCURVE SMOOTH"
);
},
{
closed = 1;
nodes = (
"1485 1533 LINE",
"1611 1447 LINE",
"532 -57 LINE",
"406 29 LINE"
);
},
{
closed = 1;
nodes = (
"1169 624 OFFCURVE",
"1462 891 OFFCURVE",
"1645 890 QCURVE SMOOTH",
"1828 888 OFFCURVE",
"1993 635 OFFCURVE",
"1941 433 QCURVE SMOOTH",
"1893 241 OFFCURVE",
"1601 -31 OFFCURVE",
"1419 -30 QCURVE SMOOTH",
"1235 -29 OFFCURVE",
"1070 226 OFFCURVE",
"1121 432 QCURVE SMOOTH"
);
},
{
closed = 1;
nodes = (
"1287 301 OFFCURVE",
"1353 109 OFFCURVE",
"1449 109 QCURVE SMOOTH",
"1552 108 OFFCURVE",
"1705 280 OFFCURVE",
"1742 432 QCURVE SMOOTH",
"1776 570 OFFCURVE",
"1706 743 OFFCURVE",
"1609 744 QCURVE SMOOTH",
"1506 745 OFFCURVE",
"1357 590 OFFCURVE",
"1322 445 QCURVE SMOOTH"
);
},
{
closed = 1;
nodes = (
"2135 624 OFFCURVE",
"2428 891 OFFCURVE",
"2611 890 QCURVE SMOOTH",
"2794 888 OFFCURVE",
"2959 635 OFFCURVE",
"2907 433 QCURVE SMOOTH",
"2859 241 OFFCURVE",
"2567 -31 OFFCURVE",
"2385 -30 QCURVE SMOOTH",
"2201 -29 OFFCURVE",
"2036 226 OFFCURVE",
"2087 432 QCURVE SMOOTH"
);
},
{
closed = 1;
nodes = (
"2253 301 OFFCURVE",
"2319 109 OFFCURVE",
"2415 109 QCURVE SMOOTH",
"2518 108 OFFCURVE",
"2671 280 OFFCURVE",
"2708 432 QCURVE SMOOTH",
"2742 570 OFFCURVE",
"2672 743 OFFCURVE",
"2575 744 QCURVE SMOOTH",
"2472 745 OFFCURVE",
"2323 590 OFFCURVE",
"2288 445 QCURVE SMOOTH"
);
}
);
width = 3012;
}
);
unicode = 2030;
},
{
glyphname = bar;
layers = (
{
layerId = "0C979A8A-491B-4450-B337-179908CF5A8F";
paths = (
{
closed = 1;
nodes = (
"106 -58 LINE",
"170 250 LINE",
"280 830 LINE",
"338 1138 LINE",
"393 1480 LINE",
"608 1550 LINE",
"516 1138 LINE",
"452 830 LINE",
"342 250 LINE",
"284 -58 LINE",
"216 -470 LINE",
"0 -540 LINE"
);
}
);
width = 642;
}
);
unicode = 007C;
},
{
glyphname = brokenbar;
layers = (
{
layerId = "0C979A8A-491B-4450-B337-179908CF5A8F";
paths = (
{
closed = 1;
nodes = (
"294 1012 LINE",
"310 1138 LINE",
"365 1480 LINE",
"588 1550 LINE",
"496 1138 LINE",
"466 1012 LINE",
"418 762 LINE",
"248 762 LINE"
);
},
{
closed = 1;
nodes = (
"78 -58 LINE",
"124 100 LINE",
"165 317 LINE",
"325 317 LINE",
"284 100 LINE",
"264 -58 LINE",
"196 -470 LINE",
"-28 -540 LINE"
);
}
);
width = 642;
}
);
unicode = 00A6;
},
{
glyphname = dagger;
layers = (
{
layerId = "0C979A8A-491B-4450-B337-179908CF5A8F";
paths = (
{
closed = 1;
nodes = (
"266 -58 LINE",
"387 550 LINE",
"434 830 LINE",
"499 1438 LINE",
"571 1503 LINE",
"681 1506 LINE",
"735 1438 LINE",
"594 830 LINE",
"547 550 LINE",
"472 -58 LINE",
"299 -540 LINE",
"279 -540 LINE"
);
},
{
closed = 1;
nodes = (
"110 1000 LINE",
"513 992 LINE",
"934 1000 LINE",
"934 842 LINE",
"513 846 LINE",
"110 842 LINE"
);
}
);
width = 1044;
}
);
unicode = 2020;
},
{
glyphname = daggerdbl;
layers = (
{
layerId = "0C979A8A-491B-4450-B337-179908CF5A8F";
paths = (
{
closed = 1;
nodes = (
"278 -58 LINE",
"419 550 LINE",
"466 830 LINE",
"531 1438 LINE",
"603 1503 LINE",
"693 1506 LINE",
"747 1438 LINE",
"606 830 LINE",
"559 550 LINE",
"484 -58 LINE",
"311 -540 LINE",
"291 -540 LINE"
);
},
{
closed = 1;
nodes = (
"124 1000 LINE",
"547 992 LINE",
"988 1000 LINE",
"988 842 LINE",
"547 846 LINE",
"124 842 LINE"
);
},
{
closed = 1;
nodes = (
"48 571 LINE",
"471 563 LINE",
"912 571 LINE",
"912 413 LINE",
"471 417 LINE",
"48 413 LINE"
);
}
);
width = 1044;
}
);
unicode = 2021;
},
{
glyphname = copyright;
layers = (
{
layerId = "0C979A8A-491B-4450-B337-179908CF5A8F";
paths = (
{
closed = 1;
nodes = (
"519 911 OFFCURVE",
"800 1219 OFFCURVE",
"1026 1219 QCURVE SMOOTH",
"1089 1219 OFFCURVE",
"1220 1176 OFFCURVE",
"1250 1152 QCURVE",
"1282 1206 LINE",
"1392 1194 LINE",
"1386 851 LINE",
"1268 824 LINE",
"1219 1029 LINE",
"1184 1048 OFFCURVE",
"1076 1078 OFFCURVE",
"1044 1078 QCURVE SMOOTH",
"894 1078 OFFCURVE",
"729 899 OFFCURVE",
"729 731 QCURVE SMOOTH",
"729 535 OFFCURVE",
"905 335 OFFCURVE",
"1050 335 QCURVE SMOOTH",
"1169 335 OFFCURVE",
"1334 424 OFFCURVE",
"1382 481 QCURVE",
"1470 380 LINE",
"1420 305 OFFCURVE",
"1197 175 OFFCURVE",
"998 175 QCURVE SMOOTH",
"804 175 OFFCURVE",
"519 440 OFFCURVE",
"519 676 QCURVE SMOOTH"
);
},
{
closed = 1;
nodes = (
"81 1071 OFFCURVE",
"602 1570 OFFCURVE",
"1026 1570 QCURVE SMOOTH",
"1448 1570 OFFCURVE",
"1957 1107 OFFCURVE",
"1957 706 QCURVE SMOOTH",
"1957 268 OFFCURVE",
"1455 -242 OFFCURVE",
"1036 -243 QCURVE",
"609 -242 OFFCURVE",
"81 256 OFFCURVE",
"81 685 QCURVE SMOOTH"
);
},
{
closed = 1;
nodes = (
"263 305 OFFCURVE",
"694 -91 OFFCURVE",
"1055 -91 QCURVE SMOOTH",
"1406 -91 OFFCURVE",
"1775 331 OFFCURVE",
"1775 699 QCURVE SMOOTH",
"1775 1037 OFFCURVE",
"1382 1419 OFFCURVE",
"1005 1419 QCURVE SMOOTH",
"648 1419 OFFCURVE",
"263 1018 OFFCURVE",
"263 682 QCURVE SMOOTH"
);
}
);
width = 2048;
}
);
unicode = 00A9;
},
{
glyphname = registered;
layers = (
{
layerId = "0C979A8A-491B-4450-B337-179908CF5A8F";
paths = (
{
closed = 1;
nodes = (
"71 1071 OFFCURVE",
"592 1570 OFFCURVE",
"1016 1570 QCURVE SMOOTH",
"1438 1570 OFFCURVE",
"1947 1107 OFFCURVE",
"1947 706 QCURVE SMOOTH",
"1947 268 OFFCURVE",
"1445 -242 OFFCURVE",
"1026 -243 QCURVE",
"599 -242 OFFCURVE",
"71 256 OFFCURVE",
"71 685 QCURVE SMOOTH"
);
},
{
closed = 1;
nodes = (
"253 305 OFFCURVE",
"684 -91 OFFCURVE",
"1045 -91 QCURVE SMOOTH",
"1396 -91 OFFCURVE",
"1765 331 OFFCURVE",
"1765 699 QCURVE SMOOTH",
"1765 1037 OFFCURVE",
"1372 1419 OFFCURVE",
"995 1419 QCURVE SMOOTH",
"638 1419 OFFCURVE",
"253 1018 OFFCURVE",
"253 682 QCURVE SMOOTH"
);
},
{
closed = 1;
nodes = (
"575 276 LINE",
"682 300 LINE",
"693 723 LINE",
"682 1078 LINE",
"565 1101 LINE",
"565 1209 LINE",
"1058 1209 LINE SMOOTH",
"1216 1209 OFFCURVE",
"1369 1082 OFFCURVE",
"1369 968 QCURVE SMOOTH",
"1369 841 OFFCURVE",
"1182 664 OFFCURVE",
"1056 664 QCURVE SMOOTH",
"1005 664 OFFCURVE",
"855 673 OFFCURVE",
"831 673 QCURVE",
"831 768 LINE",
"978 768 LINE SMOOTH",
"1097 768 OFFCURVE",
"1181 868 OFFCURVE",
"1181 959 QCURVE SMOOTH",
"1181 1039 OFFCURVE",
"1089 1098 OFFCURVE",
"986 1098 QCURVE SMOOTH",
"889 1098 LINE",
"868 1085 LINE",
"855 723 LINE",
"866 300 LINE",
"988 276 LINE",
"988 176 LINE",
"585 176 LINE"
);
},
{
closed = 1;
nodes = (
"1110 738 LINE",
"1360 393 LINE SMOOTH",
"1431 295 OFFCURVE",
"1506 276 OFFCURVE",
"1548 276 QCURVE",
"1548 176 LINE",
"1357 176 LINE",
"1305 190 LINE",
"929 710 LINE"
);
}
);
width = 2048;
}
);
unicode = 00AE;
},
{
glyphname = commercialMinusSign;
layers = (
{
layerId = "0C979A8A-491B-4450-B337-179908CF5A8F";
paths = (
{
closed = 1;
nodes = (
"679 1538 LINE",
"840 1485 LINE",
"271 -55 LINE",
"110 -2 LINE"
);
},
{
closed = 1;
nodes = (
"540 186 OFFCURVE",
"630 282 OFFCURVE",
"701 282 QCURVE SMOOTH",
"772 282 OFFCURVE",
"862 186 OFFCURVE",
"862 121 QCURVE SMOOTH",
"862 57 OFFCURVE",
"772 -39 OFFCURVE",
"701 -39 QCURVE SMOOTH",
"630 -39 OFFCURVE",
"540 57 OFFCURVE",
"540 121 QCURVE SMOOTH"
);
},
{
closed = 1;
nodes = (
"120 1439 OFFCURVE",
"210 1535 OFFCURVE",
"281 1535 QCURVE SMOOTH",
"352 1535 OFFCURVE",
"442 1439 OFFCURVE",
"442 1374 QCURVE SMOOTH",
"442 1310 OFFCURVE",
"352 1214 OFFCURVE",
"281 1214 QCURVE SMOOTH",
"210 1214 OFFCURVE",
"120 1310 OFFCURVE",
"120 1374 QCURVE SMOOTH"
);
}
);
width = 954;
}
);
unicode = 2052;
},
{
glyphname = trademark;
layers = (
{
layerId = "0C979A8A-491B-4450-B337-179908CF5A8F";
paths = (
{
closed = 1;
nodes = (
"161 1500 LINE",
"989 1500 LINE",
"935 1195 LINE",
"814 1195 LINE",
"834 1379 LINE",
"675 1379 LINE",
"642 1359 LINE",
"579 1077 LINE",
"543 840 LINE",
"666 804 LINE",
"651 700 LINE",
"216 700 LINE",
"231 804 LINE",
"367 840 LINE",
"420 1090 LINE",
"470 1359 LINE",
"435 1379 LINE",
"278 1379 LINE",
"228 1195 LINE",
"107 1195 LINE"
);
},
{
closed = 1;
nodes = (
"901 800 LINE",
"1025 835 LINE",
"1065 1056 LINE",
"1116 1358 LINE",
"1001 1362 LINE",
"1023 1500 LINE",
"1355 1500 LINE",
"1470 886 LINE",
"1807 1500 LINE",
"2132 1500 LINE",
"2110 1374 LINE",
"1996 1340 LINE",
"1944 1054 LINE",
"1908 833 LINE",
"2030 798 LINE",
"2011 700 LINE",
"1624 700 LINE",
"1643 798 LINE",
"1747 833 LINE",
"1787 1054 LINE",
"1834 1321 LINE",
"1486 692 LINE",
"1364 692 LINE",
"1238 1350 LINE",
"1184 1056 LINE",
"1148 835 LINE",
"1260 800 LINE",
"1242 702 LINE",
"883 702 LINE"
);
}
);
width = 2017;
}
);
unicode = 2122;
},
{
glyphname = degree;
layers = (
{
layerId = "0C979A8A-491B-4450-B337-179908CF5A8F";
paths = (
{
closed = 1;
nodes = (
"196 1386 OFFCURVE",
"395 1598 OFFCURVE",
"551 1598 QCURVE SMOOTH",
"707 1598 OFFCURVE",
"906 1386 OFFCURVE",
"906 1243 QCURVE SMOOTH",
"906 1103 OFFCURVE",
"707 890 OFFCURVE",
"551 890 QCURVE SMOOTH",
"395 890 OFFCURVE",
"196 1103 OFFCURVE",
"196 1243 QCURVE SMOOTH"
);
},
{
closed = 1;
nodes = (
"355 1167 OFFCURVE",
"466 1049 OFFCURVE",
"551 1049 QCURVE SMOOTH",
"637 1049 OFFCURVE",
"747 1167 OFFCURVE",
"747 1243 QCURVE SMOOTH",
"747 1323 OFFCURVE",
"637 1439 OFFCURVE",
"551 1439 QCURVE SMOOTH",
"466 1439 OFFCURVE",
"355 1323 OFFCURVE",
"355 1243 QCURVE SMOOTH"
);
}
);
width = 882;
}
);
unicode = 00B0;
},
{
glyphname = asterisk;
layers = (
{
layerId = "0C979A8A-491B-4450-B337-179908CF5A8F";
paths = (
{
closed = 1;
nodes = (
"385 585 OFFCURVE",
"342 683 OFFCURVE",
"376 737 QCURVE SMOOTH",
"545 1010 LINE",
"544 1014 LINE",
"258 854 LINE SMOOTH",
"213 827 OFFCURVE",
"106 863 OFFCURVE",
"90 929 QCURVE SMOOTH",
"73 993 OFFCURVE",
"154 1074 OFFCURVE",
"203 1071 QCURVE SMOOTH",
"528 1064 LINE",
"528 1070 LINE",
"251 1239 LINE SMOOTH",
"208 1262 OFFCURVE",
"183 1374 OFFCURVE",
"233 1420 QCURVE SMOOTH",
"281 1466 OFFCURVE",
"389 1440 OFFCURVE",
"414 1393 QCURVE SMOOTH",
"567 1108 LINE",
"574 1110 LINE",
"576 1429 LINE SMOOTH",
"577 1495 OFFCURVE",
"665 1555 OFFCURVE",
"724 1540 QCURVE SMOOTH",
"784 1520 OFFCURVE",
"825 1422 OFFCURVE",
"791 1368 QCURVE SMOOTH",
"623 1096 LINE",
"626 1089 LINE",
"903 1252 LINE SMOOTH",
"948 1279 OFFCURVE",
"1055 1245 OFFCURVE",
"1073 1177 QCURVE SMOOTH",
"1089 1114 OFFCURVE",
"1011 1033 OFFCURVE",
"959 1037 QCURVE SMOOTH",
"640 1042 LINE",
"639 1035 LINE",
"915 867 LINE SMOOTH",
"961 843 OFFCURVE",
"986 731 OFFCURVE",
"937 685 QCURVE SMOOTH",
"888 638 OFFCURVE",
"777 666 OFFCURVE",
"754 712 QCURVE SMOOTH",
"600 998 LINE",
"596 996 LINE",
"591 676 LINE SMOOTH",
"590 613 OFFCURVE",
"510 548 OFFCURVE",
"444 567 QCURVE SMOOTH"
);
}
);
width = 1065;
}
);
unicode = 002A;
},
{
glyphname = numbersign;
layers = (
{
layerId = "0C979A8A-491B-4450-B337-179908CF5A8F";
paths = (
{
closed = 1;
nodes = (
"50 578 LINE",
"1339 578 LINE",
"1289 396 LINE",
"0 396 LINE"
);
},
{
closed = 1;
nodes = (
"205 1077 LINE",
"1494 1077 LINE",
"1444 896 LINE",
"155 896 LINE"
);
},
{
closed = 1;
nodes = (
"727 1548 LINE",
"878 1509 LINE",
"287 -96 LINE",
"136 -57 LINE"
);
},
{
closed = 1;
nodes = (
"1216 1548 LINE",
"1366 1509 LINE",
"775 -96 LINE",
"625 -57 LINE"
);
}
);
width = 1452;
}
);
unicode = 0023;
},
{
glyphname = ampersand;
layers = (
{
layerId = "0C979A8A-491B-4450-B337-179908CF5A8F";
paths = (
{
closed = 1;
nodes = (
"838 121 LINE",
"762 51 OFFCURVE",
"539 -33 OFFCURVE",
"356 -33 QCURVE SMOOTH",
"164 -33 OFFCURVE",
"-59 235 OFFCURVE",
"-27 414 QCURVE SMOOTH",
"3 590 OFFCURVE",
"335 799 OFFCURVE",
"513 824 QCURVE",
"389 855 OFFCURVE",
"243 1085 OFFCURVE",
"280 1241 QCURVE SMOOTH",
"319 1406 OFFCURVE",
"609 1561 OFFCURVE",
"779 1561 QCURVE SMOOTH",
"889 1561 OFFCURVE",
"1036 1499 OFFCURVE",
"1058 1499 QCURVE SMOOTH",
"1075 1499 OFFCURVE",
"1104 1505 OFFCURVE",
"1141 1526 QCURVE",
"1204 1526 LINE",
"1115 1129 LINE",
"974 1129 LINE",
"997 1316 LINE",
"960 1344 OFFCURVE",
"841 1387 OFFCURVE",
"773 1387 QCURVE SMOOTH",
"655 1387 OFFCURVE",
"520 1297 OFFCURVE",
"498 1196 QCURVE SMOOTH",
"468 1060 OFFCURVE",
"663 850 OFFCURVE",
"901 850 QCURVE SMOOTH",
"1158 850 OFFCURVE",
"1398 891 OFFCURVE",
"1455 936 QCURVE",
"1527 870 LINE",
"1505 798 OFFCURVE",
"1387 692 OFFCURVE",
"1286 692 QCURVE SMOOTH",
"1194 692 OFFCURVE",
"798 712 OFFCURVE",
"723 712 QCURVE SMOOTH",
"509 712 OFFCURVE",
"257 579 OFFCURVE",
"225 424 QCURVE SMOOTH",
"196 282 OFFCURVE",
"318 129 OFFCURVE",
"448 129 QCURVE SMOOTH",
"616 129 OFFCURVE",
"841 270 OFFCURVE",
"907 455 QCURVE SMOOTH",
"1016 758 LINE",
"1235 733 LINE",
"1066 337 OFFCURVE",
"1013 147 OFFCURVE",
"1081 17 QCURVE",
"952 -35 LINE"
);
}
);
width = 1491;
}
);
unicode = 0026;
},
{
glyphname = at;
layers = (
{
layerId = "0C979A8A-491B-4450-B337-179908CF5A8F";
paths = (
{
closed = 1;
nodes = (
"483 788 OFFCURVE",
"878 1184 OFFCURVE",
"1109 1184 QCURVE SMOOTH",
"1126 1184 OFFCURVE",
"1160 1178 OFFCURVE",
"1175 1173 QCURVE",
"1274 1225 LINE",
"1335 1225 LINE",
"1395 1107 LINE",
"1276 635 LINE",
"1255 493 LINE",
"1263 474 OFFCURVE",
"1290 465 OFFCURVE",
"1325 465 QCURVE SMOOTH",
"1421 465 OFFCURVE",
"1578 646 OFFCURVE",
"1609 804 QCURVE SMOOTH",
"1659 1058 OFFCURVE",
"1364 1370 OFFCURVE",
"1054 1370 QCURVE SMOOTH",
"750 1370 OFFCURVE",
"345 1014 OFFCURVE",
"290 708 QCURVE SMOOTH",
"244 452 OFFCURVE",
"518 74 OFFCURVE",
"819 74 QCURVE SMOOTH",
"966 74 OFFCURVE",
"1181 122 OFFCURVE",
"1235 155 QCURVE",
"1291 23 LINE",
"1205 -25 OFFCURVE",
"951 -79 OFFCURVE",
"788 -79 QCURVE SMOOTH",
"432 -79 OFFCURVE",
"21 383 OFFCURVE",
"87 719 QCURVE SMOOTH",
"156 1063 OFFCURVE",
"727 1530 OFFCURVE",
"1090 1530 QCURVE SMOOTH",
"1467 1530 OFFCURVE",
"1865 1129 OFFCURVE",
"1805 797 QCURVE SMOOTH",
"1760 546 OFFCURVE",
"1431 317 OFFCURVE",
"1285 317 QCURVE SMOOTH",
"1202 317 OFFCURVE",
"1080 412 OFFCURVE",
"1070 475 QCURVE",
"992 395 OFFCURVE",
"782 319 OFFCURVE",
"678 319 QCURVE SMOOTH",
"582 319 OFFCURVE",
"483 444 OFFCURVE",
"483 536 QCURVE SMOOTH"
);
},
{
closed = 1;
nodes = (
"683 529 OFFCURVE",
"739 473 OFFCURVE",
"811 473 QCURVE SMOOTH",
"885 473 OFFCURVE",
"1107 630 OFFCURVE",
"1130 739 QCURVE SMOOTH",
"1179 967 LINE",
"1176 1001 OFFCURVE",
"1124 1039 OFFCURVE",
"1062 1039 QCURVE SMOOTH",
"907 1039 OFFCURVE",
"683 774 OFFCURVE",
"683 578 QCURVE SMOOTH"
);
}
);
width = 1863;
}
);
unicode = 0040;
},
{
glyphname = section;
layers = (
{
layerId = "0C979A8A-491B-4450-B337-179908CF5A8F";
paths = (
{
closed = 1;
nodes = (
"818 -84 OFFCURVE",
"576 -253 OFFCURVE",
"376 -253 QCURVE SMOOTH",
"188 -253 OFFCURVE",
"-54 -97 OFFCURVE",
"-54 2 QCURVE SMOOTH",
"-54 88 OFFCURVE",
"-12 192 OFFCURVE",
"20 226 QCURVE",
"136 211 LINE",
"117 178 OFFCURVE",
"105 125 OFFCURVE",
"108 54 QCURVE SMOOTH",
"110 -7 OFFCURVE",
"256 -104 OFFCURVE",
"385 -104 QCURVE SMOOTH",
"520 -104 OFFCURVE",
"645 5 OFFCURVE",
"662 109 QCURVE SMOOTH",
"679 214 OFFCURVE",
"535 324 OFFCURVE",
"406 381 QCURVE SMOOTH",
"257 447 OFFCURVE",
"80 663 OFFCURVE",
"110 823 QCURVE SMOOTH",
"126 907 OFFCURVE",
"237 1023 OFFCURVE",
"311 1058 QCURVE",
"276 1095 OFFCURVE",
"237 1196 OFFCURVE",
"256 1284 QCURVE SMOOTH",
"277 1384 OFFCURVE",
"489 1512 OFFCURVE",
"668 1512 QCURVE SMOOTH",
"791 1512 OFFCURVE",
"954 1411 OFFCURVE",
"954 1328 QCURVE SMOOTH",
"954 1283 OFFCURVE",
"911 1190 OFFCURVE",
"885 1169 QCURVE",
"748 1203 LINE",
"762 1230 OFFCURVE",
"777 1262 OFFCURVE",
"777 1301 QCURVE SMOOTH",
"777 1335 OFFCURVE",
"717 1363 OFFCURVE",
"635 1363 QCURVE SMOOTH",
"544 1363 OFFCURVE",
"448 1325 OFFCURVE",
"438 1266 QCURVE SMOOTH",
"427 1204 OFFCURVE",
"499 1141 OFFCURVE",
"648 1097 QCURVE SMOOTH",
"795 1054 OFFCURVE",
"970 896 OFFCURVE",
"944 751 QCURVE SMOOTH",
"927 652 OFFCURVE",
"766 516 OFFCURVE",
"657 485 QCURVE",
"760 430 OFFCURVE",
"890 226 OFFCURVE",
"860 97 QCURVE SMOOTH"
);
},
{
closed = 1;
nodes = (
"276 738 OFFCURVE",
"394 620 OFFCURVE",
"510 567 QCURVE",
"600 575 OFFCURVE",
"742 657 OFFCURVE",
"760 740 QCURVE SMOOTH",
"775 811 OFFCURVE",
"665 876 OFFCURVE",
"509 931 QCURVE SMOOTH",
"483 940 OFFCURVE",
"442 962 OFFCURVE",
"420 975 QCURVE",
"366 951 OFFCURVE",
"300 883 OFFCURVE",
"289 816 QCURVE SMOOTH"
);
}
);
width = 1088;
}
);
unicode = 00A7;
},
{
glyphname = paragraph;
layers = (
{
layerId = "0C979A8A-491B-4450-B337-179908CF5A8F";
paths = (
{
closed = 1;
nodes = (
"851 787 LINE",
"811 781 OFFCURVE",
"574 773 OFFCURVE",
"515 773 QCURVE SMOOTH",
"322 773 OFFCURVE",
"126 989 OFFCURVE",
"156 1155 QCURVE SMOOTH",
"186 1326 OFFCURVE",
"438 1500 OFFCURVE",
"630 1500 QCURVE SMOOTH",
"1327 1500 LINE",
"1302 1347 LINE",
"1097 1322 LINE",
"993 754 LINE",
"886 234 LINE",
"964 149 OFFCURVE",
"915 -15 OFFCURVE",
"831 -15 QCURVE SMOOTH",
"785 -15 OFFCURVE",
"721 64 OFFCURVE",
"733 132 QCURVE SMOOTH"
);
},
{
closed = 1;
nodes = (
"531 842 LINE",
"685 849 LINE",
"576 263 LINE SMOOTH",
"533 30 OFFCURVE",
"313 -283 OFFCURVE",
"164 -283 QCURVE SMOOTH",
"44 -283 OFFCURVE",
"-56 -184 OFFCURVE",
"-56 -117 QCURVE SMOOTH",
"-56 -57 OFFCURVE",
"22 29 OFFCURVE",
"67 40 QCURVE",
"143 -42 LINE",
"138 -74 LINE",
"124 -74 OFFCURVE",
"109 -86 OFFCURVE",
"109 -98 QCURVE SMOOTH",
"109 -109 OFFCURVE",
"131 -129 OFFCURVE",
"158 -129 QCURVE SMOOTH",
"219 -129 OFFCURVE",
"371 18 OFFCURVE",
"413 220 QCURVE SMOOTH"
);
}
);
width = 1247;
}
);
unicode = 00B6;
},
{
glyphname = numero;
layers = (
{
layerId = "0C979A8A-491B-4450-B337-179908CF5A8F";
paths = (
{
closed = 1;
nodes = (
"1478 365 OFFCURVE",
"1478 365 OFFCURVE",
"1888 345 QCURVE SMOOTH",
"2311 324 OFFCURVE",
"2311 324 OFFCURVE",
"2299 242 QCURVE SMOOTH",
"2288 172 OFFCURVE",
"2288 172 OFFCURVE",
"1875 187 QCURVE SMOOTH",
"1462 202 OFFCURVE",
"1462 202 OFFCURVE",
"1470 288 QCURVE SMOOTH"
);
},
{
closed = 1;
nodes = (
"-47 156 LINE",
"146 168 LINE",
"258 754 LINE",
"365 1324 LINE",
"169 1335 LINE",
"202 1500 LINE",
"641 1500 LINE",
"859 809 LINE",
"1027 268 LINE",
"1125 773 LINE",
"1229 1316 LINE",
"1028 1340 LINE",
"1053 1500 LINE",
"1616 1500 LINE",
"1592 1339 LINE",
"1398 1315 LINE",
"1287 754 LINE",
"1137 0 LINE",
"902 0 LINE",
"679 734 LINE",
"509 1256 LINE",
"423 754 LINE",
"315 171 LINE",
"512 153 LINE",
"486 0 LINE",
"-70 0 LINE"
);
},
{
closed = 1;
nodes = (
"1594 1240 OFFCURVE",
"1900 1524 OFFCURVE",
"2101 1510 QCURVE SMOOTH",
"2302 1496 OFFCURVE",
"2487 1197 OFFCURVE",
"2438 969 QCURVE SMOOTH",
"2393 755 OFFCURVE",
"2088 464 OFFCURVE",
"1886 478 QCURVE SMOOTH",
"1685 492 OFFCURVE",
"1499 795 OFFCURVE",
"1548 1026 QCURVE SMOOTH"
);
},
{
closed = 1;
nodes = (
"1724 853 OFFCURVE",
"1771 637 OFFCURVE",
"1902 627 QCURVE SMOOTH",
"2043 618 OFFCURVE",
"2190 795 OFFCURVE",
"2229 982 QCURVE SMOOTH",
"2266 1154 OFFCURVE",
"2207 1356 OFFCURVE",
"2076 1365 QCURVE SMOOTH",
"1934 1375 OFFCURVE",
"1797 1209 OFFCURVE",
"1761 1031 QCURVE SMOOTH"
);
}
);
width = 2408;
}
);
unicode = 2116;
},
{
glyphname = asciicircum;
layers = (
{
layerId = "0C979A8A-491B-4450-B337-179908CF5A8F";
paths = (
{
closed = 1;
nodes = (
"223 988 OFFCURVE",
"789 1524 OFFCURVE",
"789 1524 QCURVE",
"789 1524 OFFCURVE",
"1187 989 OFFCURVE",
"1229 927 QCURVE",
"1116 819 LINE",
"1004 943 OFFCURVE",
"747 1234 OFFCURVE",
"747 1234 QCURVE SMOOTH",
"747 1234 OFFCURVE",
"399 928 OFFCURVE",
"255 801 QCURVE",
"157 926 LINE"
);
}
);
width = 1317;
}
);
unicode = 005E;
},
{
glyphname = asciitilde;
layers = (
{
layerId = "0C979A8A-491B-4450-B337-179908CF5A8F";
paths = (
{
closed = 1;
nodes = (
"86 694 OFFCURVE",
"293 818 OFFCURVE",
"381 818 QCURVE",
"718 692 LINE",
"778 692 OFFCURVE",
"883 768 OFFCURVE",
"926 822 QCURVE",
"1025 761 LINE",
"955 657 OFFCURVE",
"783 516 OFFCURVE",
"651 516 QCURVE",
"335 630 LINE",
"274 630 OFFCURVE",
"147 576 OFFCURVE",
"80 524 QCURVE",
"6 601 LINE"
);
}
);
width = 1024;
}
);
unicode = 007E;
},
{
glyphname = grave;
layers = (
{
layerId = "0C979A8A-491B-4450-B337-179908CF5A8F";
paths = (
{
closed = 1;
nodes = (
"801 1141 LINE",
"876 1212 LINE",
"686 1459 LINE SMOOTH",
"660 1493 OFFCURVE",
"604 1548 OFFCURVE",
"566 1548 QCURVE SMOOTH",
"525 1548 OFFCURVE",
"475 1497 OFFCURVE",
"475 1461 QCURVE SMOOTH",
"475 1427 OFFCURVE",
"511 1381 OFFCURVE",
"544 1354 QCURVE SMOOTH"
);
}
);
width = 1024;
}
);
unicode = 0060;
},
{
glyphname = acute;
layers = (
{
layerId = "0C979A8A-491B-4450-B337-179908CF5A8F";
paths = (
{
closed = 1;
nodes = (
"500 1141 LINE",
"823 1319 LINE SMOOTH",
"872 1346 OFFCURVE",
"943 1409 OFFCURVE",
"943 1449 QCURVE SMOOTH",
"943 1489 OFFCURVE",
"893 1543 OFFCURVE",
"853 1543 QCURVE SMOOTH",
"813 1543 OFFCURVE",
"745 1497 OFFCURVE",
"701 1459 QCURVE SMOOTH",
"435 1227 LINE"
);
}
);
width = 1024;
}
);
unicode = 00B4;
},
{
glyphname = circumflex;
layers = (
{
layerId = "0C979A8A-491B-4450-B337-179908CF5A8F";
paths = (
{
closed = 1;
nodes = (
"759 1530 OFFCURVE",
"797 1499 OFFCURVE",
"820 1457 QCURVE SMOOTH",
"972 1214 LINE",
"884 1141 LINE",
"694 1356 LINE",
"414 1141 LINE",
"346 1214 LINE",
"600 1457 LINE SMOOTH",
"651 1506 OFFCURVE",
"691 1530 OFFCURVE",
"725 1530 QCURVE SMOOTH"
);
}
);
width = 1024;
}
);
unicode = 02C6;
},
{
glyphname = tilde;
layers = (
{
layerId = "0C979A8A-491B-4450-B337-179908CF5A8F";
paths = (
{
closed = 1;
nodes = (
"328 1356 OFFCURVE",
"490 1461 OFFCURVE",
"561 1461 QCURVE SMOOTH",
"604 1461 OFFCURVE",
"675 1434 OFFCURVE",
"709 1408 QCURVE SMOOTH",
"733 1391 OFFCURVE",
"811 1338 OFFCURVE",
"854 1338 QCURVE SMOOTH",
"896 1338 OFFCURVE",
"986 1391 OFFCURVE",
"1018 1428 QCURVE",
"1086 1349 LINE",
"1031 1273 OFFCURVE",
"884 1185 OFFCURVE",
"826 1185 QCURVE SMOOTH",
"776 1185 OFFCURVE",
"685 1235 OFFCURVE",
"660 1255 QCURVE SMOOTH",
"631 1278 OFFCURVE",
"563 1314 OFFCURVE",
"533 1314 QCURVE SMOOTH",
"483 1314 OFFCURVE",
"378 1242 OFFCURVE",
"353 1214 QCURVE",
"280 1293 LINE"
);
}
);
width = 1024;
}
);
unicode = 02DC;
},
{
glyphname = macron;
layers = (
{
layerId = "0C979A8A-491B-4450-B337-179908CF5A8F";
paths = (
{
closed = 1;
nodes = (
"384 1369 LINE",
"976 1369 LINE",
"947 1232 LINE",
"355 1232 LINE"
);
}
);
width = 1024;
}
);
unicode = 00AF;
},
{
glyphname = breve;
layers = (
{
layerId = "0C979A8A-491B-4450-B337-179908CF5A8F";
paths = (
{
closed = 1;
nodes = (
"1058 1452 LINE",
"1016 1354 OFFCURVE",
"786 1185 OFFCURVE",
"656 1185 QCURVE SMOOTH",
"526 1185 OFFCURVE",
"352 1339 OFFCURVE",
"349 1449 QCURVE",
"433 1506 LINE",
"452 1444 OFFCURVE",
"576 1341 OFFCURVE",
"672 1341 QCURVE SMOOTH",
"774 1341 OFFCURVE",
"942 1452 OFFCURVE",
"981 1505 QCURVE"
);
}
);
width = 1024;
}
);
unicode = 02D8;
},
{
glyphname = dotaccent;
layers = (
{
layerId = "0C979A8A-491B-4450-B337-179908CF5A8F";
paths = (
{
closed = 1;
nodes = (
"550 1360 OFFCURVE",
"612 1421 OFFCURVE",
"671 1421 QCURVE SMOOTH",
"726 1421 OFFCURVE",
"792 1356 OFFCURVE",
"792 1303 QCURVE SMOOTH",
"792 1246 OFFCURVE",
"730 1185 OFFCURVE",
"671 1185 QCURVE SMOOTH",
"616 1185 OFFCURVE",
"550 1250 OFFCURVE",
"550 1303 QCURVE SMOOTH"
);
}
);
width = 1024;
}
);
unicode = 02D9;
},
{
glyphname = dieresis;
layers = (
{
layerId = "0C979A8A-491B-4450-B337-179908CF5A8F";
paths = (
{
closed = 1;
nodes = (
"783 1353 OFFCURVE",
"843 1412 OFFCURVE",
"899 1412 QCURVE SMOOTH",
"952 1412 OFFCURVE",
"1015 1349 OFFCURVE",
"1015 1298 QCURVE SMOOTH",
"1015 1244 OFFCURVE",
"956 1185 OFFCURVE",
"899 1185 QCURVE SMOOTH",
"846 1185 OFFCURVE",
"783 1247 OFFCURVE",
"783 1298 QCURVE SMOOTH"
);
},
{
closed = 1;
nodes = (
"323 1353 OFFCURVE",
"383 1412 OFFCURVE",
"439 1412 QCURVE SMOOTH",
"492 1412 OFFCURVE",
"555 1349 OFFCURVE",
"555 1298 QCURVE SMOOTH",
"555 1244 OFFCURVE",
"496 1185 OFFCURVE",
"439 1185 QCURVE SMOOTH",
"386 1185 OFFCURVE",
"323 1247 OFFCURVE",
"323 1298 QCURVE SMOOTH"
);
}
);
width = 1024;
}
);
unicode = 00A8;
},
{
glyphname = hookabove;
layers = (
{
layerId = "0C979A8A-491B-4450-B337-179908CF5A8F";
paths = (
{
closed = 1;
nodes = (
"575 1141 LINE",
"701 1141 LINE",
"724 1259 LINE",
"739 1255 OFFCURVE",
"795 1246 OFFCURVE",
"825 1246 QCURVE SMOOTH",
"920 1246 OFFCURVE",
"1052 1384 OFFCURVE",
"1052 1494 QCURVE SMOOTH",
"1052 1574 OFFCURVE",
"932 1673 OFFCURVE",
"810 1673 QCURVE SMOOTH",
"748 1673 OFFCURVE",
"590 1642 OFFCURVE",
"534 1617 QCURVE",
"564 1508 LINE",
"603 1525 OFFCURVE",
"716 1549 OFFCURVE",
"773 1549 QCURVE SMOOTH",
"830 1549 OFFCURVE",
"890 1512 OFFCURVE",
"890 1474 QCURVE SMOOTH",
"890 1418 OFFCURVE",
"828 1363 OFFCURVE",
"776 1363 QCURVE SMOOTH",
"755 1363 OFFCURVE",
"707 1370 OFFCURVE",
"692 1377 QCURVE",
"602 1282 LINE"
);
}
);
width = 1024;
}
);
},
{
glyphname = ring;
layers = (
{
layerId = "0C979A8A-491B-4450-B337-179908CF5A8F";
paths = (
{
closed = 1;
nodes = (
"461 1469 OFFCURVE",
"583 1586 OFFCURVE",
"678 1586 QCURVE SMOOTH",
"773 1586 OFFCURVE",
"895 1469 OFFCURVE",
"895 1378 QCURVE SMOOTH",
"895 1287 OFFCURVE",
"773 1170 OFFCURVE",
"678 1170 QCURVE SMOOTH",
"583 1170 OFFCURVE",
"461 1287 OFFCURVE",
"461 1378 QCURVE SMOOTH"
);
},
{
closed = 1;
nodes = (
"575 1332 OFFCURVE",
"631 1275 OFFCURVE",
"678 1275 QCURVE SMOOTH",
"728 1275 OFFCURVE",
"781 1328 OFFCURVE",
"781 1378 QCURVE SMOOTH",
"781 1424 OFFCURVE",
"725 1481 OFFCURVE",
"678 1481 QCURVE SMOOTH",
"628 1481 OFFCURVE",
"575 1428 OFFCURVE",
"575 1378 QCURVE SMOOTH"
);
}
);
width = 1024;
}
);
unicode = 02DA;
},
{
glyphname = hungarumlaut;
layers = (
{
layerId = "0C979A8A-491B-4450-B337-179908CF5A8F";
paths = (
{
closed = 1;
nodes = (
"399 1139 LINE",
"681 1335 LINE SMOOTH",
"726 1366 OFFCURVE",
"793 1427 OFFCURVE",
"793 1463 QCURVE SMOOTH",
"793 1499 OFFCURVE",
"745 1541 OFFCURVE",
"709 1541 QCURVE SMOOTH",
"673 1541 OFFCURVE",
"611 1497 OFFCURVE",
"571 1457 QCURVE SMOOTH",
"333 1223 LINE"
);
},
{
closed = 1;
nodes = (
"789 1139 LINE",
"1071 1335 LINE SMOOTH",
"1116 1366 OFFCURVE",
"1183 1427 OFFCURVE",
"1183 1463 QCURVE SMOOTH",
"1183 1499 OFFCURVE",
"1135 1541 OFFCURVE",
"1099 1541 QCURVE SMOOTH",
"1063 1541 OFFCURVE",
"1001 1497 OFFCURVE",
"961 1457 QCURVE SMOOTH",
"723 1223 LINE"
);
}
);
width = 1024;
}
);
unicode = 02DD;
},
{
glyphname = caron;
layers = (
{
layerId = "0C979A8A-491B-4450-B337-179908CF5A8F";
paths = (
{
closed = 1;
nodes = (
"616 1185 OFFCURVE",
"578 1216 OFFCURVE",
"556 1258 QCURVE SMOOTH",
"404 1501 LINE",
"485 1574 LINE",
"675 1359 LINE",
"955 1574 LINE",
"1030 1501 LINE",
"776 1258 LINE SMOOTH",
"724 1209 OFFCURVE",
"684 1185 OFFCURVE",
"650 1185 QCURVE SMOOTH"
);
}
);
width = 1024;
}
);
unicode = 02C7;
},
{
glyphname = dblgrave;
layers = (
{
layerId = "0C979A8A-491B-4450-B337-179908CF5A8F";
paths = (
{
closed = 1;
nodes = (
"274 1492 OFFCURVE",
"328 1542 OFFCURVE",
"364 1542 QCURVE SMOOTH",
"400 1542 OFFCURVE",
"461 1483 OFFCURVE",
"493 1443 QCURVE SMOOTH",
"675 1218 LINE",
"598 1140 LINE",
"363 1336 LINE SMOOTH",
"324 1368 OFFCURVE",
"274 1420 OFFCURVE",
"274 1456 QCURVE SMOOTH"
);
},
{
closed = 1;
nodes = (
"664 1492 OFFCURVE",
"718 1542 OFFCURVE",
"754 1542 QCURVE SMOOTH",
"790 1542 OFFCURVE",
"851 1483 OFFCURVE",
"883 1443 QCURVE SMOOTH",
"1065 1218 LINE",
"988 1140 LINE",
"753 1336 LINE SMOOTH",
"714 1368 OFFCURVE",
"664 1420 OFFCURVE",
"664 1456 QCURVE SMOOTH"
);
}
);
width = 1024;
}
);
},
{
glyphname = breveinverted;
layers = (
{
layerId = "0C979A8A-491B-4450-B337-179908CF5A8F";
paths = (
{
closed = 1;
nodes = (
"313 1240 LINE",
"355 1338 OFFCURVE",
"585 1507 OFFCURVE",
"715 1507 QCURVE SMOOTH",
"845 1507 OFFCURVE",
"1019 1353 OFFCURVE",
"1022 1243 QCURVE",
"938 1186 LINE",
"919 1248 OFFCURVE",
"795 1351 OFFCURVE",
"699 1351 QCURVE SMOOTH",
"597 1351 OFFCURVE",
"429 1240 OFFCURVE",
"390 1187 QCURVE"
);
}
);
width = 1024;
}
);
},
{
glyphname = commaturnedabove;
layers = (
{
layerId = "0C979A8A-491B-4450-B337-179908CF5A8F";
paths = (
{
closed = 1;
nodes = (
"792 1625 OFFCURVE",
"678 1507 OFFCURVE",
"658 1449 QCURVE",
"726 1449 OFFCURVE",
"802 1377 OFFCURVE",
"802 1321 QCURVE SMOOTH",
"802 1266 OFFCURVE",
"717 1185 OFFCURVE",
"657 1185 QCURVE SMOOTH",
"601 1185 OFFCURVE",
"515 1274 OFFCURVE",
"515 1354 QCURVE SMOOTH",
"515 1453 OFFCURVE",
"686 1659 OFFCURVE",
"784 1718 QCURVE",
"835 1656 LINE"
);
}
);
width = 1024;
}
);
},
{
glyphname = horn;
layers = (
{
layerId = "0C979A8A-491B-4450-B337-179908CF5A8F";
paths = (
{
closed = 1;
nodes = (
"135 999 OFFCURVE",
"211 988 OFFCURVE",
"251 988 QCURVE SMOOTH",
"299 988 OFFCURVE",
"363 1037 OFFCURVE",
"374 1079 QCURVE SMOOTH",
"385 1121 OFFCURVE",
"392 1210 OFFCURVE",
"396 1279 QCURVE",
"537 1279 LINE",
"545 1244 OFFCURVE",
"557 1169 OFFCURVE",
"557 1129 QCURVE SMOOTH",
"557 989 OFFCURVE",
"403 853 OFFCURVE",
"267 853 QCURVE SMOOTH",
"227 853 OFFCURVE",
"124 871 OFFCURVE",
"74 891 QCURVE",
"97 1009 LINE"
);
}
);
width = 1024;
}
);
},
{
glyphname = dotbelow;
layers = (
{
layerId = "0C979A8A-491B-4450-B337-179908CF5A8F";
paths = (
{
closed = 1;
nodes = (
"262 -210 OFFCURVE",
"324 -159 OFFCURVE",
"383 -159 QCURVE SMOOTH",
"438 -159 OFFCURVE",
"504 -224 OFFCURVE",
"504 -277 QCURVE SMOOTH",
"504 -334 OFFCURVE",
"442 -385 OFFCURVE",
"383 -385 QCURVE SMOOTH",
"328 -385 OFFCURVE",
"262 -320 OFFCURVE",
"262 -267 QCURVE SMOOTH"
);
}
);
width = 1024;
}
);
},
{
glyphname = cedilla;
layers = (
{
layerId = "0C979A8A-491B-4450-B337-179908CF5A8F";
paths = (
{
closed = 1;
nodes = (
"402 -139 LINE",
"419 -135 OFFCURVE",
"469 -126 OFFCURVE",
"499 -126 QCURVE SMOOTH",
"579 -126 OFFCURVE",
"672 -234 OFFCURVE",
"653 -325 QCURVE SMOOTH",
"634 -416 OFFCURVE",
"479 -536 OFFCURVE",
"369 -536 QCURVE SMOOTH",
"289 -536 OFFCURVE",
"139 -490 OFFCURVE",
"87 -450 QCURVE",
"152 -341 LINE",
"179 -364 OFFCURVE",
"293 -412 OFFCURVE",
"351 -412 QCURVE SMOOTH",
"409 -412 OFFCURVE",
"483 -366 OFFCURVE",
"493 -316 QCURVE SMOOTH",
"503 -266 OFFCURVE",
"453 -226 OFFCURVE",
"401 -226 QCURVE SMOOTH",
"370 -226 OFFCURVE",
"319 -234 OFFCURVE",
"301 -240 QCURVE",
"249 -160 LINE",
"403 51 LINE",
"496 -4 LINE"
);
}
);
width = 1024;
}
);
unicode = 00B8;
},
{
glyphname = ogonek;
layers = (
{
layerId = "0C979A8A-491B-4450-B337-179908CF5A8F";
paths = (
{
closed = 1;
nodes = (
"298 -292 OFFCURVE",
"347 -347 OFFCURVE",
"398 -347 QCURVE SMOOTH",
"450 -347 OFFCURVE",
"587 -301 OFFCURVE",
"659 -254 QCURVE",
"694 -357 LINE",
"628 -418 OFFCURVE",
"450 -497 OFFCURVE",
"350 -497 QCURVE SMOOTH",
"250 -497 OFFCURVE",
"133 -389 OFFCURVE",
"133 -306 QCURVE SMOOTH",
"133 -223 OFFCURVE",
"285 -45 OFFCURVE",
"368 8 QCURVE SMOOTH",
"435 51 LINE",
"529 0 LINE",
"477 -42 LINE SMOOTH",
"400 -104 OFFCURVE",
"317 -199 OFFCURVE",
"308 -244 QCURVE SMOOTH"
);
}
);
width = 1024;
}
);
unicode = 02DB;
},
{
glyphname = brevebelow;
layers = (
{
layerId = "0C979A8A-491B-4450-B337-179908CF5A8F";
paths = (
{
closed = 1;
nodes = (
"755 -128 LINE",
"713 -226 OFFCURVE",
"483 -395 OFFCURVE",
"353 -395 QCURVE SMOOTH",
"223 -395 OFFCURVE",
"49 -241 OFFCURVE",
"46 -131 QCURVE",
"130 -74 LINE",
"149 -136 OFFCURVE",
"273 -239 OFFCURVE",
"369 -239 QCURVE SMOOTH",
"471 -239 OFFCURVE",
"639 -128 OFFCURVE",
"678 -75 QCURVE"
);
}
);
width = 1024;
}
);
},
{
glyphname = commaaccent;
layers = (
{
layerId = "0C979A8A-491B-4450-B337-179908CF5A8F";
paths = (
{
closed = 1;
nodes = (
"251 -588 OFFCURVE",
"365 -470 OFFCURVE",
"385 -412 QCURVE",
"317 -412 OFFCURVE",
"241 -340 OFFCURVE",
"241 -284 QCURVE SMOOTH",
"241 -229 OFFCURVE",
"326 -148 OFFCURVE",
"386 -148 QCURVE SMOOTH",
"442 -148 OFFCURVE",
"528 -247 OFFCURVE",
"528 -327 QCURVE SMOOTH",
"528 -426 OFFCURVE",
"357 -622 OFFCURVE",
"259 -681 QCURVE",
"208 -619 LINE"
);
}
);
width = 1024;
}
);
},
{
glyphname = macronbelow;
layers = (
{
layerId = "0C979A8A-491B-4450-B337-179908CF5A8F";
paths = (
{
closed = 1;
nodes = (
"121 -177 LINE",
"713 -177 LINE",
"684 -314 LINE",
"92 -314 LINE"
);
}
);
width = 1024;
}
);
},
{
glyphname = circumflex_acute;
layers = (
{
layerId = "0C979A8A-491B-4450-B337-179908CF5A8F";
paths = (
{
closed = 1;
nodes = (
"418 1140 LINE",
"698 1355 LINE",
"888 1140 LINE",
"976 1213 LINE",
"824 1456 LINE SMOOTH",
"801 1498 OFFCURVE",
"763 1529 OFFCURVE",
"729 1529 QCURVE SMOOTH",
"695 1529 OFFCURVE",
"655 1505 OFFCURVE",
"604 1456 QCURVE SMOOTH",
"350 1213 LINE"
);
},
{
closed = 1;
nodes = (
"543 1521 LINE",
"890 1671 LINE SMOOTH",
"951 1697 OFFCURVE",
"1016 1746 OFFCURVE",
"1016 1782 QCURVE SMOOTH",
"1016 1815 OFFCURVE",
"973 1864 OFFCURVE",
"925 1864 QCURVE SMOOTH",
"893 1864 OFFCURVE",
"801 1814 OFFCURVE",
"763 1788 QCURVE SMOOTH",
"495 1604 LINE"
);
}
);
width = 1024;
}
);
},
{
glyphname = circumflex_grave;
layers = (
{
layerId = "0C979A8A-491B-4450-B337-179908CF5A8F";
paths = (
{
closed = 1;
nodes = (
"411 1143 LINE",
"691 1358 LINE",
"881 1143 LINE",
"969 1216 LINE",
"817 1459 LINE SMOOTH",
"794 1501 OFFCURVE",
"756 1532 OFFCURVE",
"722 1532 QCURVE SMOOTH",
"688 1532 OFFCURVE",
"648 1508 OFFCURVE",
"597 1459 QCURVE SMOOTH",
"343 1216 LINE"
);
},
{
closed = 1;
nodes = (
"909 1522 LINE",
"973 1600 LINE",
"781 1777 LINE SMOOTH",
"751 1805 OFFCURVE",
"677 1866 OFFCURVE",
"632 1866 QCURVE SMOOTH",
"585 1866 OFFCURVE",
"533 1814 OFFCURVE",
"533 1784 QCURVE",
"533 1749 OFFCURVE",
"578 1699 OFFCURVE",
"618 1678 QCURVE SMOOTH"
);
}
);
width = 1024;
}
);
},
{
glyphname = circumflex_hookabove;
layers = (
{
layerId = "0C979A8A-491B-4450-B337-179908CF5A8F";
paths = (
{
closed = 1;
nodes = (
"751 1527 OFFCURVE",
"789 1496 OFFCURVE",
"812 1454 QCURVE SMOOTH",
"964 1211 LINE",
"876 1138 LINE",
"686 1353 LINE",
"406 1138 LINE",
"338 1211 LINE",
"592 1454 LINE SMOOTH",
"643 1503 OFFCURVE",
"683 1527 OFFCURVE",
"717 1527 QCURVE SMOOTH"
);
},
{
closed = 1;
nodes = (
"1008 1145 LINE",
"1098 1240 LINE",
"1113 1233 OFFCURVE",
"1161 1226 OFFCURVE",
"1182 1226 QCURVE SMOOTH",
"1234 1226 OFFCURVE",
"1296 1281 OFFCURVE",
"1296 1337 QCURVE SMOOTH",
"1296 1375 OFFCURVE",
"1236 1412 OFFCURVE",
"1179 1412 QCURVE SMOOTH",
"1122 1412 OFFCURVE",
"1009 1388 OFFCURVE",
"970 1371 QCURVE",
"940 1480 LINE",
"996 1505 OFFCURVE",
"1154 1536 OFFCURVE",
"1216 1536 QCURVE SMOOTH",
"1338 1536 OFFCURVE",
"1458 1437 OFFCURVE",
"1458 1357 QCURVE SMOOTH",
"1458 1247 OFFCURVE",
"1326 1109 OFFCURVE",
"1231 1109 QCURVE SMOOTH",
"1201 1109 OFFCURVE",
"1145 1118 OFFCURVE",
"1130 1122 QCURVE",
"1107 1004 LINE",
"981 1004 LINE"
);
}
);
width = 1024;
}
);
},
{
glyphname = circumflex_tilde;
layers = (
{
layerId = "0C979A8A-491B-4450-B337-179908CF5A8F";
paths = (
{
closed = 1;
nodes = (
"746 1612 OFFCURVE",
"836 1567 OFFCURVE",
"886 1567 QCURVE SMOOTH",
"944 1567 OFFCURVE",
"1089 1649 OFFCURVE",
"1126 1702 QCURVE",
"1077 1781 LINE",
"1063 1767 OFFCURVE",
"973 1714 OFFCURVE",
"931 1714 QCURVE SMOOTH",
"888 1714 OFFCURVE",
"808 1766 OFFCURVE",
"783 1783 QCURVE SMOOTH",
"749 1809 OFFCURVE",
"679 1837 OFFCURVE",
"636 1837 QCURVE SMOOTH",
"565 1837 OFFCURVE",
"405 1732 OFFCURVE",
"371 1689 QCURVE",
"425 1610 LINE",
"437 1618 OFFCURVE",
"541 1690 OFFCURVE",
"591 1690 QCURVE SMOOTH",
"621 1690 OFFCURVE",
"691 1655 OFFCURVE",
"720 1632 QCURVE SMOOTH"
);
},
{
closed = 1;
nodes = (
"405 1142 LINE",
"685 1357 LINE",
"875 1142 LINE",
"963 1215 LINE",
"811 1458 LINE SMOOTH",
"788 1500 OFFCURVE",
"750 1531 OFFCURVE",
"716 1531 QCURVE SMOOTH",
"682 1531 OFFCURVE",
"642 1507 OFFCURVE",
"591 1458 QCURVE SMOOTH",
"337 1215 LINE"
);
}
);
width = 1024;
}
);
},
{
glyphname = breve_acute;
layers = (
{
layerId = "0C979A8A-491B-4450-B337-179908CF5A8F";
paths = (
{
closed = 1;
nodes = (
"349 1339 OFFCURVE",
"523 1185 OFFCURVE",
"653 1185 QCURVE SMOOTH",
"783 1185 OFFCURVE",
"1013 1354 OFFCURVE",
"1055 1452 QCURVE",
"978 1505 LINE",
"939 1452 OFFCURVE",
"771 1341 OFFCURVE",
"669 1341 QCURVE SMOOTH",
"573 1341 OFFCURVE",
"449 1444 OFFCURVE",
"430 1506 QCURVE",
"346 1449 LINE"
);
},
{
closed = 1;
nodes = (
"530 1527 LINE",
"877 1677 LINE SMOOTH",
"938 1703 OFFCURVE",
"1003 1752 OFFCURVE",
"1003 1788 QCURVE SMOOTH",
"1003 1821 OFFCURVE",
"960 1870 OFFCURVE",
"912 1870 QCURVE SMOOTH",
"880 1870 OFFCURVE",
"788 1820 OFFCURVE",
"750 1794 QCURVE SMOOTH",
"482 1610 LINE"
);
}
);
width = 1024;
}
);
},
{
glyphname = breve_grave;
layers = (
{
layerId = "0C979A8A-491B-4450-B337-179908CF5A8F";
paths = (
{
closed = 1;
nodes = (
"353 1339 OFFCURVE",
"527 1185 OFFCURVE",
"657 1185 QCURVE SMOOTH",
"787 1185 OFFCURVE",
"1017 1354 OFFCURVE",
"1059 1452 QCURVE",
"982 1505 LINE",
"943 1452 OFFCURVE",
"775 1341 OFFCURVE",
"673 1341 QCURVE SMOOTH",
"577 1341 OFFCURVE",
"453 1444 OFFCURVE",
"434 1506 QCURVE",
"350 1449 LINE"
);
},
{
closed = 1;
nodes = (
"911 1525 LINE",
"975 1603 LINE",
"783 1780 LINE SMOOTH",
"753 1808 OFFCURVE",
"679 1869 OFFCURVE",
"634 1869 QCURVE SMOOTH",
"587 1869 OFFCURVE",
"535 1817 OFFCURVE",
"535 1787 QCURVE",
"535 1752 OFFCURVE",
"580 1702 OFFCURVE",
"620 1681 QCURVE SMOOTH"
);
}
);
width = 1024;
}
);
},
{
glyphname = breve_hookabove;
layers = (
{
layerId = "0C979A8A-491B-4450-B337-179908CF5A8F";
paths = (
{
closed = 1;
nodes = (
"687 1440 LINE",
"708 1520 LINE",
"723 1517 OFFCURVE",
"776 1509 OFFCURVE",
"805 1509 QCURVE SMOOTH",
"896 1509 OFFCURVE",
"1023 1610 OFFCURVE",
"1023 1710 QCURVE SMOOTH",
"1023 1797 OFFCURVE",
"902 1885 OFFCURVE",
"791 1885 QCURVE SMOOTH",
"732 1885 OFFCURVE",
"580 1859 OFFCURVE",
"527 1838 QCURVE",
"557 1725 LINE",
"593 1739 OFFCURVE",
"702 1759 OFFCURVE",
"757 1759 QCURVE SMOOTH",
"800 1759 OFFCURVE",
"868 1731 OFFCURVE",
"868 1698 QCURVE",
"868 1655 OFFCURVE",
"808 1621 OFFCURVE",
"760 1621 QCURVE SMOOTH",
"739 1621 OFFCURVE",
"681 1628 OFFCURVE",
"666 1634 QCURVE",
"591 1558 LINE",
"568 1440 LINE"
);
},
{
closed = 1;
nodes = (
"344 1339 OFFCURVE",
"518 1185 OFFCURVE",
"648 1185 QCURVE SMOOTH",
"778 1185 OFFCURVE",
"1008 1354 OFFCURVE",
"1050 1452 QCURVE",
"973 1505 LINE",
"934 1452 OFFCURVE",
"766 1341 OFFCURVE",
"664 1341 QCURVE SMOOTH",
"568 1341 OFFCURVE",
"444 1444 OFFCURVE",
"425 1506 QCURVE",
"341 1449 LINE"
);
}
);
width = 1024;
}
);
},
{
glyphname = breve_tilde;
layers = (
{
layerId = "0C979A8A-491B-4450-B337-179908CF5A8F";
paths = (
{
closed = 1;
nodes = (
"752 1590 OFFCURVE",
"842 1542 OFFCURVE",
"892 1542 QCURVE SMOOTH",
"950 1542 OFFCURVE",
"1096 1629 OFFCURVE",
"1151 1709 QCURVE",
"1083 1792 LINE",
"1051 1753 OFFCURVE",
"961 1697 OFFCURVE",
"919 1697 QCURVE SMOOTH",
"876 1697 OFFCURVE",
"796 1752 OFFCURVE",
"772 1770 QCURVE SMOOTH",
"738 1797 OFFCURVE",
"669 1827 OFFCURVE",
"626 1827 QCURVE SMOOTH",
"555 1827 OFFCURVE",
"399 1719 OFFCURVE",
"351 1653 QCURVE",
"418 1566 LINE",
"443 1596 OFFCURVE",
"548 1672 OFFCURVE",
"598 1672 QCURVE SMOOTH",
"628 1672 OFFCURVE",
"698 1635 OFFCURVE",
"727 1611 QCURVE SMOOTH"
);
},
{
closed = 1;
nodes = (
"355 1339 OFFCURVE",
"529 1185 OFFCURVE",
"659 1185 QCURVE SMOOTH",
"797 1185 OFFCURVE",
"1012 1341 OFFCURVE",
"1061 1452 QCURVE",
"984 1505 LINE",
"945 1452 OFFCURVE",
"791 1341 OFFCURVE",
"675 1341 QCURVE SMOOTH",
"579 1341 OFFCURVE",
"455 1444 OFFCURVE",
"436 1506 QCURVE",
"352 1449 LINE"
);
}
);
width = 1024;
}
);
},
{
glyphname = caron.alt;
layers = (
{
layerId = "0C979A8A-491B-4450-B337-179908CF5A8F";
paths = (
{
closed = 1;
nodes = (
"636 1374 LINE SMOOTH",
"667 1444 OFFCURVE",
"728 1521 OFFCURVE",
"768 1521 QCURVE SMOOTH",
"808 1521 OFFCURVE",
"851 1476 OFFCURVE",
"851 1441 QCURVE SMOOTH",
"851 1406 OFFCURVE",
"808 1328 OFFCURVE",
"776 1284 QCURVE SMOOTH",
"572 1000 LINE",
"491 1045 LINE"
);
}
);
width = 1024;
}
);
},
{
glyphname = ring_acute;
layers = (
{
layerId = "0C979A8A-491B-4450-B337-179908CF5A8F";
paths = (
{
closed = 1;
nodes = (
"751 1857 LINE SMOOTH",
"795 1887 OFFCURVE",
"870 1933 OFFCURVE",
"898 1933 QCURVE SMOOTH",
"946 1933 OFFCURVE",
"989 1884 OFFCURVE",
"989 1851 QCURVE SMOOTH",
"989 1815 OFFCURVE",
"931 1769 OFFCURVE",
"863 1740 QCURVE SMOOTH",
"555 1609 LINE",
"507 1692 LINE"
);
},
{
closed = 1;
nodes = (
"444 1466 OFFCURVE",
"566 1583 OFFCURVE",
"661 1583 QCURVE SMOOTH",
"756 1583 OFFCURVE",
"878 1466 OFFCURVE",
"878 1375 QCURVE SMOOTH",
"878 1284 OFFCURVE",
"756 1167 OFFCURVE",
"661 1167 QCURVE SMOOTH",
"566 1167 OFFCURVE",
"444 1284 OFFCURVE",
"444 1375 QCURVE SMOOTH"
);
},
{
closed = 1;
nodes = (
"558 1329 OFFCURVE",
"614 1272 OFFCURVE",
"661 1272 QCURVE SMOOTH",
"711 1272 OFFCURVE",
"764 1325 OFFCURVE",
"764 1375 QCURVE SMOOTH",
"764 1421 OFFCURVE",
"708 1478 OFFCURVE",
"661 1478 QCURVE SMOOTH",
"611 1478 OFFCURVE",
"558 1425 OFFCURVE",
"558 1375 QCURVE SMOOTH"
);
}
);
width = 1024;
}
);
},
{
glyphname = dieresis_macron;
layers = (
{
layerId = "0C979A8A-491B-4450-B337-179908CF5A8F";
paths = (
{
closed = 1;
nodes = (
"340 1239 OFFCURVE",
"393 1185 OFFCURVE",
"437 1185 QCURVE SMOOTH",
"494 1185 OFFCURVE",
"563 1248 OFFCURVE",
"566 1307 QCURVE",
"566 1355 OFFCURVE",
"517 1408 OFFCURVE",
"469 1408 QCURVE SMOOTH",
"407 1408 OFFCURVE",
"340 1329 OFFCURVE",
"340 1278 QCURVE"
);
},
{
closed = 1;
nodes = (
"795 1239 OFFCURVE",
"848 1185 OFFCURVE",
"892 1185 QCURVE SMOOTH",
"949 1185 OFFCURVE",
"1018 1248 OFFCURVE",
"1021 1307 QCURVE",
"1021 1355 OFFCURVE",
"972 1408 OFFCURVE",
"924 1408 QCURVE SMOOTH",
"862 1408 OFFCURVE",
"795 1329 OFFCURVE",
"795 1278 QCURVE"
);
},
{
closed = 1;
nodes = (
"429 1531 LINE",
"1021 1531 LINE",
"1050 1668 LINE",
"458 1668 LINE"
);
}
);
width = 1024;
}
);
},
{
glyphname = tilde_macron;
layers = (
{
layerId = "0C979A8A-491B-4450-B337-179908CF5A8F";
paths = (
{
closed = 1;
nodes = (
"677 1230 OFFCURVE",
"767 1185 OFFCURVE",
"817 1185 QCURVE SMOOTH",
"875 1185 OFFCURVE",
"1020 1267 OFFCURVE",
"1057 1320 QCURVE",
"1008 1399 LINE",
"994 1385 OFFCURVE",
"904 1332 OFFCURVE",
"862 1332 QCURVE SMOOTH",
"819 1332 OFFCURVE",
"739 1384 OFFCURVE",
"714 1401 QCURVE SMOOTH",
"680 1427 OFFCURVE",
"610 1455 OFFCURVE",
"567 1455 QCURVE SMOOTH",
"496 1455 OFFCURVE",
"336 1350 OFFCURVE",
"302 1307 QCURVE",
"356 1228 LINE",
"368 1236 OFFCURVE",
"472 1308 OFFCURVE",
"522 1308 QCURVE SMOOTH",
"552 1308 OFFCURVE",
"622 1273 OFFCURVE",
"651 1250 QCURVE SMOOTH"
);
},
{
closed = 1;
nodes = (
"423 1533 LINE",
"1015 1533 LINE",
"1044 1670 LINE",
"452 1670 LINE"
);
}
);
width = 1024;
}
);
},
{
glyphname = dotaccent_macron;
layers = (
{
layerId = "0C979A8A-491B-4450-B337-179908CF5A8F";
paths = (
{
closed = 1;
nodes = (
"569 1239 OFFCURVE",
"622 1185 OFFCURVE",
"666 1185 QCURVE SMOOTH",
"723 1185 OFFCURVE",
"792 1248 OFFCURVE",
"795 1307 QCURVE",
"795 1355 OFFCURVE",
"746 1408 OFFCURVE",
"698 1408 QCURVE SMOOTH",
"636 1408 OFFCURVE",
"569 1329 OFFCURVE",
"569 1278 QCURVE"
);
},
{
closed = 1;
nodes = (
"424 1519 LINE",
"1016 1519 LINE",
"1045 1656 LINE",
"453 1656 LINE"
);
}
);
width = 1024;
}
);
},
{
glyphname = grave.uc;
layers = (
{
layerId = "0C979A8A-491B-4450-B337-179908CF5A8F";
paths = (
{
closed = 1;
nodes = (
"893 1592 LINE",
"967 1662 LINE",
"779 1906 LINE SMOOTH",
"753 1940 OFFCURVE",
"699 1994 OFFCURVE",
"661 1994 QCURVE SMOOTH",
"621 1994 OFFCURVE",
"571 1944 OFFCURVE",
"571 1908 QCURVE SMOOTH",
"571 1874 OFFCURVE",
"607 1829 OFFCURVE",
"639 1802 QCURVE SMOOTH"
);
}
);
width = 1024;
}
);
},
{
glyphname = acute.uc;
layers = (
{
layerId = "0C979A8A-491B-4450-B337-179908CF5A8F";
paths = (
{
closed = 1;
nodes = (
"579 1592 LINE",
"902 1770 LINE SMOOTH",
"951 1797 OFFCURVE",
"1022 1860 OFFCURVE",
"1022 1900 QCURVE SMOOTH",
"1022 1940 OFFCURVE",
"972 1994 OFFCURVE",
"932 1994 QCURVE SMOOTH",
"892 1994 OFFCURVE",
"824 1948 OFFCURVE",
"780 1910 QCURVE SMOOTH",
"514 1678 LINE"
);
}
);
width = 1024;
}
);
},
{
glyphname = circumflex.uc;
layers = (
{
layerId = "0C979A8A-491B-4450-B337-179908CF5A8F";
paths = (
{
closed = 1;
nodes = (
"847 1982 OFFCURVE",
"885 1951 OFFCURVE",
"908 1909 QCURVE SMOOTH",
"1060 1666 LINE",
"972 1593 LINE",
"782 1808 LINE",
"502 1593 LINE",
"434 1666 LINE",
"688 1909 LINE SMOOTH",
"739 1958 OFFCURVE",
"779 1982 OFFCURVE",
"813 1982 QCURVE SMOOTH"
);
}
);
width = 1024;
}
);
},
{
glyphname = tilde.uc;
layers = (
{
layerId = "0C979A8A-491B-4450-B337-179908CF5A8F";
paths = (
{
closed = 1;
nodes = (
"422 1800 OFFCURVE",
"584 1905 OFFCURVE",
"655 1905 QCURVE SMOOTH",
"698 1905 OFFCURVE",
"767 1877 OFFCURVE",
"801 1851 QCURVE SMOOTH",
"825 1834 OFFCURVE",
"905 1782 OFFCURVE",
"948 1782 QCURVE SMOOTH",
"990 1782 OFFCURVE",
"1080 1835 OFFCURVE",
"1112 1872 QCURVE",
"1180 1793 LINE",
"1125 1717 OFFCURVE",
"979 1635 OFFCURVE",
"921 1635 QCURVE SMOOTH",
"871 1635 OFFCURVE",
"781 1680 OFFCURVE",
"756 1700 QCURVE SMOOTH",
"727 1723 OFFCURVE",
"657 1758 OFFCURVE",
"627 1758 QCURVE SMOOTH",
"577 1758 OFFCURVE",
"472 1686 OFFCURVE",
"447 1658 QCURVE",
"374 1737 LINE"
);
}
);
width = 1024;
}
);
},
{
glyphname = macron.uc;
layers = (
{
layerId = "0C979A8A-491B-4450-B337-179908CF5A8F";
paths = (
{
closed = 1;
nodes = (
"485 1811 LINE",
"1077 1811 LINE",
"1048 1674 LINE",
"456 1674 LINE"
);
}
);
width = 1024;
}
);
},
{
glyphname = breve.uc;
layers = (
{
layerId = "0C979A8A-491B-4450-B337-179908CF5A8F";
paths = (
{
closed = 1;
nodes = (
"1159 1902 LINE",
"1117 1804 OFFCURVE",
"887 1635 OFFCURVE",
"757 1635 QCURVE SMOOTH",
"627 1635 OFFCURVE",
"453 1789 OFFCURVE",
"450 1899 QCURVE",
"534 1956 LINE",
"553 1894 OFFCURVE",
"677 1791 OFFCURVE",
"773 1791 QCURVE SMOOTH",
"875 1791 OFFCURVE",
"1043 1902 OFFCURVE",
"1082 1955 QCURVE"
);
}
);
width = 1024;
}
);
},
{
glyphname = dotaccent.uc;
layers = (
{
layerId = "0C979A8A-491B-4450-B337-179908CF5A8F";
paths = (
{
closed = 1;
nodes = (
"642 1810 OFFCURVE",
"704 1871 OFFCURVE",
"763 1871 QCURVE SMOOTH",
"818 1871 OFFCURVE",
"884 1806 OFFCURVE",
"884 1753 QCURVE SMOOTH",
"884 1696 OFFCURVE",
"822 1635 OFFCURVE",
"763 1635 QCURVE SMOOTH",
"708 1635 OFFCURVE",
"642 1700 OFFCURVE",
"642 1753 QCURVE SMOOTH"
);
}
);
width = 1024;
}
);
},
{
glyphname = dieresis.uc;
layers = (
{
layerId = "0C979A8A-491B-4450-B337-179908CF5A8F";
paths = (
{
closed = 1;
nodes = (
"414 1803 OFFCURVE",
"474 1862 OFFCURVE",
"530 1862 QCURVE SMOOTH",
"583 1862 OFFCURVE",
"646 1799 OFFCURVE",
"646 1748 QCURVE SMOOTH",
"646 1694 OFFCURVE",
"587 1635 OFFCURVE",
"530 1635 QCURVE SMOOTH",
"477 1635 OFFCURVE",
"414 1697 OFFCURVE",
"414 1748 QCURVE SMOOTH"
);
},
{
closed = 1;
nodes = (
"874 1803 OFFCURVE",
"934 1862 OFFCURVE",
"990 1862 QCURVE SMOOTH",
"1043 1862 OFFCURVE",
"1106 1799 OFFCURVE",
"1106 1748 QCURVE SMOOTH",
"1106 1694 OFFCURVE",
"1047 1635 OFFCURVE",
"990 1635 QCURVE SMOOTH",
"937 1635 OFFCURVE",
"874 1697 OFFCURVE",
"874 1748 QCURVE SMOOTH"
);
}
);
width = 1024;
}
);
},
{
glyphname = hookabove.uc;
layers = (
{
layerId = "0C979A8A-491B-4450-B337-179908CF5A8F";
paths = (
{
closed = 1;
nodes = (
"676 1734 LINE",
"766 1829 LINE",
"781 1822 OFFCURVE",
"829 1815 OFFCURVE",
"850 1815 QCURVE SMOOTH",
"902 1815 OFFCURVE",
"964 1870 OFFCURVE",
"964 1926 QCURVE SMOOTH",
"964 1964 OFFCURVE",
"904 2001 OFFCURVE",
"847 2001 QCURVE SMOOTH",
"790 2001 OFFCURVE",
"677 1977 OFFCURVE",
"638 1960 QCURVE",
"608 2069 LINE",
"664 2094 OFFCURVE",
"822 2125 OFFCURVE",
"884 2125 QCURVE SMOOTH",
"1006 2125 OFFCURVE",
"1126 2026 OFFCURVE",
"1126 1946 QCURVE SMOOTH",
"1126 1836 OFFCURVE",
"994 1698 OFFCURVE",
"899 1698 QCURVE SMOOTH",
"869 1698 OFFCURVE",
"813 1707 OFFCURVE",
"798 1711 QCURVE",
"775 1593 LINE SMOOTH",
"649 1593 LINE"
);
}
);
width = 1024;
}
);
},
{
glyphname = ring.uc;
layers = (
{
layerId = "0C979A8A-491B-4450-B337-179908CF5A8F";
paths = (
{
closed = 1;
nodes = (
"548 1919 OFFCURVE",
"670 2036 OFFCURVE",
"765 2036 QCURVE SMOOTH",
"860 2036 OFFCURVE",
"982 1919 OFFCURVE",
"982 1828 QCURVE SMOOTH",
"982 1737 OFFCURVE",
"860 1620 OFFCURVE",
"765 1620 QCURVE SMOOTH",
"670 1620 OFFCURVE",
"548 1737 OFFCURVE",
"548 1828 QCURVE SMOOTH"
);
},
{
closed = 1;
nodes = (
"662 1782 OFFCURVE",
"718 1725 OFFCURVE",
"765 1725 QCURVE SMOOTH",
"815 1725 OFFCURVE",
"868 1778 OFFCURVE",
"868 1828 QCURVE SMOOTH",
"868 1874 OFFCURVE",
"812 1931 OFFCURVE",
"765 1931 QCURVE SMOOTH",
"715 1931 OFFCURVE",
"662 1878 OFFCURVE",
"662 1828 QCURVE SMOOTH"
);
}
);
width = 1024;
}
);
},
{
glyphname = hungarumlaut.uc;
layers = (
{
layerId = "0C979A8A-491B-4450-B337-179908CF5A8F";
paths = (
{
closed = 1;
nodes = (
"812 1880 OFFCURVE",
"745 1819 OFFCURVE",
"700 1788 QCURVE SMOOTH",
"418 1592 LINE",
"352 1676 LINE",
"590 1910 LINE SMOOTH",
"630 1950 OFFCURVE",
"692 1994 OFFCURVE",
"728 1994 QCURVE SMOOTH",
"764 1994 OFFCURVE",
"812 1952 OFFCURVE",
"812 1916 QCURVE SMOOTH"
);
},
{
closed = 1;
nodes = (
"1202 1880 OFFCURVE",
"1135 1819 OFFCURVE",
"1090 1788 QCURVE SMOOTH",
"808 1592 LINE",
"742 1676 LINE",
"980 1910 LINE SMOOTH",
"1020 1950 OFFCURVE",
"1082 1994 OFFCURVE",
"1118 1994 QCURVE SMOOTH",
"1154 1994 OFFCURVE",
"1202 1952 OFFCURVE",
"1202 1916 QCURVE SMOOTH"
);
}
);
width = 1024;
}
);
},
{
glyphname = caron.uc;
layers = (
{
layerId = "0C979A8A-491B-4450-B337-179908CF5A8F";
paths = (
{
closed = 1;
nodes = (
"710 1635 OFFCURVE",
"672 1666 OFFCURVE",
"650 1708 QCURVE SMOOTH",
"498 1951 LINE",
"579 2024 LINE",
"769 1809 LINE",
"1049 2024 LINE",
"1124 1951 LINE",
"870 1708 LINE SMOOTH",
"818 1659 OFFCURVE",
"778 1635 OFFCURVE",
"744 1635 QCURVE SMOOTH"
);
}
);
width = 1024;
}
);
},
{
glyphname = dblgrave.uc;
layers = (
{
layerId = "0C979A8A-491B-4450-B337-179908CF5A8F";
paths = (
{
closed = 1;
nodes = (
"371 1944 OFFCURVE",
"425 1994 OFFCURVE",
"461 1994 QCURVE SMOOTH",
"497 1994 OFFCURVE",
"558 1935 OFFCURVE",
"590 1895 QCURVE SMOOTH",
"772 1670 LINE",
"695 1592 LINE",
"460 1788 LINE SMOOTH",
"421 1820 OFFCURVE",
"371 1872 OFFCURVE",
"371 1908 QCURVE SMOOTH"
);
},
{
closed = 1;
nodes = (
"761 1944 OFFCURVE",
"815 1994 OFFCURVE",
"851 1994 QCURVE SMOOTH",
"887 1994 OFFCURVE",
"948 1935 OFFCURVE",
"980 1895 QCURVE SMOOTH",
"1162 1670 LINE",
"1085 1592 LINE",
"850 1788 LINE SMOOTH",
"811 1820 OFFCURVE",
"761 1872 OFFCURVE",
"761 1908 QCURVE SMOOTH"
);
}
);
width = 1024;
}
);
},
{
glyphname = breveinverted.uc;
layers = (
{
layerId = "0C979A8A-491B-4450-B337-179908CF5A8F";
paths = (
{
closed = 1;
nodes = (
"396 1688 LINE",
"438 1786 OFFCURVE",
"668 1955 OFFCURVE",
"798 1955 QCURVE SMOOTH",
"928 1955 OFFCURVE",
"1102 1801 OFFCURVE",
"1105 1691 QCURVE",
"1021 1634 LINE",
"1002 1696 OFFCURVE",
"878 1799 OFFCURVE",
"782 1799 QCURVE SMOOTH",
"680 1799 OFFCURVE",
"512 1688 OFFCURVE",
"473 1635 QCURVE"
);
}
);
width = 1024;
}
);
},
{
glyphname = commaturnedabove.uc;
layers = (
{
layerId = "0C979A8A-491B-4450-B337-179908CF5A8F";
paths = (
{
closed = 1;
nodes = (
"892 2075 OFFCURVE",
"778 1957 OFFCURVE",
"758 1899 QCURVE",
"826 1899 OFFCURVE",
"902 1827 OFFCURVE",
"902 1771 QCURVE SMOOTH",
"902 1716 OFFCURVE",
"817 1635 OFFCURVE",
"757 1635 QCURVE SMOOTH",
"701 1635 OFFCURVE",
"615 1734 OFFCURVE",
"615 1814 QCURVE SMOOTH",
"615 1913 OFFCURVE",
"786 2109 OFFCURVE",
"884 2168 QCURVE",
"935 2106 LINE"
);
}
);
width = 1024;
}
);
},
{
glyphname = horn.uc;
layers = (
{
layerId = "0C979A8A-491B-4450-B337-179908CF5A8F";
paths = (
{
closed = 1;
nodes = (
"529 1450 OFFCURVE",
"605 1439 OFFCURVE",
"645 1439 QCURVE SMOOTH",
"693 1439 OFFCURVE",
"757 1488 OFFCURVE",
"768 1530 QCURVE SMOOTH",
"779 1572 OFFCURVE",
"786 1661 OFFCURVE",
"790 1730 QCURVE",
"931 1730 LINE",
"939 1695 OFFCURVE",
"951 1620 OFFCURVE",
"951 1580 QCURVE SMOOTH",
"951 1440 OFFCURVE",
"797 1304 OFFCURVE",
"661 1304 QCURVE SMOOTH",
"621 1304 OFFCURVE",
"518 1322 OFFCURVE",
"468 1342 QCURVE",
"491 1460 LINE"
);
}
);
width = 1024;
}
);
},
{
glyphname = dotbelow.uc;
layers = (
{
layerId = "0C979A8A-491B-4450-B337-179908CF5A8F";
paths = (
{
closed = 1;
nodes = (
"257 -220 OFFCURVE",
"319 -169 OFFCURVE",
"378 -169 QCURVE SMOOTH",
"433 -169 OFFCURVE",
"499 -234 OFFCURVE",
"499 -287 QCURVE SMOOTH",
"499 -344 OFFCURVE",
"437 -395 OFFCURVE",
"378 -395 QCURVE SMOOTH",
"323 -395 OFFCURVE",
"257 -330 OFFCURVE",
"257 -277 QCURVE SMOOTH"
);
}
);
width = 1024;
}
);
},
{
glyphname = cedilla.uc;
layers = (
{
layerId = "0C979A8A-491B-4450-B337-179908CF5A8F";
paths = (
{
closed = 1;
nodes = (
"393 -135 LINE",
"410 -131 OFFCURVE",
"460 -122 OFFCURVE",
"490 -122 QCURVE SMOOTH",
"570 -122 OFFCURVE",
"663 -230 OFFCURVE",
"644 -321 QCURVE SMOOTH",
"625 -412 OFFCURVE",
"470 -532 OFFCURVE",
"360 -532 QCURVE SMOOTH",
"280 -532 OFFCURVE",
"130 -486 OFFCURVE",
"78 -446 QCURVE",
"143 -337 LINE",
"170 -360 OFFCURVE",
"284 -408 OFFCURVE",
"342 -408 QCURVE SMOOTH",
"400 -408 OFFCURVE",
"474 -362 OFFCURVE",
"484 -312 QCURVE SMOOTH",
"494 -262 OFFCURVE",
"444 -222 OFFCURVE",
"392 -222 QCURVE SMOOTH",
"361 -222 OFFCURVE",
"310 -230 OFFCURVE",
"292 -236 QCURVE",
"240 -156 LINE",
"394 55 LINE",
"487 0 LINE"
);
}
);
width = 1024;
}
);
},
{
glyphname = ogonek.uc;
layers = (
{
layerId = "0C979A8A-491B-4450-B337-179908CF5A8F";
paths = (
{
closed = 1;
nodes = (
"253 -292 OFFCURVE",
"302 -347 OFFCURVE",
"353 -347 QCURVE SMOOTH",
"405 -347 OFFCURVE",
"542 -301 OFFCURVE",
"614 -254 QCURVE",
"649 -357 LINE",
"583 -418 OFFCURVE",
"405 -497 OFFCURVE",
"305 -497 QCURVE SMOOTH",
"205 -497 OFFCURVE",
"88 -389 OFFCURVE",
"88 -306 QCURVE SMOOTH",
"88 -223 OFFCURVE",
"240 -45 OFFCURVE",
"323 8 QCURVE SMOOTH",
"390 51 LINE",
"484 0 LINE",
"432 -42 LINE SMOOTH",
"355 -104 OFFCURVE",
"272 -199 OFFCURVE",
"263 -244 QCURVE SMOOTH"
);
}
);
width = 1024;
}
);
},
